<?xml version="1.0" encoding="utf-8"?>
<svg xmlns="http://www.w3.org/2000/svg" width="60" height="66" viewBox="0 0 60 66" fill="none">
<path d="M4.98665 49.0379V25.6194C4.98665 12.1088 15.9497 1 29.4425 1C41.8623 1 52.5009 11.4082 53 24.0182C53 24.6186 52.6007 25.019 52.0018 25.019H46.0126C45.5135 25.019 45.0144 24.6186 45.0144 24.0182C44.5153 15.3113 37.1286 8.50593 28.2447 8.90624C19.5603 9.30656 12.9722 16.8125 12.9722 25.4193V49.0379H4.98665Z" stroke="#001E2B" stroke-miterlimit="10"/>
<path d="M14.9529 65H2.99328C1.89697 65 1 64.1025 1 63.0055V51.0382C1 49.9412 1.89697 49.0437 2.99328 49.0437H14.9529C16.0492 49.0437 16.9462 49.9412 16.9462 51.0382V63.0055C16.9462 64.1025 16.0492 65 14.9529 65Z" stroke="#001E2B" stroke-miterlimit="10"/>
<path d="M26.9722 51.5014C28.877 50.4045 29.5787 47.9116 28.476 46.017C27.3732 44.1224 24.867 43.4244 22.9623 44.5213L9.02777 52.4986C7.12305 53.5955 6.42131 56.0884 7.52404 57.983C8.62677 59.8776 11.133 60.5756 13.0377 59.4787L26.9722 51.5014Z" fill="#00ED64" stroke="#001E2B" stroke-miterlimit="10"/>
<path d="M47.976 65C50.8844 65 53.7315 63.8742 55.788 61.8703C57.8446 59.8664 59 57.1485 59 54.3146C58.9834 52.7176 58.6245 51.1416 57.9463 49.6876C57.2682 48.2336 56.2858 46.9338 55.0621 45.8713C48.9386 40.674 48.0434 36.3104 48.0338 34.2558V33" fill="#00ED64"/>
<path d="M47.976 65C46.535 65.0012 45.108 64.7257 43.7764 64.1893C42.4448 63.6529 41.2347 62.866 40.2154 61.8736C39.196 60.8813 38.3875 59.7029 37.8358 58.4059C37.284 57.1088 37 55.7186 37 54.3146C37.0196 52.7172 37.3808 51.1413 38.0605 49.6875C38.7401 48.2338 39.7235 46.934 40.9476 45.8713C47.071 40.674 48.0338 36.3104 48.0338 34.2558V33" fill="#00ED64"/>
<path d="M48.0338 34.2558C48.0434 36.3104 48.9386 40.674 55.0621 45.8713C56.2858 46.9338 57.2682 48.2336 57.9463 49.6876C58.6245 51.1416 58.9834 52.7176 59 54.3146C59 57.1485 57.8446 59.8664 55.788 61.8703C53.7315 63.8742 50.8844 65 47.976 65C46.535 65.0012 45.108 64.7258 43.7764 64.1893C42.4448 63.6529 41.2347 62.866 40.2154 61.8736C39.196 60.8813 38.3875 59.7029 37.8358 58.4059C37.284 57.1088 37 55.7186 37 54.3146C37.0196 52.7172 37.3808 51.1413 38.0605 49.6875C38.7401 48.2338 39.7235 46.934 40.9476 45.8713C47.071 40.674 48.0338 36.3104 48.0338 34.2558ZM48.0338 34.2558V33" stroke="#001E2B" stroke-miterlimit="10" stroke-linecap="round"/>
<path d="M51 49.9385H47.2388C46.1642 49.9385 45.2687 50.8615 45.2687 51.9692C45.2687 53.0769 46.1642 54 47.2388 54H48.8507C49.9254 54 50.8209 54.9231 50.8209 56.0308C50.8209 57.1385 49.9254 58.0615 48.8507 58.0615H45M47.9554 48V60" stroke="#001E2B" stroke-miterlimit="10"/>
</svg>