<svg xmlns="http://www.w3.org/2000/svg" xmlns:xlink="http://www.w3.org/1999/xlink" viewBox="0 0 864.18 663.68"><defs><style>.cls-1,.cls-12,.cls-13,.cls-14,.cls-15,.cls-19,.cls-20,.cls-8{fill:none;}.cls-2{fill:#023430;}.cls-3{fill:#001e2b;}.cls-10,.cls-11,.cls-16,.cls-18,.cls-19,.cls-3,.cls-4,.cls-5,.cls-7,.cls-8{stroke:#001e2b;}.cls-11,.cls-12,.cls-13,.cls-14,.cls-15,.cls-20,.cls-3,.cls-4,.cls-7,.cls-8{stroke-miterlimit:10;}.cls-17,.cls-4,.cls-5{fill:#fff;}.cls-16,.cls-18,.cls-19,.cls-5{stroke-linecap:round;}.cls-10,.cls-16,.cls-18,.cls-19,.cls-5{stroke-linejoin:round;}.cls-16,.cls-6{fill:#b1ff05;}.cls-10,.cls-7{fill:#e9ff99;}.cls-9{clip-path:url(#clip-path);}.cls-11,.cls-18{fill:#00ed64;}.cls-12,.cls-13,.cls-14,.cls-15,.cls-20{stroke:#b1ff05;}.cls-13{stroke-dasharray:1.96 1.96;}.cls-14{stroke-dasharray:1.98 1.98;}.cls-15{stroke-dasharray:1.99 1.99;}.cls-20{stroke-dasharray:1.98 1.98;}</style><clipPath id="clip-path" transform="translate(115.93 -0.04)"><path class="cls-1" d="M165.48,333.05h82.36a83,83,0,0,0,83-83h0a83,83,0,0,1,83-83h.61a83,83,0,0,0,83-83V83a83,83,0,0,1,83-83h0a83,83,0,0,1,83,83V498.09A165.57,165.57,0,0,1,497.65,663.68H165.48A165.32,165.32,0,0,1,.17,497.77h0A165.32,165.32,0,0,1,165.48,333.05Z"/></clipPath></defs><g id="Layer_2" data-name="Layer 2"><g id="Layer_1-2" data-name="Layer 1"><path class="cls-2" d="M165.32,333.09h82.35a83,83,0,0,0,83-83h0a83,83,0,0,1,83-83h.6a83,83,0,0,0,83-83V83a83,83,0,0,1,83-83h0a83,83,0,0,1,83,83V498.14A165.59,165.59,0,0,1,497.49,663.73H165.32A165.33,165.33,0,0,1,0,497.81H0A165.32,165.32,0,0,1,165.32,333.09Z" transform="translate(115.93 -0.04)"/><path class="cls-3" d="M723.21,268.07,334.85,310a15.71,15.71,0,0,0-13.71,12.48L266.65,553.93l-143,15.43,2.69,24.91,390.11-42.08h0l153.19-16.53,7.25-26,54.69-232.41A7.71,7.71,0,0,0,723.21,268.07Z" transform="translate(115.93 -0.04)"/><path class="cls-4" d="M462.32,449.38l48.05-9.71a35.48,35.48,0,0,1,15.28.28c8.17,2,20,5.09,21.33,7.07.74,1.09-.48,10-24.74,6.39a19.49,19.49,0,0,0-8.18.53c-16.85,4.74-34.37,11.41-34.37,11.41Z" transform="translate(115.93 -0.04)"/><polygon class="cls-3" points="246.95 543.21 245.69 543.3 247.51 568.29 285.99 565.5 246.95 543.21"/><path class="cls-5" d="M478.35,460l33.36,7.89a22.15,22.15,0,0,1,9.95,5.5c6.53,6.26,19.86,15.57,18.1,19.63-2.37,5.44-20.21-3.6-30-8.25-2.82-1.34-5.45-3-8.52-3.59-14.17-2.56-29.74-4.87-29.74-4.87" transform="translate(115.93 -0.04)"/><path class="cls-5" d="M479.28,477.47l19.87,3.31c2.55.24,5.51,1.89,9,5.32,2.73,2.64,12.69,19.47,4.31,19.41-2,0-7.12-4.29-10.88-7.73a13.4,13.4,0,0,0-10.93-3.39c-6,.85-15.07,1.66-24.75,3.62" transform="translate(115.93 -0.04)"/><path class="cls-4" d="M739.49,263.21,349.9,291.49a15.73,15.73,0,0,0-14.14,12L273.2,532.93l411.56-29.88,62.78-230.36A7.7,7.7,0,0,0,739.49,263.21Z" transform="translate(115.93 -0.04)"/><polygon class="cls-6" points="465.54 326.42 810.85 301.35 758.75 492.01 417.86 511.74 465.54 326.42"/><line class="cls-4" x1="471.86" y1="348.75" x2="550.64" y2="343.03"/><line class="cls-4" x1="556.37" y1="342.61" x2="566.98" y2="341.84"/><line class="cls-4" x1="563.36" y1="365.44" x2="573.97" y2="364.67"/><line class="cls-4" x1="597.72" y1="386.27" x2="608.33" y2="385.5"/><line class="cls-4" x1="593.39" y1="400.12" x2="604.01" y2="399.35"/><line class="cls-4" x1="581.06" y1="364.15" x2="652.14" y2="358.99"/><line class="cls-4" x1="614.3" y1="385.07" x2="673.54" y2="380.77"/><line class="cls-4" x1="610.2" y1="398.9" x2="669.45" y2="394.6"/><line class="cls-4" x1="589.07" y1="413.97" x2="599.68" y2="413.2"/><line class="cls-4" x1="605.88" y1="412.75" x2="665.12" y2="408.45"/><line class="cls-4" x1="583.19" y1="427.94" x2="593.8" y2="427.17"/><path class="cls-3" d="M460.38,468.85c-3.9-4.53-4.49-5-9.74-7.82l-1.7-.47-14.24,8.09c1.12.47,2.24,1,3.36,1.46,2.92,1.3,9.46,7.09,11.34,9.68,24.7,34.06,33.71,34.94,37.08,34.68C500,513.41,470.45,480.54,460.38,468.85Z" transform="translate(115.93 -0.04)"/><path class="cls-3" d="M488.06,475.25c-4.34-4.1-9-7.86-14.51-10.14l-4.09-1.51-7.67,13.86c1.39.42,2.79.86,4.19,1.32,3,1,10.12,6.11,12.27,8.48C496.14,507,503.39,520.1,518.67,518,531.09,516.24,499.27,485.86,488.06,475.25Z" transform="translate(115.93 -0.04)"/><path class="cls-3" d="M414.79,491.66a4.32,4.32,0,0,0-.13,7.2c6,4.18,13.5,4,26.21,18.84,11.47,13.38,18.43-2.37,11.82-11.46s-14.14-11.61-19.5-18.27C429.29,483.11,420.12,488.26,414.79,491.66Z" transform="translate(115.93 -0.04)"/><line class="cls-4" x1="600" y1="426.72" x2="659.24" y2="422.42"/><path class="cls-7" d="M494.66,465.76a62.48,62.48,0,0,0-9.21-7.55L469.7,468.32l2.45.81c3.08,1.05,10,6.53,12.4,8.75,21.15,19.76,30.81,33.17,40.84,31.68C540.19,507.36,506,476.67,494.66,465.76Z" transform="translate(115.93 -0.04)"/><polygon class="cls-4" points="792.53 528.73 615.97 541.54 614.16 516.55 800.68 503.01 792.53 528.73"/><rect class="cls-4" x="130.16" y="529.11" width="392.38" height="25.06" transform="translate(77.56 25.01) rotate(-4.15)"/><path class="cls-3" d="M271.09,533.08,177.18,565l95.08-6.9s156-33.65,163-37Z" transform="translate(115.93 -0.04)"/><path class="cls-3" d="M494.66,465.76a62.48,62.48,0,0,0-9.21-7.55l-11.22,7.2c-.23-.1-.45-.21-.68-.3l-4.09-1.51-7.67,13.86c1.39.42,2.79.86,4.19,1.32,3,1,10.12,6.11,12.27,8.48,3.31,3.66,6.26,7.09,9,10.24,3.25-3.31,27.63,14.26,30.57,12.17,1.27-.9,5.42-1.3-8.14-18.18-5.43-6.76-5.33-14.3-2.38-15C500.82,470,498.59,469.55,494.66,465.76Z" transform="translate(115.93 -0.04)"/><polyline class="cls-8" points="777.23 504.71 836.02 285.7 448.87 313.8"/><g class="cls-9"><path class="cls-7" d="M253.58,461.1c-19.31,2.47-31.33,10.35-45.08,17L42.2,572.05l-30-85.9,207.31-56.46,7.75-1.31,8.95-1.81c3.14-.58-.7,1.61.83,4.41Z" transform="translate(115.93 -0.04)"/><polygon class="cls-3" points="280.11 501.91 231.53 458.41 82.07 499.93 118.29 595.79 280.11 501.91"/><path class="cls-3" d="M272.94,409.47c-4.1-2.45-4.67-2.65-9.38-3.47l-1.41.08-8.76,9.76c1,.07,1.94.16,2.92.25,2.55.25,9,3,11.07,4.48,27.39,19.59,34.46,18,37,16.93C314.31,433.27,283.56,415.8,272.94,409.47Z" transform="translate(115.93 -0.04)"/><path class="cls-3" d="M288.4,400.84c-5.14-2.59-11.23-2.53-17-1.93l-4.17.6-.13,15.28c1.38-.28,2.77-.55,4.16-.81,3-.55,11.39.52,14.3,1.55,24.25,8.53,37.77,12.26,48.38,7.46C350.16,415.65,310.47,412,288.4,400.84Z" transform="translate(115.93 -0.04)"/><path class="cls-7" d="M288.61,392c-3.78-1.31-5.43,1.73-9.37,2.07l-8.74,15.31,2.43-.87c3.08-1.07,11.92-1,15.16-.73,28.83,2.56,44.48,5.21,51.69-.17C351.85,398.64,314.89,401.17,288.61,392Z" transform="translate(115.93 -0.04)"/><path class="cls-3" d="M312.2,410s-18.45-6.47-11.71-17.37c-3-2.55,1-.64,1-.64l-19,11.63s-.71,8.32,2.73,8.21S312.2,410,312.2,410Z" transform="translate(115.93 -0.04)"/><path class="cls-10" d="M243.55,461.15s16,7.25,45.46-10.68c9.87-6,10.45-6.15,14.55-7.78,9.8-3.89,20.67-2.08,21.62-8.1.31-1.94-2.23-4.65-5.39-5.7-10.89-3.62-16.13-2.25-40.11,6.82-10.08,1.49,5.71-26,20.77-38.68s28.35-13.87,41.68-19.95c9.06-4.13,22.2-18.9-17.3-8.57-3.54.92-9,2.36-15.32,4.54a133.55,133.55,0,0,0-30.93,15.07c-2.9,2-8.71,6.61-18.71,14-15,11.09-22.14,15.12-32.71,21.34-12.62,7.43-28.25,11.69-28.25,11.69" transform="translate(115.93 -0.04)"/><path class="cls-7" d="M489.11,459.69l-7.6-3.56a19.25,19.25,0,0,0-5.09-.86,99,99,0,0,0-31.49,2.43c-25.82,6.16-75.59,18-76.84,18.39L142.15,505.46-17,366.6a53.87,53.87,0,0,0-77.48,6.82h0a53.86,53.86,0,0,0,10.1,77.12L89.2,578.15l7.72,5.67a27.34,27.34,0,0,0,21.7,4.75l5.55-1.14,252.48-68.51a29.89,29.89,0,0,1,9.56-.94c20.32,1.13,38.44-5.49,47.6-9.64a66.78,66.78,0,0,0,9-5,192.21,192.21,0,0,1,47.47-22.2" transform="translate(115.93 -0.04)"/><path class="cls-7" d="M490.28,481.17c8.44-2.68,15.43-2,24.32,1.43,15.48,6,25.31,8.28,30.09,6a3.43,3.43,0,0,0-.09-6.25l-31.75-17.24c-7.68-3.78-7.82-5-33.82-5.81" transform="translate(115.93 -0.04)"/><path class="cls-11" d="M103.11,471.42-23.6,357.69a54.49,54.49,0,0,0-78.46,5.91h0c-19.71,23.93-17.81,63.32,6.94,82L35.06,547.87Z" transform="translate(115.93 -0.04)"/><path class="cls-3" d="M24.17,497.77h0a164.45,164.45,0,0,1,20.36-78.94L29.07,405A164.56,164.56,0,0,0,.17,497.77h0a166.43,166.43,0,0,0,1.65,24l28.86,22.68A165.27,165.27,0,0,1,24.17,497.77Z" transform="translate(115.93 -0.04)"/></g><line class="cls-12" x1="379.02" y1="591.26" x2="380.02" y2="591.26"/><line class="cls-13" x1="381.98" y1="591.26" x2="400.61" y2="591.26"/><line class="cls-12" x1="401.59" y1="591.26" x2="402.59" y2="591.26"/><line class="cls-12" x1="418.33" y1="591.26" x2="419.33" y2="591.26"/><line class="cls-14" x1="421.31" y1="591.26" x2="554.69" y2="591.26"/><line class="cls-12" x1="555.68" y1="591.26" x2="556.68" y2="591.26"/><line class="cls-12" x1="435.33" y1="624.01" x2="436.33" y2="624.01"/><line class="cls-13" x1="438.29" y1="624.01" x2="456.92" y2="624.01"/><line class="cls-12" x1="457.9" y1="624.01" x2="458.9" y2="624.01"/><line class="cls-12" x1="472.15" y1="624.01" x2="473.15" y2="624.01"/><line class="cls-15" x1="475.14" y1="624.01" x2="601.74" y2="624.01"/><line class="cls-12" x1="602.74" y1="624.01" x2="603.74" y2="624.01"/><polyline class="cls-12" points="612.19 606.34 628.62 624.62 612.19 642.24"/><polyline class="cls-12" points="372.06 572.27 355.63 590.55 372.06 608.17"/><polygon class="cls-4" points="269.05 252.4 179.63 259.88 179.93 242.21 264.25 235.16 269.05 252.4"/><polygon class="cls-5" points="271.51 387.96 199.71 393.96 177.59 265.85 272.05 257.95 271.51 387.96"/><polygon class="cls-3" points="272.05 257.95 177.59 265.85 178.63 283.01 269.99 267.61 272.05 257.95"/><polygon class="cls-4" points="276.87 258.12 172.87 266.81 173.88 253.51 273.66 245.16 276.87 258.12"/><circle class="cls-16" cx="230.95" cy="330.92" r="27.16"/><path class="cls-3" d="M349,291a15.66,15.66,0,0,0-9.74,4.34l182.91,16,2.9-33.14Z" transform="translate(115.93 -0.04)"/><polygon class="cls-3" points="716.41 90.75 749.04 104.35 749.04 95.37 728.89 87.29 749.04 79.17 749.04 70.2 716.41 83.83 716.41 90.75"/><polygon class="cls-3" points="797.49 74.13 797.49 83.1 817.64 91.23 797.49 99.3 797.49 108.29 830.11 94.69 830.11 87.77 797.49 74.13"/><polygon class="cls-3" points="781.3 58.8 757.6 95.34 756.26 97.41 766.64 97.41 766.64 97.41 770.8 90.97 777.54 80.53 777.54 80.53 791.58 58.8 781.3 58.8"/><polygon class="cls-4" points="713.2 83.4 745.83 97 745.83 88.01 725.68 79.94 745.83 71.81 745.83 62.85 713.2 76.48 713.2 83.4"/><polygon class="cls-4" points="794.27 66.78 794.27 75.75 814.43 83.87 794.27 91.95 794.27 100.93 826.9 87.33 826.9 80.41 794.27 66.78"/><polygon class="cls-4" points="778.09 51.45 754.39 87.99 753.05 90.06 763.42 90.06 763.42 90.06 767.58 83.62 774.32 73.18 774.32 73.18 788.36 51.45 778.09 51.45"/><path class="cls-17" d="M695.67,613.34A10.35,10.35,0,0,0,692.6,617q-1.07,2.15-2.87,10.24-1.63,7.34-3.92,10.29a9.58,9.58,0,0,1-6,3.63q-3.78.68-10.13-.74l-2.06-.46,2.12-9.53q4.84,1.08,6.38.53a3.88,3.88,0,0,0,2.27-2.14l3.17-11.42c1-3.68,2.28-6.4,3.8-8.15a14,14,0,0,1,6.28-4,14.33,14.33,0,0,1-4-6.12,16.54,16.54,0,0,1-.53-5.85q.25-2.94,2.14-12.51.7-3.48-.17-4.92c-.58-1-2.78-1.87-6.62-2.72l2.11-9.49,2.11.47A29.55,29.55,0,0,1,695,567a10.9,10.9,0,0,1,4.22,4.25,10.66,10.66,0,0,1,1.19,6,73.18,73.18,0,0,1-1.72,10c-1.31,5.88-1.42,9.81-.34,11.82s3.06,3.34,5.94,4l-2.13,9.53Q697.67,611.82,695.67,613.34Z" transform="translate(115.93 -0.04)"/><path class="cls-5" d="M695.67,613.34A10.35,10.35,0,0,0,692.6,617q-1.07,2.15-2.87,10.24-1.63,7.34-3.92,10.29a9.58,9.58,0,0,1-6,3.63q-3.78.68-10.13-.74l-2.06-.46,2.12-9.53q4.84,1.08,6.38.53a3.88,3.88,0,0,0,2.27-2.14l3.17-11.42c1-3.68,2.28-6.4,3.8-8.15a14,14,0,0,1,6.28-4,14.33,14.33,0,0,1-4-6.12,16.54,16.54,0,0,1-.53-5.85q.25-2.94,2.14-12.51.7-3.48-.17-4.92c-.58-1-2.78-1.87-6.62-2.72l2.11-9.49,2.11.47A29.55,29.55,0,0,1,695,567a10.9,10.9,0,0,1,4.22,4.25,10.66,10.66,0,0,1,1.19,6,73.18,73.18,0,0,1-1.72,10c-1.31,5.88-1.42,9.81-.34,11.82s3.06,3.34,5.94,4l-2.13,9.53Q697.67,611.82,695.67,613.34Z" transform="translate(115.93 -0.04)"/><path class="cls-3" d="M691,605.52a13.75,13.75,0,0,0-5.64,3.74c-1.52,1.75-2.78,4.47-3.8,8.15l-3.17,11.42a3.88,3.88,0,0,1-2.27,2.14q-1.53.56-6.38-.53L667.57,640l2.06.46q6.35,1.41,10.13.74a9.58,9.58,0,0,0,6-3.63q2.3-3,3.92-10.29,1.82-8.1,2.87-10.24a10.35,10.35,0,0,1,3.07-3.67q2-1.53,6.44-.7l1-4.41Z" transform="translate(115.93 -0.04)"/><path class="cls-17" d="M97.86,85.78l2.52-9.42q4.31,1.1,7.12-.81t5.17-10.64a73.48,73.48,0,0,1,3.12-9.71,10.72,10.72,0,0,1,3.81-4.72,11,11,0,0,1,5.71-1.82A29.88,29.88,0,0,1,134,50l2.08.56-2.51,9.39c-3.8-1-6.17-1.23-7.13-.65s-1.77,2-2.43,4.28q-2.76,9.36-3.89,12.09A16.48,16.48,0,0,1,117,80.56a14.5,14.5,0,0,1-6.37,3.58,14,14,0,0,1,3.73,6.43c.54,2.24.4,5.24-.4,9l-2.47,11.59a3.86,3.86,0,0,0,1,2.94c.74.81,2.71,1.63,5.9,2.49L115.85,126l-2-.55q-6.28-1.68-9.32-4a9.49,9.49,0,0,1-3.69-6q-.66-3.68,1.28-10.94,2.15-8,2.19-10.4a10.22,10.22,0,0,0-1-4.67C102.54,87.87,100.74,86.66,97.86,85.78Z" transform="translate(115.93 -0.04)"/><path class="cls-5" d="M97.86,85.78l2.52-9.42q4.31,1.1,7.12-.81t5.17-10.64a73.48,73.48,0,0,1,3.12-9.71,10.72,10.72,0,0,1,3.81-4.72,11,11,0,0,1,5.71-1.82A29.88,29.88,0,0,1,134,50l2.08.56-2.51,9.39c-3.8-1-6.17-1.23-7.13-.65s-1.77,2-2.43,4.28q-2.76,9.36-3.89,12.09A16.48,16.48,0,0,1,117,80.56a14.5,14.5,0,0,1-6.37,3.58,14,14,0,0,1,3.73,6.43c.54,2.24.4,5.24-.4,9l-2.47,11.59a3.86,3.86,0,0,0,1,2.94c.74.81,2.71,1.63,5.9,2.49L115.85,126l-2-.55q-6.28-1.68-9.32-4a9.49,9.49,0,0,1-3.69-6q-.66-3.68,1.28-10.94,2.15-8,2.19-10.4a10.22,10.22,0,0,0-1-4.67C102.54,87.87,100.74,86.66,97.86,85.78Z" transform="translate(115.93 -0.04)"/><path class="cls-3" d="M111.05,84.64a13.72,13.72,0,0,1,3.27,5.93c.54,2.24.4,5.24-.4,9l-2.47,11.59a3.86,3.86,0,0,0,1,2.94c.74.81,2.71,1.63,5.9,2.49L115.85,126l-2-.55q-6.28-1.68-9.32-4a9.49,9.49,0,0,1-3.69-6q-.66-3.68,1.28-10.94,2.15-8,2.19-10.4a10.22,10.22,0,0,0-1-4.67c-.71-1.52-2.51-2.73-5.39-3.61L99,81.42Z" transform="translate(115.93 -0.04)"/><path class="cls-4" d="M210,14.22H491.27a10.31,10.31,0,0,1,10.31,10.31v225a0,0,0,0,1,0,0H199.73a0,0,0,0,1,0,0v-225A10.31,10.31,0,0,1,210,14.22Z" transform="translate(115.39 1.38) rotate(-0.23)"/><path class="cls-4" d="M209.63,14.22H490.86a10.31,10.31,0,0,1,10.31,10.31V47.18a0,0,0,0,1,0,0H199.32a0,0,0,0,1,0,0V24.53a10.31,10.31,0,0,1,10.31-10.31Z" transform="translate(115.8 1.38) rotate(-0.23)"/><circle class="cls-3" cx="334.58" cy="31.81" r="5.45"/><circle class="cls-3" cx="352.02" cy="31.74" r="5.45"/><circle class="cls-3" cx="369.46" cy="31.67" r="5.45"/><rect class="cls-18" x="210.59" y="56.85" width="278.8" height="179.42" transform="translate(115.33 1.38) rotate(-0.23)"/><line class="cls-19" x1="605.13" y1="102.59" x2="326.34" y2="103.72"/><line class="cls-19" x1="466.27" y1="236.23" x2="465.73" y2="103.16"/><rect class="cls-4" x="229.1" y="124.14" width="98.8" height="12.54" transform="translate(115.4 1.09) rotate(-0.23)"/><rect class="cls-4" x="229.33" y="149.04" width="98.8" height="71.85" transform="translate(115.18 1.09) rotate(-0.23)"/><line class="cls-12" x1="693.3" y1="199.82" x2="694.18" y2="199.35"/><line class="cls-20" x1="695.92" y1="198.4" x2="757.54" y2="164.86"/><line class="cls-12" x1="758.4" y1="164.39" x2="759.28" y2="163.91"/><line class="cls-12" x1="643.6" y1="205.46" x2="644.47" y2="204.98"/><line class="cls-20" x1="646.21" y1="204.04" x2="707.83" y2="170.5"/><line class="cls-12" x1="708.7" y1="170.02" x2="709.58" y2="169.54"/></g></g></svg>