<?xml version="1.0" encoding="utf-8"?>
<svg xmlns="http://www.w3.org/2000/svg" width="66" height="50" viewBox="0 0 66 50" fill="none">
<path d="M45.1319 15.7875C45.1319 14.2125 46.3626 12.9875 47.945 12.9875C46.3626 12.9875 45.1319 11.7625 45.1319 10.1875V5.11251C45.1319 2.8375 43.2857 1 41 1H25C22.7143 1 20.8681 2.8375 20.8681 5.11251V10.1875C20.8681 11.7625 19.6373 12.9875 18.0549 12.9875C19.6373 12.9875 20.8681 14.2125 20.8681 15.7875L20.876 18C23.3354 19.3647 25 21.988 25 25C25 26.4062 24.6371 27.8517 24 29H42C41.3628 27.8517 41 26.4062 41 25C41 21.988 42.6646 19.3647 45.124 18L45.1319 15.7875Z" fill="#00ED64"/>
<path d="M49 13.4875C49.2761 13.4875 49.5 13.2636 49.5 12.9875C49.5 12.7113 49.2761 12.4875 49 12.4875V13.4875ZM45.1319 15.7875L45.6319 15.7893V15.7875H45.1319ZM20.8681 15.7875H20.3681L20.3681 15.7893L20.8681 15.7875ZM17 12.4875C16.7239 12.4875 16.5 12.7113 16.5 12.9875C16.5 13.2636 16.7239 13.4875 17 13.4875V12.4875ZM25.1382 2.03602C24.8728 1.95972 24.5958 2.11301 24.5195 2.3784C24.4432 2.64379 24.5965 2.92079 24.8618 2.99709L25.1382 2.03602ZM41.11 3.00431C41.3794 2.94357 41.5485 2.67595 41.4878 2.40657C41.427 2.13719 41.1594 1.96806 40.89 2.0288L41.11 3.00431ZM20.876 18L20.376 18.0018L20.3771 18.295L20.6334 18.4372L20.876 18ZM45.124 18L45.3666 18.4372L45.6229 18.295L45.624 18.0018L45.124 18ZM49 12.4875H47.9451V13.4875H49V12.4875ZM47.9451 12.4875C46.0887 12.4875 44.6319 13.9341 44.6319 15.7875H45.6319C45.6319 14.4908 46.6366 13.4875 47.9451 13.4875V12.4875ZM42 28.5H24V29.5H42V28.5ZM21.3681 15.7875C21.3681 13.9341 19.9113 12.4875 18.0549 12.4875V13.4875C19.3634 13.4875 20.3681 14.4908 20.3681 15.7875H21.3681ZM18.0549 12.4875H17V13.4875H18.0549V12.4875ZM47.9451 12.4875C46.6366 12.4875 45.6319 11.4842 45.6319 10.1875H44.6319C44.6319 12.0409 46.0887 13.4875 47.9451 13.4875V12.4875ZM45.6319 5.11251C45.6319 2.55915 43.5596 0.5 41 0.5V1.5C43.0118 1.5 44.6319 3.11586 44.6319 5.11251H45.6319ZM41 0.5H25V1.5H41V0.5ZM25 0.5C22.4404 0.5 20.3681 2.55915 20.3681 5.11251H21.3681C21.3681 3.11586 22.9882 1.5 25 1.5V0.5ZM20.3681 10.1875C20.3681 11.4842 19.3634 12.4875 18.0549 12.4875V13.4875C19.9113 13.4875 21.3681 12.0409 21.3681 10.1875H20.3681ZM45.6319 10.1875V5.11251H44.6319V10.1875H45.6319ZM20.3681 5.11251V10.1875H21.3681V5.11251H20.3681ZM25 2.51655C24.8618 2.99709 24.862 2.99714 24.8622 2.99719C24.8623 2.99722 24.8625 2.99729 24.8627 2.99734C24.8631 2.99746 24.8637 2.99761 24.8643 2.99778C24.8655 2.99813 24.8672 2.99861 24.8693 2.9992C24.8734 3.00038 24.8793 3.00203 24.8869 3.00413C24.902 3.00832 24.9239 3.01431 24.9524 3.0219C25.0093 3.03707 25.0925 3.05865 25.2009 3.08516C25.4175 3.13817 25.7346 3.21089 26.1421 3.29141C26.9569 3.45242 28.1341 3.64476 29.5936 3.77288C32.5116 4.02904 36.565 4.02915 41.11 3.00431L40.89 2.0288C36.4679 3.02594 32.5214 3.02605 29.6811 2.77671C28.2615 2.65209 27.12 2.4653 26.3359 2.31038C25.944 2.23293 25.6415 2.16348 25.4385 2.11381C25.3371 2.08898 25.2605 2.0691 25.21 2.05564C25.1847 2.04891 25.166 2.04379 25.154 2.04046C25.148 2.03879 25.1436 2.03757 25.141 2.03683C25.1397 2.03645 25.1388 2.0362 25.1383 2.03606C25.1381 2.03599 25.1379 2.03596 25.1379 2.03595C25.1379 2.03595 25.138 2.03596 25.1379 2.03596C25.138 2.03599 25.1382 2.03602 25 2.51655ZM21.376 17.9982L21.3681 15.7857L20.3681 15.7893L20.376 18.0018L21.376 17.9982ZM24 28.5C23.9993 28.5 23.9987 28.5 23.998 28.5C23.9973 28.5 23.9967 28.5 23.996 28.5C23.9954 28.5 23.9947 28.5 23.9941 28.5C23.9934 28.5 23.9928 28.5 23.9921 28.5C23.9915 28.5 23.9909 28.5 23.9902 28.5C23.9896 28.5 23.989 28.5 23.9884 28.5C23.9877 28.5 23.9871 28.5 23.9865 28.5C23.9859 28.5 23.9853 28.5 23.9847 28.5C23.9841 28.5 23.9835 28.5 23.9829 28.5C23.9823 28.5 23.9817 28.5 23.9811 28.5C23.9805 28.5 23.98 28.5 23.9794 28.5C23.9788 28.5 23.9782 28.5 23.9777 28.5C23.9771 28.5 23.9765 28.5 23.976 28.5C23.9754 28.5 23.9749 28.5 23.9743 28.5C23.9738 28.5 23.9732 28.5 23.9727 28.5C23.9721 28.5 23.9716 28.5 23.9711 28.5C23.9705 28.5 23.97 28.5 23.9695 28.5C23.969 28.5 23.9684 28.5 23.9679 28.5C23.9674 28.5 23.9669 28.5 23.9664 28.5C23.9659 28.5 23.9654 28.5 23.9649 28.5C23.9644 28.5 23.9639 28.5 23.9634 28.5C23.9629 28.5 23.9624 28.5 23.9619 28.5C23.9614 28.5 23.961 28.5 23.9605 28.5C23.96 28.5 23.9595 28.5 23.9591 28.5C23.9586 28.5 23.9581 28.5 23.9577 28.5C23.9572 28.5 23.9568 28.5 23.9563 28.5C23.9559 28.5 23.9554 28.5 23.955 28.5C23.9545 28.5 23.9541 28.5 23.9537 28.5C23.9532 28.5 23.9528 28.5 23.9524 28.5C23.9519 28.5 23.9515 28.5 23.9511 28.5C23.9507 28.5 23.9503 28.5 23.9499 28.5C23.9495 28.5 23.949 28.5 23.9486 28.5C23.9482 28.5 23.9478 28.5 23.9475 28.5C23.9471 28.5 23.9467 28.5 23.9463 28.5C23.9459 28.5 23.9455 28.5 23.9451 28.5C23.9447 28.5 23.9444 28.5 23.944 28.5C23.9436 28.5 23.9433 28.5 23.9429 28.5C23.9425 28.5 23.9422 28.5 23.9418 28.5C23.9415 28.5 23.9411 28.5 23.9408 28.5C23.9404 28.5 23.9401 28.5 23.9397 28.5C23.9394 28.5 23.9391 28.5 23.9387 28.5C23.9384 28.5 23.9381 28.5 23.9377 28.5C23.9374 28.5 23.9371 28.5 23.9368 28.5C23.9364 28.5 23.9361 28.5 23.9358 28.5C23.9355 28.5 23.9352 28.5 23.9349 28.5C23.9346 28.5 23.9343 28.5 23.934 28.5C23.9337 28.5 23.9334 28.5 23.9331 28.5C23.9328 28.5 23.9325 28.5 23.9323 28.5C23.932 28.5 23.9317 28.5 23.9314 28.5C23.9312 28.5 23.9309 28.5 23.9306 28.5C23.9304 28.5 23.9301 28.5 23.9298 28.5C23.9296 28.5 23.9293 28.5 23.9291 28.5C23.9288 28.5 23.9286 28.5 23.9283 28.5C23.9281 28.5 23.9278 28.5 23.9276 28.5C23.9273 28.5 23.9271 28.5 23.9269 28.5C23.9267 28.5 23.9264 28.5 23.9262 28.5C23.926 28.5 23.9258 28.5 23.9255 28.5C23.9253 28.5 23.9251 28.5 23.9249 28.5C23.9247 28.5 23.9245 28.5 23.9243 28.5C23.9241 28.5 23.9239 28.5 23.9237 28.5C23.9235 28.5 23.9233 28.5 23.9231 28.5C23.9229 28.5 23.9227 28.5 23.9225 28.5C23.9223 28.5 23.9222 28.5 23.922 28.5C23.9218 28.5 23.9216 28.5 23.9215 28.5C23.9213 28.5 23.9211 28.5 23.921 28.5C23.9208 28.5 23.9206 28.5 23.9205 28.5C23.9203 28.5 23.9202 28.5 23.92 28.5C23.9199 28.5 23.9197 28.5 23.9196 28.5C23.9194 28.5 23.9193 28.5 23.9192 28.5C23.919 28.5 23.9189 28.5 23.9188 28.5C23.9186 28.5 23.9185 28.5 23.9184 28.5C23.9183 28.5 23.9181 28.5 23.918 28.5C23.9179 28.5 23.9178 28.5 23.9177 28.5C23.9176 28.5 23.9175 28.5 23.9173 28.5C23.9172 28.5 23.9171 28.5 23.917 28.5C23.9169 28.5 23.9168 28.5 23.9168 28.5C23.9167 28.5 23.9166 28.5 23.9165 28.5C23.9164 28.5 23.9163 28.5 23.9162 28.5C23.9161 28.5 23.9161 28.5 23.916 28.5C23.9159 28.5 23.9159 28.5 23.9158 28.5C23.9157 28.5 23.9156 28.5 23.9156 28.5C23.9155 28.5 23.9155 28.5 23.9154 28.5C23.9154 28.5 23.9153 28.5 23.9152 28.5C23.9152 28.5 23.9152 28.5 23.9151 28.5C23.9151 28.5 23.915 28.5 23.915 28.5C23.9149 28.5 23.9149 28.5 23.9149 28.5C23.9148 28.5 23.9148 28.5 23.9148 28.5C23.9148 28.5 23.9147 28.5 23.9147 28.5C23.9147 28.5 23.9147 28.5 23.9147 28.5C23.9146 28.5 23.9146 28.5 23.9146 28.5C23.9146 28.5 23.9146 28.5 23.9146 28.5C23.9146 28.5 23.9146 29 23.9146 29.5C23.9146 29.5 23.9146 29.5 23.9146 29.5C23.9146 29.5 23.9146 29.5 23.9146 29.5C23.9147 29.5 23.9147 29.5 23.9147 29.5C23.9147 29.5 23.9147 29.5 23.9148 29.5C23.9148 29.5 23.9148 29.5 23.9148 29.5C23.9149 29.5 23.9149 29.5 23.9149 29.5C23.915 29.5 23.915 29.5 23.915 29.5C23.9151 29.5 23.9151 29.5 23.9152 29.5C23.9152 29.5 23.9153 29.5 23.9153 29.5C23.9154 29.5 23.9154 29.5 23.9155 29.5C23.9155 29.5 23.9156 29.5 23.9156 29.5C23.9157 29.5 23.9158 29.5 23.9158 29.5C23.9159 29.5 23.916 29.5 23.916 29.5C23.9161 29.5 23.9162 29.5 23.9163 29.5C23.9163 29.5 23.9164 29.5 23.9165 29.5C23.9166 29.5 23.9167 29.5 23.9167 29.5C23.9168 29.5 23.9169 29.5 23.917 29.5C23.9171 29.5 23.9172 29.5 23.9173 29.5C23.9174 29.5 23.9175 29.5 23.9176 29.5C23.9177 29.5 23.9178 29.5 23.9179 29.5C23.918 29.5 23.9181 29.5 23.9182 29.5C23.9183 29.5 23.9185 29.5 23.9186 29.5C23.9187 29.5 23.9188 29.5 23.9189 29.5C23.919 29.5 23.9192 29.5 23.9193 29.5C23.9194 29.5 23.9195 29.5 23.9197 29.5C23.9198 29.5 23.9199 29.5 23.9201 29.5C23.9202 29.5 23.9203 29.5 23.9205 29.5C23.9206 29.5 23.9208 29.5 23.9209 29.5C23.9211 29.5 23.9212 29.5 23.9213 29.5C23.9215 29.5 23.9216 29.5 23.9218 29.5C23.922 29.5 23.9221 29.5 23.9223 29.5C23.9224 29.5 23.9226 29.5 23.9227 29.5C23.9229 29.5 23.9231 29.5 23.9232 29.5C23.9234 29.5 23.9236 29.5 23.9237 29.5C23.9239 29.5 23.9241 29.5 23.9243 29.5C23.9244 29.5 23.9246 29.5 23.9248 29.5C23.925 29.5 23.9251 29.5 23.9253 29.5C23.9255 29.5 23.9257 29.5 23.9259 29.5C23.9261 29.5 23.9263 29.5 23.9265 29.5C23.9266 29.5 23.9268 29.5 23.927 29.5C23.9272 29.5 23.9274 29.5 23.9276 29.5C23.9278 29.5 23.928 29.5 23.9282 29.5C23.9284 29.5 23.9286 29.5 23.9288 29.5C23.9291 29.5 23.9293 29.5 23.9295 29.5C23.9297 29.5 23.9299 29.5 23.9301 29.5C23.9303 29.5 23.9305 29.5 23.9308 29.5C23.931 29.5 23.9312 29.5 23.9314 29.5C23.9317 29.5 23.9319 29.5 23.9321 29.5C23.9323 29.5 23.9326 29.5 23.9328 29.5C23.933 29.5 23.9333 29.5 23.9335 29.5C23.9337 29.5 23.934 29.5 23.9342 29.5C23.9344 29.5 23.9347 29.5 23.9349 29.5C23.9352 29.5 23.9354 29.5 23.9357 29.5C23.9359 29.5 23.9361 29.5 23.9364 29.5C23.9366 29.5 23.9369 29.5 23.9371 29.5C23.9374 29.5 23.9377 29.5 23.9379 29.5C23.9382 29.5 23.9384 29.5 23.9387 29.5C23.9389 29.5 23.9392 29.5 23.9395 29.5C23.9397 29.5 23.94 29.5 23.9403 29.5C23.9405 29.5 23.9408 29.5 23.9411 29.5C23.9413 29.5 23.9416 29.5 23.9419 29.5C23.9422 29.5 23.9424 29.5 23.9427 29.5C23.943 29.5 23.9433 29.5 23.9435 29.5C23.9438 29.5 23.9441 29.5 23.9444 29.5C23.9447 29.5 23.945 29.5 23.9452 29.5C23.9455 29.5 23.9458 29.5 23.9461 29.5C23.9464 29.5 23.9467 29.5 23.947 29.5C23.9473 29.5 23.9476 29.5 23.9479 29.5C23.9481 29.5 23.9484 29.5 23.9487 29.5C23.949 29.5 23.9493 29.5 23.9496 29.5C23.9499 29.5 23.9502 29.5 23.9506 29.5C23.9509 29.5 23.9512 29.5 23.9515 29.5C23.9518 29.5 23.9521 29.5 23.9524 29.5C23.9527 29.5 23.953 29.5 23.9533 29.5C23.9536 29.5 23.954 29.5 23.9543 29.5C23.9546 29.5 23.9549 29.5 23.9552 29.5C23.9555 29.5 23.9559 29.5 23.9562 29.5C23.9565 29.5 23.9568 29.5 23.9571 29.5C23.9575 29.5 23.9578 29.5 23.9581 29.5C23.9584 29.5 23.9588 29.5 23.9591 29.5C23.9594 29.5 23.9598 29.5 23.9601 29.5C23.9604 29.5 23.9608 29.5 23.9611 29.5C23.9614 29.5 23.9618 29.5 23.9621 29.5C23.9624 29.5 23.9628 29.5 23.9631 29.5C23.9635 29.5 23.9638 29.5 23.9641 29.5C23.9645 29.5 23.9648 29.5 23.9652 29.5C23.9655 29.5 23.9659 29.5 23.9662 29.5C23.9665 29.5 23.9669 29.5 23.9672 29.5C23.9676 29.5 23.9679 29.5 23.9683 29.5C23.9686 29.5 23.969 29.5 23.9693 29.5C23.9697 29.5 23.9701 29.5 23.9704 29.5C23.9708 29.5 23.9711 29.5 23.9715 29.5C23.9718 29.5 23.9722 29.5 23.9725 29.5C23.9729 29.5 23.9733 29.5 23.9736 29.5C23.974 29.5 23.9744 29.5 23.9747 29.5C23.9751 29.5 23.9754 29.5 23.9758 29.5C23.9762 29.5 23.9765 29.5 23.9769 29.5C23.9773 29.5 23.9776 29.5 23.978 29.5C23.9784 29.5 23.9788 29.5 23.9791 29.5C23.9795 29.5 23.9799 29.5 23.9802 29.5C23.9806 29.5 23.981 29.5 23.9814 29.5C23.9817 29.5 23.9821 29.5 23.9825 29.5C23.9829 29.5 23.9832 29.5 23.9836 29.5C23.984 29.5 23.9844 29.5 23.9848 29.5C23.9851 29.5 23.9855 29.5 23.9859 29.5C23.9863 29.5 23.9867 29.5 23.9871 29.5C23.9874 29.5 23.9878 29.5 23.9882 29.5C23.9886 29.5 23.989 29.5 23.9894 29.5C23.9897 29.5 23.9901 29.5 23.9905 29.5C23.9909 29.5 23.9913 29.5 23.9917 29.5C23.9921 29.5 23.9925 29.5 23.9929 29.5C23.9933 29.5 23.9936 29.5 23.994 29.5C23.9944 29.5 23.9948 29.5 23.9952 29.5C23.9956 29.5 23.996 29.5 23.9964 29.5C23.9968 29.5 23.9972 29.5 23.9976 29.5C23.998 29.5 23.9984 29.5 23.9988 29.5C23.9992 29.5 23.9996 29.5 24 29.5C24.0004 29.5 24.0008 29.5 24.0012 29.5C24.0016 29.5 24.002 29.5 24.0024 29.5C24.0028 29.5 24.0032 29.5 24.0036 29.5C24.004 29.5 24.0044 29.5 24.0048 29.5C24.0052 29.5 24.0056 29.5 24.006 29.5C24.0064 29.5 24.0068 29.5 24.0072 29.5C24.0076 29.5 24.008 29.5 24.0084 29.5C24.0088 29.5 24.0092 29.5 24.0096 29.5C24.01 29.5 24.0105 29.5 24.0109 29.5C24.0113 29.5 24.0117 29.5 24.0121 29.5C24.0125 29.5 24.0129 29.5 24.0133 29.5C24.0137 29.5 24.0141 29.5 24.0145 29.5C24.015 29.5 24.0154 29.5 24.0158 29.5C24.0162 29.5 24.0166 29.5 24.017 29.5C24.0174 29.5 24.0178 29.5 24.0182 29.5C24.0187 29.5 24.0191 29.5 24.0195 29.5C24.0199 29.5 24.0203 29.5 24.0207 29.5C24.0211 29.5 24.0215 29.5 24.022 29.5C24.0224 29.5 24.0228 29.5 24.0232 29.5C24.0236 29.5 24.024 29.5 24.0244 29.5C24.0249 29.5 24.0253 29.5 24.0257 29.5C24.0261 29.5 24.0265 29.5 24.0269 29.5C24.0274 29.5 24.0278 29.5 24.0282 29.5C24.0286 29.5 24.029 29.5 24.0294 29.5C24.0299 29.5 24.0303 29.5 24.0307 29.5C24.0311 29.5 24.0315 29.5 24.0319 29.5C24.0323 29.5 24.0328 29.5 24.0332 29.5C24.0336 29.5 24.034 29.5 24.0344 29.5C24.0349 29.5 24.0353 29.5 24.0357 29.5C24.0361 29.5 24.0365 29.5 24.0369 29.5C24.0374 29.5 24.0378 29.5 24.0382 29.5C24.0386 29.5 24.039 29.5 24.0394 29.5C24.0399 29.5 24.0403 29.5 24.0407 29.5C24.0411 29.5 24.0415 29.5 24.0419 29.5C24.0424 29.5 24.0428 29.5 24.0432 29.5C24.0436 29.5 24.044 29.5 24.0444 29.5C24.0449 29.5 24.0453 29.5 24.0457 29.5C24.0461 29.5 24.0465 29.5 24.0469 29.5C24.0474 29.5 24.0478 29.5 24.0482 29.5C24.0486 29.5 24.049 29.5 24.0494 29.5C24.0499 29.5 24.0503 29.5 24.0507 29.5C24.0511 29.5 24.0515 29.5 24.0519 29.5C24.0523 29.5 24.0528 29.5 24.0532 29.5C24.0536 29.5 24.054 29.5 24.0544 29.5C24.0548 29.5 24.0552 29.5 24.0557 29.5C24.0561 29.5 24.0565 29.5 24.0569 29.5C24.0573 29.5 24.0577 29.5 24.0581 29.5C24.0586 29.5 24.059 29.5 24.0594 29.5C24.0598 29.5 24.0602 29.5 24.0606 29.5C24.061 29.5 24.0614 29.5 24.0618 29.5C24.0623 29.5 24.0627 29.5 24.0631 29.5C24.0635 29.5 24.0639 29.5 24.0643 29.5C24.0647 29.5 24.0651 29.5 24.0655 29.5C24.0659 29.5 24.0663 29.5 24.0668 29.5C24.0672 29.5 24.0676 29.5 24.068 29.5C24.0684 29.5 24.0688 29.5 24.0692 29.5C24.0696 29.5 24.07 29.5 24.0704 29.5C24.0708 29.5 24.0712 29.5 24.0716 29.5C24.072 29.5 24.0724 29.5 24.0728 29.5C24.0732 29.5 24.0736 29.5 24.074 29.5C24.0744 29.5 24.0748 29.5 24.0752 29.5C24.0756 29.5 24.076 29.5 24.0764 29.5C24.0768 29.5 24.0772 29.5 24.0776 29.5C24.078 29.5 24.0784 29.5 24.0788 29.5C24.0792 29.5 24.0796 29.5 24.08 29.5C24.0804 29.5 24.0808 29.5 24.0812 29.5C24.0816 29.5 24.082 29.5 24.0824 29.5C24.0828 29.5 24.0832 29.5 24.0836 29.5C24.084 29.5 24.0844 29.5 24.0847 29.5C24.0851 29.5 24.0855 29.5 24.0859 29.5C24.0863 29.5 24.0867 29.5 24.0871 29.5C24.0875 29.5 24.0878 29.5 24.0882 29.5C24.0886 29.5 24.089 29.5 24.0894 29.5C24.0898 29.5 24.0902 29.5 24.0905 29.5C24.0909 29.5 24.0913 29.5 24.0917 29.5C24.0921 29.5 24.0924 29.5 24.0928 29.5C24.0932 29.5 24.0936 29.5 24.094 29.5C24.0943 29.5 24.0947 29.5 24.0951 29.5C24.0955 29.5 24.0958 29.5 24.0962 29.5C24.0966 29.5 24.097 29.5 24.0973 29.5C24.0977 29.5 24.0981 29.5 24.0985 29.5C24.0988 29.5 24.0992 29.5 24.0996 29.5C24.0999 29.5 24.1003 29.5 24.1007 29.5C24.101 29.5 24.1014 29.5 24.1018 29.5C24.1021 29.5 24.1025 29.5 24.1029 29.5C24.1032 29.5 24.1036 29.5 24.1039 29.5C24.1043 29.5 24.1047 29.5 24.105 29.5C24.1054 29.5 24.1057 29.5 24.1061 29.5C24.1065 29.5 24.1068 29.5 24.1072 29.5C24.1075 29.5 24.1079 29.5 24.1082 29.5C24.1086 29.5 24.1089 29.5 24.1093 29.5C24.1096 29.5 24.11 29.5 24.1103 29.5C24.1107 29.5 24.111 29.5 24.1114 29.5C24.1117 29.5 24.1121 29.5 24.1124 29.5C24.1127 29.5 24.1131 29.5 24.1134 29.5C24.1138 29.5 24.1141 29.5 24.1144 29.5C24.1148 29.5 24.1151 29.5 24.1154 29.5C24.1158 29.5 24.1161 29.5 24.1165 29.5C24.1168 29.5 24.1171 29.5 24.1174 29.5C24.1178 29.5 24.1181 29.5 24.1184 29.5C24.1188 29.5 24.1191 29.5 24.1194 29.5C24.1197 29.5 24.1201 29.5 24.1204 29.5C24.1207 29.5 24.121 29.5 24.1214 29.5C24.1217 29.5 24.122 29.5 24.1223 29.5C24.1226 29.5 24.1229 29.5 24.1233 29.5C24.1236 29.5 24.1239 29.5 24.1242 29.5C24.1245 29.5 24.1248 29.5 24.1251 29.5C24.1254 29.5 24.1257 29.5 24.1261 29.5C24.1264 29.5 24.1267 29.5 24.127 29.5C24.1273 29.5 24.1276 29.5 24.1279 29.5C24.1282 29.5 24.1285 29.5 24.1288 29.5C24.1291 29.5 24.1294 29.5 24.1297 29.5C24.13 29.5 24.1302 29.5 24.1305 29.5C24.1308 29.5 24.1311 29.5 24.1314 29.5C24.1317 29.5 24.132 29.5 24.1323 29.5C24.1326 29.5 24.1328 29.5 24.1331 29.5C24.1334 29.5 24.1337 29.5 24.134 29.5C24.1342 29.5 24.1345 29.5 24.1348 29.5C24.1351 29.5 24.1353 29.5 24.1356 29.5C24.1359 29.5 24.1362 29.5 24.1364 29.5C24.1367 29.5 24.137 29.5 24.1372 29.5C24.1375 29.5 24.1378 29.5 24.138 29.5C24.1383 29.5 24.1385 29.5 24.1388 29.5C24.1391 29.5 24.1393 29.5 24.1396 29.5C24.1398 29.5 24.1401 29.5 24.1403 29.5C24.1406 29.5 24.1408 29.5 24.1411 29.5C24.1413 29.5 24.1416 29.5 24.1418 29.5C24.1421 29.5 24.1423 29.5 24.1425 29.5C24.1428 29.5 24.143 29.5 24.1433 29.5C24.1435 29.5 24.1437 29.5 24.144 29.5C24.1442 29.5 24.1444 29.5 24.1447 29.5C24.1449 29.5 24.1451 29.5 24.1453 29.5C24.1456 29.5 24.1458 29.5 24.146 29.5C24.1462 29.5 24.1465 29.5 24.1467 29.5C24.1469 29.5 24.1471 29.5 24.1473 29.5C24.1475 29.5 24.1477 29.5 24.148 29.5C24.1482 29.5 24.1484 29.5 24.1486 29.5C24.1488 29.5 24.149 29.5 24.1492 29.5C24.1494 29.5 24.1496 29.5 24.1498 29.5C24.15 29.5 24.1502 29.5 24.1504 29.5C24.1506 29.5 24.1508 29.5 24.151 29.5C24.1512 29.5 24.1513 29.5 24.1515 29.5C24.1517 29.5 24.1519 29.5 24.1521 29.5C24.1523 29.5 24.1524 29.5 24.1526 29.5C24.1528 29.5 24.153 29.5 24.1531 29.5C24.1533 29.5 24.1535 29.5 24.1537 29.5C24.1538 29.5 24.154 29.5 24.1542 29.5C24.1543 29.5 24.1545 29.5 24.1546 29.5C24.1548 29.5 24.155 29.5 24.1551 29.5C24.1553 29.5 24.1554 29.5 24.1556 29.5C24.1557 29.5 24.1559 29.5 24.156 29.5C24.1562 29.5 24.1563 29.5 24.1565 29.5C24.1566 29.5 24.1567 29.5 24.1569 29.5C24.157 29.5 24.1572 29.5 24.1573 29.5C24.1574 29.5 24.1575 29.5 24.1577 29.5C24.1578 29.5 24.1579 29.5 24.1581 29.5C24.1582 29.5 24.1583 29.5 24.1584 29.5C24.1585 29.5 24.1587 29.5 24.1588 29.5C24.1589 29.5 24.159 29.5 24.1591 29.5C24.1592 29.5 24.1593 29.5 24.1594 29.5C24.1595 29.5 24.1596 29.5 24.1597 29.5C24.1598 29.5 24.1599 29.5 24.16 29.5C24.1601 29.5 24.1602 29.5 24.1603 29.5C24.1604 29.5 24.1605 29.5 24.1606 29.5C24.1606 29.5 24.1607 29.5 24.1608 29.5C24.1609 29.5 24.161 29.5 24.161 29.5C24.1611 29.5 24.1612 29.5 24.1613 29.5C24.1613 29.5 24.1614 29.5 24.1615 29.5C24.1615 29.5 24.1616 29.5 24.1616 29.5C24.1617 29.5 24.1618 29.5 24.1618 29.5C24.1619 29.5 24.1619 29.5 24.162 29.5C24.162 29.5 24.1621 29.5 24.1621 29.5C24.1622 29.5 24.1622 29.5 24.1622 29.5C24.1623 29.5 24.1623 29.5 24.1623 29.5C24.1624 29.5 24.1624 29.5 24.1624 29.5C24.1625 29.5 24.1625 29.5 24.1625 29.5C24.1625 29.5 24.1625 29.5 24.1626 29.5C24.1626 29.5 24.1626 29.5 24.1626 29.5C24.1626 29.5 24.1626 29.5 24.1626 29.5C24.1626 29.5 24.1626 29 24.1626 28.5C24.1626 28.5 24.1626 28.5 24.1626 28.5C24.1626 28.5 24.1626 28.5 24.1626 28.5C24.1626 28.5 24.1626 28.5 24.1626 28.5C24.1625 28.5 24.1625 28.5 24.1625 28.5C24.1625 28.5 24.1624 28.5 24.1624 28.5C24.1624 28.5 24.1624 28.5 24.1623 28.5C24.1623 28.5 24.1623 28.5 24.1622 28.5C24.1622 28.5 24.1621 28.5 24.1621 28.5C24.162 28.5 24.162 28.5 24.1619 28.5C24.1619 28.5 24.1618 28.5 24.1618 28.5C24.1617 28.5 24.1616 28.5 24.1616 28.5C24.1615 28.5 24.1615 28.5 24.1614 28.5C24.1613 28.5 24.1612 28.5 24.1612 28.5C24.1611 28.5 24.161 28.5 24.1609 28.5C24.1608 28.5 24.1608 28.5 24.1607 28.5C24.1606 28.5 24.1605 28.5 24.1604 28.5C24.1603 28.5 24.1602 28.5 24.1601 28.5C24.16 28.5 24.1599 28.5 24.1598 28.5C24.1597 28.5 24.1596 28.5 24.1595 28.5C24.1593 28.5 24.1592 28.5 24.1591 28.5C24.159 28.5 24.1589 28.5 24.1587 28.5C24.1586 28.5 24.1585 28.5 24.1583 28.5C24.1582 28.5 24.1581 28.5 24.1579 28.5C24.1578 28.5 24.1577 28.5 24.1575 28.5C24.1574 28.5 24.1572 28.5 24.1571 28.5C24.1569 28.5 24.1568 28.5 24.1566 28.5C24.1564 28.5 24.1563 28.5 24.1561 28.5C24.1559 28.5 24.1558 28.5 24.1556 28.5C24.1554 28.5 24.1553 28.5 24.1551 28.5C24.1549 28.5 24.1547 28.5 24.1545 28.5C24.1543 28.5 24.1542 28.5 24.154 28.5C24.1538 28.5 24.1536 28.5 24.1534 28.5C24.1532 28.5 24.153 28.5 24.1528 28.5C24.1526 28.5 24.1524 28.5 24.1521 28.5C24.1519 28.5 24.1517 28.5 24.1515 28.5C24.1513 28.5 24.151 28.5 24.1508 28.5C24.1506 28.5 24.1504 28.5 24.1501 28.5C24.1499 28.5 24.1497 28.5 24.1494 28.5C24.1492 28.5 24.1489 28.5 24.1487 28.5C24.1484 28.5 24.1482 28.5 24.1479 28.5C24.1477 28.5 24.1474 28.5 24.1472 28.5C24.1469 28.5 24.1466 28.5 24.1464 28.5C24.1461 28.5 24.1458 28.5 24.1455 28.5C24.1453 28.5 24.145 28.5 24.1447 28.5C24.1444 28.5 24.1441 28.5 24.1438 28.5C24.1435 28.5 24.1432 28.5 24.143 28.5C24.1427 28.5 24.1423 28.5 24.142 28.5C24.1417 28.5 24.1414 28.5 24.1411 28.5C24.1408 28.5 24.1405 28.5 24.1402 28.5C24.1398 28.5 24.1395 28.5 24.1392 28.5C24.1389 28.5 24.1385 28.5 24.1382 28.5C24.1379 28.5 24.1375 28.5 24.1372 28.5C24.1368 28.5 24.1365 28.5 24.1361 28.5C24.1358 28.5 24.1354 28.5 24.1351 28.5C24.1347 28.5 24.1344 28.5 24.134 28.5C24.1336 28.5 24.1332 28.5 24.1329 28.5C24.1325 28.5 24.1321 28.5 24.1317 28.5C24.1314 28.5 24.131 28.5 24.1306 28.5C24.1302 28.5 24.1298 28.5 24.1294 28.5C24.129 28.5 24.1286 28.5 24.1282 28.5C24.1278 28.5 24.1274 28.5 24.127 28.5C24.1266 28.5 24.1261 28.5 24.1257 28.5C24.1253 28.5 24.1249 28.5 24.1245 28.5C24.124 28.5 24.1236 28.5 24.1232 28.5C24.1227 28.5 24.1223 28.5 24.1218 28.5C24.1214 28.5 24.1209 28.5 24.1205 28.5C24.12 28.5 24.1196 28.5 24.1191 28.5C24.1186 28.5 24.1182 28.5 24.1177 28.5C24.1172 28.5 24.1168 28.5 24.1163 28.5C24.1158 28.5 24.1153 28.5 24.1148 28.5C24.1144 28.5 24.1139 28.5 24.1134 28.5C24.1129 28.5 24.1124 28.5 24.1119 28.5C24.1114 28.5 24.1109 28.5 24.1104 28.5C24.1099 28.5 24.1093 28.5 24.1088 28.5C24.1083 28.5 24.1078 28.5 24.1073 28.5C24.1067 28.5 24.1062 28.5 24.1057 28.5C24.1051 28.5 24.1046 28.5 24.104 28.5C24.1035 28.5 24.1029 28.5 24.1024 28.5C24.1018 28.5 24.1013 28.5 24.1007 28.5C24.1002 28.5 24.0996 28.5 24.099 28.5C24.0984 28.5 24.0979 28.5 24.0973 28.5C24.0967 28.5 24.0961 28.5 24.0955 28.5C24.095 28.5 24.0944 28.5 24.0938 28.5C24.0932 28.5 24.0926 28.5 24.092 28.5C24.0914 28.5 24.0908 28.5 24.0901 28.5C24.0895 28.5 24.0889 28.5 24.0883 28.5C24.0877 28.5 24.087 28.5 24.0864 28.5C24.0858 28.5 24.0851 28.5 24.0845 28.5C24.0839 28.5 24.0832 28.5 24.0826 28.5C24.0819 28.5 24.0813 28.5 24.0806 28.5C24.0799 28.5 24.0793 28.5 24.0786 28.5C24.0779 28.5 24.0773 28.5 24.0766 28.5C24.0759 28.5 24.0752 28.5 24.0745 28.5C24.0739 28.5 24.0732 28.5 24.0725 28.5C24.0718 28.5 24.0711 28.5 24.0704 28.5C24.0697 28.5 24.069 28.5 24.0683 28.5C24.0675 28.5 24.0668 28.5 24.0661 28.5C24.0654 28.5 24.0646 28.5 24.0639 28.5C24.0632 28.5 24.0624 28.5 24.0617 28.5C24.061 28.5 24.0602 28.5 24.0595 28.5C24.0587 28.5 24.058 28.5 24.0572 28.5C24.0564 28.5 24.0557 28.5 24.0549 28.5C24.0541 28.5 24.0534 28.5 24.0526 28.5C24.0518 28.5 24.051 28.5 24.0502 28.5C24.0494 28.5 24.0487 28.5 24.0479 28.5C24.0471 28.5 24.0463 28.5 24.0454 28.5C24.0446 28.5 24.0438 28.5 24.043 28.5C24.0422 28.5 24.0414 28.5 24.0405 28.5C24.0397 28.5 24.0389 28.5 24.0381 28.5C24.0372 28.5 24.0364 28.5 24.0355 28.5C24.0347 28.5 24.0338 28.5 24.033 28.5C24.0321 28.5 24.0313 28.5 24.0304 28.5C24.0295 28.5 24.0287 28.5 24.0278 28.5C24.0269 28.5 24.026 28.5 24.0251 28.5C24.0242 28.5 24.0234 28.5 24.0225 28.5C24.0216 28.5 24.0207 28.5 24.0198 28.5C24.0189 28.5 24.0179 28.5 24.017 28.5C24.0161 28.5 24.0152 28.5 24.0143 28.5C24.0133 28.5 24.0124 28.5 24.0115 28.5C24.0105 28.5 24.0096 28.5 24.0087 28.5C24.0077 28.5 24.0068 28.5 24.0058 28.5C24.0048 28.5 24.0039 28.5 24.0029 28.5C24.0019 28.5 24.001 28.5 24 28.5V29.5C24.001 29.5 24.0019 29.5 24.0029 29.5C24.0039 29.5 24.0048 29.5 24.0058 29.5C24.0068 29.5 24.0077 29.5 24.0087 29.5C24.0096 29.5 24.0105 29.5 24.0115 29.5C24.0124 29.5 24.0133 29.5 24.0143 29.5C24.0152 29.5 24.0161 29.5 24.017 29.5C24.0179 29.5 24.0189 29.5 24.0198 29.5C24.0207 29.5 24.0216 29.5 24.0225 29.5C24.0234 29.5 24.0242 29.5 24.0251 29.5C24.026 29.5 24.0269 29.5 24.0278 29.5C24.0287 29.5 24.0295 29.5 24.0304 29.5C24.0313 29.5 24.0321 29.5 24.033 29.5C24.0338 29.5 24.0347 29.5 24.0355 29.5C24.0364 29.5 24.0372 29.5 24.0381 29.5C24.0389 29.5 24.0397 29.5 24.0405 29.5C24.0414 29.5 24.0422 29.5 24.043 29.5C24.0438 29.5 24.0446 29.5 24.0454 29.5C24.0463 29.5 24.0471 29.5 24.0479 29.5C24.0487 29.5 24.0494 29.5 24.0502 29.5C24.051 29.5 24.0518 29.5 24.0526 29.5C24.0534 29.5 24.0541 29.5 24.0549 29.5C24.0557 29.5 24.0564 29.5 24.0572 29.5C24.058 29.5 24.0587 29.5 24.0595 29.5C24.0602 29.5 24.061 29.5 24.0617 29.5C24.0624 29.5 24.0632 29.5 24.0639 29.5C24.0646 29.5 24.0654 29.5 24.0661 29.5C24.0668 29.5 24.0675 29.5 24.0683 29.5C24.069 29.5 24.0697 29.5 24.0704 29.5C24.0711 29.5 24.0718 29.5 24.0725 29.5C24.0732 29.5 24.0739 29.5 24.0745 29.5C24.0752 29.5 24.0759 29.5 24.0766 29.5C24.0773 29.5 24.0779 29.5 24.0786 29.5C24.0793 29.5 24.0799 29.5 24.0806 29.5C24.0813 29.5 24.0819 29.5 24.0826 29.5C24.0832 29.5 24.0839 29.5 24.0845 29.5C24.0851 29.5 24.0858 29.5 24.0864 29.5C24.087 29.5 24.0877 29.5 24.0883 29.5C24.0889 29.5 24.0895 29.5 24.0901 29.5C24.0908 29.5 24.0914 29.5 24.092 29.5C24.0926 29.5 24.0932 29.5 24.0938 29.5C24.0944 29.5 24.095 29.5 24.0955 29.5C24.0961 29.5 24.0967 29.5 24.0973 29.5C24.0979 29.5 24.0984 29.5 24.099 29.5C24.0996 29.5 24.1002 29.5 24.1007 29.5C24.1013 29.5 24.1018 29.5 24.1024 29.5C24.1029 29.5 24.1035 29.5 24.104 29.5C24.1046 29.5 24.1051 29.5 24.1057 29.5C24.1062 29.5 24.1067 29.5 24.1073 29.5C24.1078 29.5 24.1083 29.5 24.1088 29.5C24.1093 29.5 24.1099 29.5 24.1104 29.5C24.1109 29.5 24.1114 29.5 24.1119 29.5C24.1124 29.5 24.1129 29.5 24.1134 29.5C24.1139 29.5 24.1144 29.5 24.1148 29.5C24.1153 29.5 24.1158 29.5 24.1163 29.5C24.1168 29.5 24.1172 29.5 24.1177 29.5C24.1182 29.5 24.1186 29.5 24.1191 29.5C24.1196 29.5 24.12 29.5 24.1205 29.5C24.1209 29.5 24.1214 29.5 24.1218 29.5C24.1223 29.5 24.1227 29.5 24.1232 29.5C24.1236 29.5 24.124 29.5 24.1245 29.5C24.1249 29.5 24.1253 29.5 24.1257 29.5C24.1261 29.5 24.1266 29.5 24.127 29.5C24.1274 29.5 24.1278 29.5 24.1282 29.5C24.1286 29.5 24.129 29.5 24.1294 29.5C24.1298 29.5 24.1302 29.5 24.1306 29.5C24.131 29.5 24.1314 29.5 24.1317 29.5C24.1321 29.5 24.1325 29.5 24.1329 29.5C24.1332 29.5 24.1336 29.5 24.134 29.5C24.1344 29.5 24.1347 29.5 24.1351 29.5C24.1354 29.5 24.1358 29.5 24.1361 29.5C24.1365 29.5 24.1368 29.5 24.1372 29.5C24.1375 29.5 24.1379 29.5 24.1382 29.5C24.1385 29.5 24.1389 29.5 24.1392 29.5C24.1395 29.5 24.1398 29.5 24.1402 29.5C24.1405 29.5 24.1408 29.5 24.1411 29.5C24.1414 29.5 24.1417 29.5 24.142 29.5C24.1423 29.5 24.1427 29.5 24.143 29.5C24.1432 29.5 24.1435 29.5 24.1438 29.5C24.1441 29.5 24.1444 29.5 24.1447 29.5C24.145 29.5 24.1453 29.5 24.1455 29.5C24.1458 29.5 24.1461 29.5 24.1464 29.5C24.1466 29.5 24.1469 29.5 24.1472 29.5C24.1474 29.5 24.1477 29.5 24.1479 29.5C24.1482 29.5 24.1484 29.5 24.1487 29.5C24.1489 29.5 24.1492 29.5 24.1494 29.5C24.1497 29.5 24.1499 29.5 24.1501 29.5C24.1504 29.5 24.1506 29.5 24.1508 29.5C24.151 29.5 24.1513 29.5 24.1515 29.5C24.1517 29.5 24.1519 29.5 24.1521 29.5C24.1524 29.5 24.1526 29.5 24.1528 29.5C24.153 29.5 24.1532 29.5 24.1534 29.5C24.1536 29.5 24.1538 29.5 24.154 29.5C24.1542 29.5 24.1543 29.5 24.1545 29.5C24.1547 29.5 24.1549 29.5 24.1551 29.5C24.1553 29.5 24.1554 29.5 24.1556 29.5C24.1558 29.5 24.1559 29.5 24.1561 29.5C24.1563 29.5 24.1564 29.5 24.1566 29.5C24.1568 29.5 24.1569 29.5 24.1571 29.5C24.1572 29.5 24.1574 29.5 24.1575 29.5C24.1577 29.5 24.1578 29.5 24.1579 29.5C24.1581 29.5 24.1582 29.5 24.1583 29.5C24.1585 29.5 24.1586 29.5 24.1587 29.5C24.1589 29.5 24.159 29.5 24.1591 29.5C24.1592 29.5 24.1593 29.5 24.1595 29.5C24.1596 29.5 24.1597 29.5 24.1598 29.5C24.1599 29.5 24.16 29.5 24.1601 29.5C24.1602 29.5 24.1603 29.5 24.1604 29.5C24.1605 29.5 24.1606 29.5 24.1607 29.5C24.1608 29.5 24.1608 29.5 24.1609 29.5C24.161 29.5 24.1611 29.5 24.1612 29.5C24.1612 29.5 24.1613 29.5 24.1614 29.5C24.1615 29.5 24.1615 29.5 24.1616 29.5C24.1616 29.5 24.1617 29.5 24.1618 29.5C24.1618 29.5 24.1619 29.5 24.1619 29.5C24.162 29.5 24.162 29.5 24.1621 29.5C24.1621 29.5 24.1622 29.5 24.1622 29.5C24.1623 29.5 24.1623 29.5 24.1623 29.5C24.1624 29.5 24.1624 29.5 24.1624 29.5C24.1624 29.5 24.1625 29.5 24.1625 29.5C24.1625 29.5 24.1625 29.5 24.1626 29.5C24.1626 29.5 24.1626 29.5 24.1626 29.5C24.1626 29.5 24.1626 29.5 24.1626 29.5C24.1626 29.5 24.1626 29.5 24.1626 29.5C24.1626 29 24.1626 28.5 24.1626 28.5C24.1626 28.5 24.1626 28.5 24.1626 28.5C24.1626 28.5 24.1626 28.5 24.1626 28.5C24.1625 28.5 24.1625 28.5 24.1625 28.5C24.1625 28.5 24.1625 28.5 24.1624 28.5C24.1624 28.5 24.1624 28.5 24.1623 28.5C24.1623 28.5 24.1623 28.5 24.1622 28.5C24.1622 28.5 24.1622 28.5 24.1621 28.5C24.1621 28.5 24.162 28.5 24.162 28.5C24.1619 28.5 24.1619 28.5 24.1618 28.5C24.1618 28.5 24.1617 28.5 24.1616 28.5C24.1616 28.5 24.1615 28.5 24.1615 28.5C24.1614 28.5 24.1613 28.5 24.1613 28.5C24.1612 28.5 24.1611 28.5 24.161 28.5C24.161 28.5 24.1609 28.5 24.1608 28.5C24.1607 28.5 24.1606 28.5 24.1606 28.5C24.1605 28.5 24.1604 28.5 24.1603 28.5C24.1602 28.5 24.1601 28.5 24.16 28.5C24.1599 28.5 24.1598 28.5 24.1597 28.5C24.1596 28.5 24.1595 28.5 24.1594 28.5C24.1593 28.5 24.1592 28.5 24.1591 28.5C24.159 28.5 24.1589 28.5 24.1588 28.5C24.1587 28.5 24.1585 28.5 24.1584 28.5C24.1583 28.5 24.1582 28.5 24.1581 28.5C24.1579 28.5 24.1578 28.5 24.1577 28.5C24.1575 28.5 24.1574 28.5 24.1573 28.5C24.1572 28.5 24.157 28.5 24.1569 28.5C24.1567 28.5 24.1566 28.5 24.1565 28.5C24.1563 28.5 24.1562 28.5 24.156 28.5C24.1559 28.5 24.1557 28.5 24.1556 28.5C24.1554 28.5 24.1553 28.5 24.1551 28.5C24.155 28.5 24.1548 28.5 24.1546 28.5C24.1545 28.5 24.1543 28.5 24.1542 28.5C24.154 28.5 24.1538 28.5 24.1537 28.5C24.1535 28.5 24.1533 28.5 24.1531 28.5C24.153 28.5 24.1528 28.5 24.1526 28.5C24.1524 28.5 24.1523 28.5 24.1521 28.5C24.1519 28.5 24.1517 28.5 24.1515 28.5C24.1513 28.5 24.1512 28.5 24.151 28.5C24.1508 28.5 24.1506 28.5 24.1504 28.5C24.1502 28.5 24.15 28.5 24.1498 28.5C24.1496 28.5 24.1494 28.5 24.1492 28.5C24.149 28.5 24.1488 28.5 24.1486 28.5C24.1484 28.5 24.1482 28.5 24.148 28.5C24.1477 28.5 24.1475 28.5 24.1473 28.5C24.1471 28.5 24.1469 28.5 24.1467 28.5C24.1465 28.5 24.1462 28.5 24.146 28.5C24.1458 28.5 24.1456 28.5 24.1453 28.5C24.1451 28.5 24.1449 28.5 24.1447 28.5C24.1444 28.5 24.1442 28.5 24.144 28.5C24.1437 28.5 24.1435 28.5 24.1433 28.5C24.143 28.5 24.1428 28.5 24.1425 28.5C24.1423 28.5 24.1421 28.5 24.1418 28.5C24.1416 28.5 24.1413 28.5 24.1411 28.5C24.1408 28.5 24.1406 28.5 24.1403 28.5C24.1401 28.5 24.1398 28.5 24.1396 28.5C24.1393 28.5 24.1391 28.5 24.1388 28.5C24.1385 28.5 24.1383 28.5 24.138 28.5C24.1378 28.5 24.1375 28.5 24.1372 28.5C24.137 28.5 24.1367 28.5 24.1364 28.5C24.1362 28.5 24.1359 28.5 24.1356 28.5C24.1353 28.5 24.1351 28.5 24.1348 28.5C24.1345 28.5 24.1342 28.5 24.134 28.5C24.1337 28.5 24.1334 28.5 24.1331 28.5C24.1328 28.5 24.1326 28.5 24.1323 28.5C24.132 28.5 24.1317 28.5 24.1314 28.5C24.1311 28.5 24.1308 28.5 24.1305 28.5C24.1302 28.5 24.13 28.5 24.1297 28.5C24.1294 28.5 24.1291 28.5 24.1288 28.5C24.1285 28.5 24.1282 28.5 24.1279 28.5C24.1276 28.5 24.1273 28.5 24.127 28.5C24.1267 28.5 24.1264 28.5 24.1261 28.5C24.1257 28.5 24.1254 28.5 24.1251 28.5C24.1248 28.5 24.1245 28.5 24.1242 28.5C24.1239 28.5 24.1236 28.5 24.1233 28.5C24.1229 28.5 24.1226 28.5 24.1223 28.5C24.122 28.5 24.1217 28.5 24.1214 28.5C24.121 28.5 24.1207 28.5 24.1204 28.5C24.1201 28.5 24.1197 28.5 24.1194 28.5C24.1191 28.5 24.1188 28.5 24.1184 28.5C24.1181 28.5 24.1178 28.5 24.1174 28.5C24.1171 28.5 24.1168 28.5 24.1165 28.5C24.1161 28.5 24.1158 28.5 24.1154 28.5C24.1151 28.5 24.1148 28.5 24.1144 28.5C24.1141 28.5 24.1138 28.5 24.1134 28.5C24.1131 28.5 24.1127 28.5 24.1124 28.5C24.1121 28.5 24.1117 28.5 24.1114 28.5C24.111 28.5 24.1107 28.5 24.1103 28.5C24.11 28.5 24.1096 28.5 24.1093 28.5C24.1089 28.5 24.1086 28.5 24.1082 28.5C24.1079 28.5 24.1075 28.5 24.1072 28.5C24.1068 28.5 24.1065 28.5 24.1061 28.5C24.1057 28.5 24.1054 28.5 24.105 28.5C24.1047 28.5 24.1043 28.5 24.1039 28.5C24.1036 28.5 24.1032 28.5 24.1029 28.5C24.1025 28.5 24.1021 28.5 24.1018 28.5C24.1014 28.5 24.101 28.5 24.1007 28.5C24.1003 28.5 24.0999 28.5 24.0996 28.5C24.0992 28.5 24.0988 28.5 24.0985 28.5C24.0981 28.5 24.0977 28.5 24.0973 28.5C24.097 28.5 24.0966 28.5 24.0962 28.5C24.0958 28.5 24.0955 28.5 24.0951 28.5C24.0947 28.5 24.0943 28.5 24.094 28.5C24.0936 28.5 24.0932 28.5 24.0928 28.5C24.0924 28.5 24.0921 28.5 24.0917 28.5C24.0913 28.5 24.0909 28.5 24.0905 28.5C24.0902 28.5 24.0898 28.5 24.0894 28.5C24.089 28.5 24.0886 28.5 24.0882 28.5C24.0878 28.5 24.0875 28.5 24.0871 28.5C24.0867 28.5 24.0863 28.5 24.0859 28.5C24.0855 28.5 24.0851 28.5 24.0847 28.5C24.0844 28.5 24.084 28.5 24.0836 28.5C24.0832 28.5 24.0828 28.5 24.0824 28.5C24.082 28.5 24.0816 28.5 24.0812 28.5C24.0808 28.5 24.0804 28.5 24.08 28.5C24.0796 28.5 24.0792 28.5 24.0788 28.5C24.0784 28.5 24.078 28.5 24.0776 28.5C24.0772 28.5 24.0768 28.5 24.0764 28.5C24.076 28.5 24.0756 28.5 24.0752 28.5C24.0748 28.5 24.0744 28.5 24.074 28.5C24.0736 28.5 24.0732 28.5 24.0728 28.5C24.0724 28.5 24.072 28.5 24.0716 28.5C24.0712 28.5 24.0708 28.5 24.0704 28.5C24.07 28.5 24.0696 28.5 24.0692 28.5C24.0688 28.5 24.0684 28.5 24.068 28.5C24.0676 28.5 24.0672 28.5 24.0668 28.5C24.0663 28.5 24.0659 28.5 24.0655 28.5C24.0651 28.5 24.0647 28.5 24.0643 28.5C24.0639 28.5 24.0635 28.5 24.0631 28.5C24.0627 28.5 24.0623 28.5 24.0618 28.5C24.0614 28.5 24.061 28.5 24.0606 28.5C24.0602 28.5 24.0598 28.5 24.0594 28.5C24.059 28.5 24.0586 28.5 24.0581 28.5C24.0577 28.5 24.0573 28.5 24.0569 28.5C24.0565 28.5 24.0561 28.5 24.0557 28.5C24.0552 28.5 24.0548 28.5 24.0544 28.5C24.054 28.5 24.0536 28.5 24.0532 28.5C24.0528 28.5 24.0523 28.5 24.0519 28.5C24.0515 28.5 24.0511 28.5 24.0507 28.5C24.0503 28.5 24.0499 28.5 24.0494 28.5C24.049 28.5 24.0486 28.5 24.0482 28.5C24.0478 28.5 24.0474 28.5 24.0469 28.5C24.0465 28.5 24.0461 28.5 24.0457 28.5C24.0453 28.5 24.0449 28.5 24.0444 28.5C24.044 28.5 24.0436 28.5 24.0432 28.5C24.0428 28.5 24.0424 28.5 24.0419 28.5C24.0415 28.5 24.0411 28.5 24.0407 28.5C24.0403 28.5 24.0399 28.5 24.0394 28.5C24.039 28.5 24.0386 28.5 24.0382 28.5C24.0378 28.5 24.0374 28.5 24.0369 28.5C24.0365 28.5 24.0361 28.5 24.0357 28.5C24.0353 28.5 24.0349 28.5 24.0344 28.5C24.034 28.5 24.0336 28.5 24.0332 28.5C24.0328 28.5 24.0323 28.5 24.0319 28.5C24.0315 28.5 24.0311 28.5 24.0307 28.5C24.0303 28.5 24.0299 28.5 24.0294 28.5C24.029 28.5 24.0286 28.5 24.0282 28.5C24.0278 28.5 24.0274 28.5 24.0269 28.5C24.0265 28.5 24.0261 28.5 24.0257 28.5C24.0253 28.5 24.0249 28.5 24.0244 28.5C24.024 28.5 24.0236 28.5 24.0232 28.5C24.0228 28.5 24.0224 28.5 24.022 28.5C24.0215 28.5 24.0211 28.5 24.0207 28.5C24.0203 28.5 24.0199 28.5 24.0195 28.5C24.0191 28.5 24.0187 28.5 24.0182 28.5C24.0178 28.5 24.0174 28.5 24.017 28.5C24.0166 28.5 24.0162 28.5 24.0158 28.5C24.0154 28.5 24.015 28.5 24.0145 28.5C24.0141 28.5 24.0137 28.5 24.0133 28.5C24.0129 28.5 24.0125 28.5 24.0121 28.5C24.0117 28.5 24.0113 28.5 24.0109 28.5C24.0105 28.5 24.01 28.5 24.0096 28.5C24.0092 28.5 24.0088 28.5 24.0084 28.5C24.008 28.5 24.0076 28.5 24.0072 28.5C24.0068 28.5 24.0064 28.5 24.006 28.5C24.0056 28.5 24.0052 28.5 24.0048 28.5C24.0044 28.5 24.004 28.5 24.0036 28.5C24.0032 28.5 24.0028 28.5 24.0024 28.5C24.002 28.5 24.0016 28.5 24.0012 28.5C24.0008 28.5 24.0004 28.5 24 28.5C23.9996 28.5 23.9992 28.5 23.9988 28.5C23.9984 28.5 23.998 28.5 23.9976 28.5C23.9972 28.5 23.9968 28.5 23.9964 28.5C23.996 28.5 23.9956 28.5 23.9952 28.5C23.9948 28.5 23.9944 28.5 23.994 28.5C23.9936 28.5 23.9933 28.5 23.9929 28.5C23.9925 28.5 23.9921 28.5 23.9917 28.5C23.9913 28.5 23.9909 28.5 23.9905 28.5C23.9901 28.5 23.9897 28.5 23.9894 28.5C23.989 28.5 23.9886 28.5 23.9882 28.5C23.9878 28.5 23.9874 28.5 23.9871 28.5C23.9867 28.5 23.9863 28.5 23.9859 28.5C23.9855 28.5 23.9851 28.5 23.9848 28.5C23.9844 28.5 23.984 28.5 23.9836 28.5C23.9832 28.5 23.9829 28.5 23.9825 28.5C23.9821 28.5 23.9817 28.5 23.9814 28.5C23.981 28.5 23.9806 28.5 23.9802 28.5C23.9799 28.5 23.9795 28.5 23.9791 28.5C23.9788 28.5 23.9784 28.5 23.978 28.5C23.9776 28.5 23.9773 28.5 23.9769 28.5C23.9765 28.5 23.9762 28.5 23.9758 28.5C23.9754 28.5 23.9751 28.5 23.9747 28.5C23.9744 28.5 23.974 28.5 23.9736 28.5C23.9733 28.5 23.9729 28.5 23.9725 28.5C23.9722 28.5 23.9718 28.5 23.9715 28.5C23.9711 28.5 23.9708 28.5 23.9704 28.5C23.9701 28.5 23.9697 28.5 23.9693 28.5C23.969 28.5 23.9686 28.5 23.9683 28.5C23.9679 28.5 23.9676 28.5 23.9672 28.5C23.9669 28.5 23.9665 28.5 23.9662 28.5C23.9659 28.5 23.9655 28.5 23.9652 28.5C23.9648 28.5 23.9645 28.5 23.9641 28.5C23.9638 28.5 23.9635 28.5 23.9631 28.5C23.9628 28.5 23.9624 28.5 23.9621 28.5C23.9618 28.5 23.9614 28.5 23.9611 28.5C23.9608 28.5 23.9604 28.5 23.9601 28.5C23.9598 28.5 23.9594 28.5 23.9591 28.5C23.9588 28.5 23.9584 28.5 23.9581 28.5C23.9578 28.5 23.9575 28.5 23.9571 28.5C23.9568 28.5 23.9565 28.5 23.9562 28.5C23.9559 28.5 23.9555 28.5 23.9552 28.5C23.9549 28.5 23.9546 28.5 23.9543 28.5C23.954 28.5 23.9536 28.5 23.9533 28.5C23.953 28.5 23.9527 28.5 23.9524 28.5C23.9521 28.5 23.9518 28.5 23.9515 28.5C23.9512 28.5 23.9509 28.5 23.9506 28.5C23.9502 28.5 23.9499 28.5 23.9496 28.5C23.9493 28.5 23.949 28.5 23.9487 28.5C23.9484 28.5 23.9481 28.5 23.9479 28.5C23.9476 28.5 23.9473 28.5 23.947 28.5C23.9467 28.5 23.9464 28.5 23.9461 28.5C23.9458 28.5 23.9455 28.5 23.9452 28.5C23.945 28.5 23.9447 28.5 23.9444 28.5C23.9441 28.5 23.9438 28.5 23.9435 28.5C23.9433 28.5 23.943 28.5 23.9427 28.5C23.9424 28.5 23.9422 28.5 23.9419 28.5C23.9416 28.5 23.9413 28.5 23.9411 28.5C23.9408 28.5 23.9405 28.5 23.9403 28.5C23.94 28.5 23.9397 28.5 23.9395 28.5C23.9392 28.5 23.9389 28.5 23.9387 28.5C23.9384 28.5 23.9382 28.5 23.9379 28.5C23.9377 28.5 23.9374 28.5 23.9371 28.5C23.9369 28.5 23.9366 28.5 23.9364 28.5C23.9361 28.5 23.9359 28.5 23.9357 28.5C23.9354 28.5 23.9352 28.5 23.9349 28.5C23.9347 28.5 23.9344 28.5 23.9342 28.5C23.934 28.5 23.9337 28.5 23.9335 28.5C23.9333 28.5 23.933 28.5 23.9328 28.5C23.9326 28.5 23.9323 28.5 23.9321 28.5C23.9319 28.5 23.9317 28.5 23.9314 28.5C23.9312 28.5 23.931 28.5 23.9308 28.5C23.9305 28.5 23.9303 28.5 23.9301 28.5C23.9299 28.5 23.9297 28.5 23.9295 28.5C23.9293 28.5 23.9291 28.5 23.9288 28.5C23.9286 28.5 23.9284 28.5 23.9282 28.5C23.928 28.5 23.9278 28.5 23.9276 28.5C23.9274 28.5 23.9272 28.5 23.927 28.5C23.9268 28.5 23.9266 28.5 23.9265 28.5C23.9263 28.5 23.9261 28.5 23.9259 28.5C23.9257 28.5 23.9255 28.5 23.9253 28.5C23.9251 28.5 23.925 28.5 23.9248 28.5C23.9246 28.5 23.9244 28.5 23.9243 28.5C23.9241 28.5 23.9239 28.5 23.9237 28.5C23.9236 28.5 23.9234 28.5 23.9232 28.5C23.9231 28.5 23.9229 28.5 23.9227 28.5C23.9226 28.5 23.9224 28.5 23.9223 28.5C23.9221 28.5 23.922 28.5 23.9218 28.5C23.9216 28.5 23.9215 28.5 23.9213 28.5C23.9212 28.5 23.9211 28.5 23.9209 28.5C23.9208 28.5 23.9206 28.5 23.9205 28.5C23.9203 28.5 23.9202 28.5 23.9201 28.5C23.9199 28.5 23.9198 28.5 23.9197 28.5C23.9195 28.5 23.9194 28.5 23.9193 28.5C23.9192 28.5 23.919 28.5 23.9189 28.5C23.9188 28.5 23.9187 28.5 23.9186 28.5C23.9185 28.5 23.9183 28.5 23.9182 28.5C23.9181 28.5 23.918 28.5 23.9179 28.5C23.9178 28.5 23.9177 28.5 23.9176 28.5C23.9175 28.5 23.9174 28.5 23.9173 28.5C23.9172 28.5 23.9171 28.5 23.917 28.5C23.9169 28.5 23.9168 28.5 23.9167 28.5C23.9167 28.5 23.9166 28.5 23.9165 28.5C23.9164 28.5 23.9163 28.5 23.9163 28.5C23.9162 28.5 23.9161 28.5 23.916 28.5C23.916 28.5 23.9159 28.5 23.9158 28.5C23.9158 28.5 23.9157 28.5 23.9156 28.5C23.9156 28.5 23.9155 28.5 23.9155 28.5C23.9154 28.5 23.9154 28.5 23.9153 28.5C23.9153 28.5 23.9152 28.5 23.9152 28.5C23.9151 28.5 23.9151 28.5 23.915 28.5C23.915 28.5 23.915 28.5 23.9149 28.5C23.9149 28.5 23.9149 28.5 23.9148 28.5C23.9148 28.5 23.9148 28.5 23.9148 28.5C23.9147 28.5 23.9147 28.5 23.9147 28.5C23.9147 28.5 23.9147 28.5 23.9146 28.5C23.9146 28.5 23.9146 28.5 23.9146 28.5C23.9146 28.5 23.9146 28.5 23.9146 28.5C23.9146 29 23.9146 29.5 23.9146 29.5C23.9146 29.5 23.9146 29.5 23.9146 29.5C23.9146 29.5 23.9146 29.5 23.9147 29.5C23.9147 29.5 23.9147 29.5 23.9147 29.5C23.9147 29.5 23.9148 29.5 23.9148 29.5C23.9148 29.5 23.9148 29.5 23.9149 29.5C23.9149 29.5 23.9149 29.5 23.915 29.5C23.915 29.5 23.9151 29.5 23.9151 29.5C23.9152 29.5 23.9152 29.5 23.9152 29.5C23.9153 29.5 23.9154 29.5 23.9154 29.5C23.9155 29.5 23.9155 29.5 23.9156 29.5C23.9156 29.5 23.9157 29.5 23.9158 29.5C23.9159 29.5 23.9159 29.5 23.916 29.5C23.9161 29.5 23.9161 29.5 23.9162 29.5C23.9163 29.5 23.9164 29.5 23.9165 29.5C23.9166 29.5 23.9167 29.5 23.9168 29.5C23.9168 29.5 23.9169 29.5 23.917 29.5C23.9171 29.5 23.9172 29.5 23.9173 29.5C23.9175 29.5 23.9176 29.5 23.9177 29.5C23.9178 29.5 23.9179 29.5 23.918 29.5C23.9181 29.5 23.9183 29.5 23.9184 29.5C23.9185 29.5 23.9186 29.5 23.9188 29.5C23.9189 29.5 23.919 29.5 23.9192 29.5C23.9193 29.5 23.9194 29.5 23.9196 29.5C23.9197 29.5 23.9199 29.5 23.92 29.5C23.9202 29.5 23.9203 29.5 23.9205 29.5C23.9206 29.5 23.9208 29.5 23.921 29.5C23.9211 29.5 23.9213 29.5 23.9215 29.5C23.9216 29.5 23.9218 29.5 23.922 29.5C23.9222 29.5 23.9223 29.5 23.9225 29.5C23.9227 29.5 23.9229 29.5 23.9231 29.5C23.9233 29.5 23.9235 29.5 23.9237 29.5C23.9239 29.5 23.9241 29.5 23.9243 29.5C23.9245 29.5 23.9247 29.5 23.9249 29.5C23.9251 29.5 23.9253 29.5 23.9255 29.5C23.9258 29.5 23.926 29.5 23.9262 29.5C23.9264 29.5 23.9267 29.5 23.9269 29.5C23.9271 29.5 23.9273 29.5 23.9276 29.5C23.9278 29.5 23.9281 29.5 23.9283 29.5C23.9286 29.5 23.9288 29.5 23.9291 29.5C23.9293 29.5 23.9296 29.5 23.9298 29.5C23.9301 29.5 23.9304 29.5 23.9306 29.5C23.9309 29.5 23.9312 29.5 23.9314 29.5C23.9317 29.5 23.932 29.5 23.9323 29.5C23.9325 29.5 23.9328 29.5 23.9331 29.5C23.9334 29.5 23.9337 29.5 23.934 29.5C23.9343 29.5 23.9346 29.5 23.9349 29.5C23.9352 29.5 23.9355 29.5 23.9358 29.5C23.9361 29.5 23.9364 29.5 23.9368 29.5C23.9371 29.5 23.9374 29.5 23.9377 29.5C23.9381 29.5 23.9384 29.5 23.9387 29.5C23.9391 29.5 23.9394 29.5 23.9397 29.5C23.9401 29.5 23.9404 29.5 23.9408 29.5C23.9411 29.5 23.9415 29.5 23.9418 29.5C23.9422 29.5 23.9425 29.5 23.9429 29.5C23.9433 29.5 23.9436 29.5 23.944 29.5C23.9444 29.5 23.9447 29.5 23.9451 29.5C23.9455 29.5 23.9459 29.5 23.9463 29.5C23.9467 29.5 23.9471 29.5 23.9475 29.5C23.9478 29.5 23.9482 29.5 23.9486 29.5C23.949 29.5 23.9495 29.5 23.9499 29.5C23.9503 29.5 23.9507 29.5 23.9511 29.5C23.9515 29.5 23.9519 29.5 23.9524 29.5C23.9528 29.5 23.9532 29.5 23.9537 29.5C23.9541 29.5 23.9545 29.5 23.955 29.5C23.9554 29.5 23.9559 29.5 23.9563 29.5C23.9568 29.5 23.9572 29.5 23.9577 29.5C23.9581 29.5 23.9586 29.5 23.9591 29.5C23.9595 29.5 23.96 29.5 23.9605 29.5C23.961 29.5 23.9614 29.5 23.9619 29.5C23.9624 29.5 23.9629 29.5 23.9634 29.5C23.9639 29.5 23.9644 29.5 23.9649 29.5C23.9654 29.5 23.9659 29.5 23.9664 29.5C23.9669 29.5 23.9674 29.5 23.9679 29.5C23.9684 29.5 23.969 29.5 23.9695 29.5C23.97 29.5 23.9705 29.5 23.9711 29.5C23.9716 29.5 23.9721 29.5 23.9727 29.5C23.9732 29.5 23.9738 29.5 23.9743 29.5C23.9749 29.5 23.9754 29.5 23.976 29.5C23.9765 29.5 23.9771 29.5 23.9777 29.5C23.9782 29.5 23.9788 29.5 23.9794 29.5C23.98 29.5 23.9805 29.5 23.9811 29.5C23.9817 29.5 23.9823 29.5 23.9829 29.5C23.9835 29.5 23.9841 29.5 23.9847 29.5C23.9853 29.5 23.9859 29.5 23.9865 29.5C23.9871 29.5 23.9877 29.5 23.9884 29.5C23.989 29.5 23.9896 29.5 23.9902 29.5C23.9909 29.5 23.9915 29.5 23.9921 29.5C23.9928 29.5 23.9934 29.5 23.9941 29.5C23.9947 29.5 23.9954 29.5 23.996 29.5C23.9967 29.5 23.9973 29.5 23.998 29.5C23.9987 29.5 23.9993 29.5 24 29.5V28.5ZM42 28.5C41.999 28.5 41.9981 28.5 41.9971 28.5C41.9961 28.5 41.9952 28.5 41.9942 28.5C41.9932 28.5 41.9923 28.5 41.9913 28.5C41.9904 28.5 41.9895 28.5 41.9885 28.5C41.9876 28.5 41.9867 28.5 41.9857 28.5C41.9848 28.5 41.9839 28.5 41.983 28.5C41.9821 28.5 41.9811 28.5 41.9802 28.5C41.9793 28.5 41.9784 28.5 41.9775 28.5C41.9766 28.5 41.9757 28.5 41.9749 28.5C41.974 28.5 41.9731 28.5 41.9722 28.5C41.9713 28.5 41.9705 28.5 41.9696 28.5C41.9687 28.5 41.9679 28.5 41.967 28.5C41.9662 28.5 41.9653 28.5 41.9645 28.5C41.9636 28.5 41.9628 28.5 41.9619 28.5C41.9611 28.5 41.9603 28.5 41.9595 28.5C41.9586 28.5 41.9578 28.5 41.957 28.5C41.9562 28.5 41.9554 28.5 41.9545 28.5C41.9537 28.5 41.9529 28.5 41.9521 28.5C41.9513 28.5 41.9506 28.5 41.9498 28.5C41.949 28.5 41.9482 28.5 41.9474 28.5C41.9466 28.5 41.9459 28.5 41.9451 28.5C41.9443 28.5 41.9436 28.5 41.9428 28.5C41.942 28.5 41.9413 28.5 41.9405 28.5C41.9398 28.5 41.939 28.5 41.9383 28.5C41.9375 28.5 41.9368 28.5 41.9361 28.5C41.9353 28.5 41.9346 28.5 41.9339 28.5C41.9332 28.5 41.9325 28.5 41.9317 28.5C41.931 28.5 41.9303 28.5 41.9296 28.5C41.9289 28.5 41.9282 28.5 41.9275 28.5C41.9268 28.5 41.9261 28.5 41.9255 28.5C41.9248 28.5 41.9241 28.5 41.9234 28.5C41.9227 28.5 41.9221 28.5 41.9214 28.5C41.9207 28.5 41.9201 28.5 41.9194 28.5C41.9187 28.5 41.9181 28.5 41.9174 28.5C41.9168 28.5 41.9161 28.5 41.9155 28.5C41.9149 28.5 41.9142 28.5 41.9136 28.5C41.913 28.5 41.9123 28.5 41.9117 28.5C41.9111 28.5 41.9105 28.5 41.9099 28.5C41.9092 28.5 41.9086 28.5 41.908 28.5C41.9074 28.5 41.9068 28.5 41.9062 28.5C41.9056 28.5 41.905 28.5 41.9045 28.5C41.9039 28.5 41.9033 28.5 41.9027 28.5C41.9021 28.5 41.9016 28.5 41.901 28.5C41.9004 28.5 41.8998 28.5 41.8993 28.5C41.8987 28.5 41.8982 28.5 41.8976 28.5C41.8971 28.5 41.8965 28.5 41.896 28.5C41.8954 28.5 41.8949 28.5 41.8943 28.5C41.8938 28.5 41.8933 28.5 41.8927 28.5C41.8922 28.5 41.8917 28.5 41.8912 28.5C41.8907 28.5 41.8901 28.5 41.8896 28.5C41.8891 28.5 41.8886 28.5 41.8881 28.5C41.8876 28.5 41.8871 28.5 41.8866 28.5C41.8861 28.5 41.8856 28.5 41.8851 28.5C41.8847 28.5 41.8842 28.5 41.8837 28.5C41.8832 28.5 41.8828 28.5 41.8823 28.5C41.8818 28.5 41.8813 28.5 41.8809 28.5C41.8804 28.5 41.88 28.5 41.8795 28.5C41.8791 28.5 41.8786 28.5 41.8782 28.5C41.8777 28.5 41.8773 28.5 41.8768 28.5C41.8764 28.5 41.876 28.5 41.8755 28.5C41.8751 28.5 41.8747 28.5 41.8743 28.5C41.8739 28.5 41.8734 28.5 41.873 28.5C41.8726 28.5 41.8722 28.5 41.8718 28.5C41.8714 28.5 41.871 28.5 41.8706 28.5C41.8702 28.5 41.8698 28.5 41.8694 28.5C41.869 28.5 41.8686 28.5 41.8683 28.5C41.8679 28.5 41.8675 28.5 41.8671 28.5C41.8667 28.5 41.8664 28.5 41.866 28.5C41.8656 28.5 41.8653 28.5 41.8649 28.5C41.8646 28.5 41.8642 28.5 41.8639 28.5C41.8635 28.5 41.8632 28.5 41.8628 28.5C41.8625 28.5 41.8621 28.5 41.8618 28.5C41.8615 28.5 41.8611 28.5 41.8608 28.5C41.8605 28.5 41.8602 28.5 41.8598 28.5C41.8595 28.5 41.8592 28.5 41.8589 28.5C41.8586 28.5 41.8583 28.5 41.858 28.5C41.8576 28.5 41.8573 28.5 41.857 28.5C41.8568 28.5 41.8565 28.5 41.8562 28.5C41.8559 28.5 41.8556 28.5 41.8553 28.5C41.855 28.5 41.8547 28.5 41.8545 28.5C41.8542 28.5 41.8539 28.5 41.8536 28.5C41.8534 28.5 41.8531 28.5 41.8528 28.5C41.8526 28.5 41.8523 28.5 41.8521 28.5C41.8518 28.5 41.8516 28.5 41.8513 28.5C41.8511 28.5 41.8508 28.5 41.8506 28.5C41.8503 28.5 41.8501 28.5 41.8499 28.5C41.8496 28.5 41.8494 28.5 41.8492 28.5C41.849 28.5 41.8487 28.5 41.8485 28.5C41.8483 28.5 41.8481 28.5 41.8479 28.5C41.8476 28.5 41.8474 28.5 41.8472 28.5C41.847 28.5 41.8468 28.5 41.8466 28.5C41.8464 28.5 41.8462 28.5 41.846 28.5C41.8458 28.5 41.8457 28.5 41.8455 28.5C41.8453 28.5 41.8451 28.5 41.8449 28.5C41.8447 28.5 41.8446 28.5 41.8444 28.5C41.8442 28.5 41.8441 28.5 41.8439 28.5C41.8437 28.5 41.8436 28.5 41.8434 28.5C41.8432 28.5 41.8431 28.5 41.8429 28.5C41.8428 28.5 41.8426 28.5 41.8425 28.5C41.8423 28.5 41.8422 28.5 41.8421 28.5C41.8419 28.5 41.8418 28.5 41.8417 28.5C41.8415 28.5 41.8414 28.5 41.8413 28.5C41.8411 28.5 41.841 28.5 41.8409 28.5C41.8408 28.5 41.8407 28.5 41.8405 28.5C41.8404 28.5 41.8403 28.5 41.8402 28.5C41.8401 28.5 41.84 28.5 41.8399 28.5C41.8398 28.5 41.8397 28.5 41.8396 28.5C41.8395 28.5 41.8394 28.5 41.8393 28.5C41.8392 28.5 41.8392 28.5 41.8391 28.5C41.839 28.5 41.8389 28.5 41.8388 28.5C41.8388 28.5 41.8387 28.5 41.8386 28.5C41.8385 28.5 41.8385 28.5 41.8384 28.5C41.8384 28.5 41.8383 28.5 41.8382 28.5C41.8382 28.5 41.8381 28.5 41.8381 28.5C41.838 28.5 41.838 28.5 41.8379 28.5C41.8379 28.5 41.8378 28.5 41.8378 28.5C41.8377 28.5 41.8377 28.5 41.8377 28.5C41.8376 28.5 41.8376 28.5 41.8376 28.5C41.8376 28.5 41.8375 28.5 41.8375 28.5C41.8375 28.5 41.8375 28.5 41.8374 28.5C41.8374 28.5 41.8374 28.5 41.8374 28.5C41.8374 28.5 41.8374 28.5 41.8374 28.5C41.8374 28.5 41.8374 28.5 41.8374 28.5C41.8374 29 41.8374 29.5 41.8374 29.5C41.8374 29.5 41.8374 29.5 41.8374 29.5C41.8374 29.5 41.8374 29.5 41.8374 29.5C41.8375 29.5 41.8375 29.5 41.8375 29.5C41.8375 29.5 41.8375 29.5 41.8376 29.5C41.8376 29.5 41.8376 29.5 41.8377 29.5C41.8377 29.5 41.8377 29.5 41.8378 29.5C41.8378 29.5 41.8378 29.5 41.8379 29.5C41.8379 29.5 41.838 29.5 41.838 29.5C41.8381 29.5 41.8381 29.5 41.8382 29.5C41.8382 29.5 41.8383 29.5 41.8384 29.5C41.8384 29.5 41.8385 29.5 41.8385 29.5C41.8386 29.5 41.8387 29.5 41.8387 29.5C41.8388 29.5 41.8389 29.5 41.839 29.5C41.839 29.5 41.8391 29.5 41.8392 29.5C41.8393 29.5 41.8394 29.5 41.8394 29.5C41.8395 29.5 41.8396 29.5 41.8397 29.5C41.8398 29.5 41.8399 29.5 41.84 29.5C41.8401 29.5 41.8402 29.5 41.8403 29.5C41.8404 29.5 41.8405 29.5 41.8406 29.5C41.8407 29.5 41.8408 29.5 41.8409 29.5C41.841 29.5 41.8411 29.5 41.8412 29.5C41.8413 29.5 41.8415 29.5 41.8416 29.5C41.8417 29.5 41.8418 29.5 41.8419 29.5C41.8421 29.5 41.8422 29.5 41.8423 29.5C41.8425 29.5 41.8426 29.5 41.8427 29.5C41.8428 29.5 41.843 29.5 41.8431 29.5C41.8433 29.5 41.8434 29.5 41.8435 29.5C41.8437 29.5 41.8438 29.5 41.844 29.5C41.8441 29.5 41.8443 29.5 41.8444 29.5C41.8446 29.5 41.8447 29.5 41.8449 29.5C41.845 29.5 41.8452 29.5 41.8454 29.5C41.8455 29.5 41.8457 29.5 41.8458 29.5C41.846 29.5 41.8462 29.5 41.8463 29.5C41.8465 29.5 41.8467 29.5 41.8469 29.5C41.847 29.5 41.8472 29.5 41.8474 29.5C41.8476 29.5 41.8477 29.5 41.8479 29.5C41.8481 29.5 41.8483 29.5 41.8485 29.5C41.8487 29.5 41.8488 29.5 41.849 29.5C41.8492 29.5 41.8494 29.5 41.8496 29.5C41.8498 29.5 41.85 29.5 41.8502 29.5C41.8504 29.5 41.8506 29.5 41.8508 29.5C41.851 29.5 41.8512 29.5 41.8514 29.5C41.8516 29.5 41.8518 29.5 41.852 29.5C41.8523 29.5 41.8525 29.5 41.8527 29.5C41.8529 29.5 41.8531 29.5 41.8533 29.5C41.8535 29.5 41.8538 29.5 41.854 29.5C41.8542 29.5 41.8544 29.5 41.8547 29.5C41.8549 29.5 41.8551 29.5 41.8553 29.5C41.8556 29.5 41.8558 29.5 41.856 29.5C41.8563 29.5 41.8565 29.5 41.8567 29.5C41.857 29.5 41.8572 29.5 41.8575 29.5C41.8577 29.5 41.8579 29.5 41.8582 29.5C41.8584 29.5 41.8587 29.5 41.8589 29.5C41.8592 29.5 41.8594 29.5 41.8597 29.5C41.8599 29.5 41.8602 29.5 41.8604 29.5C41.8607 29.5 41.8609 29.5 41.8612 29.5C41.8615 29.5 41.8617 29.5 41.862 29.5C41.8622 29.5 41.8625 29.5 41.8628 29.5C41.863 29.5 41.8633 29.5 41.8636 29.5C41.8638 29.5 41.8641 29.5 41.8644 29.5C41.8647 29.5 41.8649 29.5 41.8652 29.5C41.8655 29.5 41.8658 29.5 41.866 29.5C41.8663 29.5 41.8666 29.5 41.8669 29.5C41.8672 29.5 41.8674 29.5 41.8677 29.5C41.868 29.5 41.8683 29.5 41.8686 29.5C41.8689 29.5 41.8692 29.5 41.8695 29.5C41.8698 29.5 41.87 29.5 41.8703 29.5C41.8706 29.5 41.8709 29.5 41.8712 29.5C41.8715 29.5 41.8718 29.5 41.8721 29.5C41.8724 29.5 41.8727 29.5 41.873 29.5C41.8733 29.5 41.8736 29.5 41.8739 29.5C41.8743 29.5 41.8746 29.5 41.8749 29.5C41.8752 29.5 41.8755 29.5 41.8758 29.5C41.8761 29.5 41.8764 29.5 41.8767 29.5C41.8771 29.5 41.8774 29.5 41.8777 29.5C41.878 29.5 41.8783 29.5 41.8786 29.5C41.879 29.5 41.8793 29.5 41.8796 29.5C41.8799 29.5 41.8803 29.5 41.8806 29.5C41.8809 29.5 41.8812 29.5 41.8816 29.5C41.8819 29.5 41.8822 29.5 41.8825 29.5C41.8829 29.5 41.8832 29.5 41.8835 29.5C41.8839 29.5 41.8842 29.5 41.8846 29.5C41.8849 29.5 41.8852 29.5 41.8856 29.5C41.8859 29.5 41.8862 29.5 41.8866 29.5C41.8869 29.5 41.8873 29.5 41.8876 29.5C41.8879 29.5 41.8883 29.5 41.8886 29.5C41.889 29.5 41.8893 29.5 41.8897 29.5C41.89 29.5 41.8904 29.5 41.8907 29.5C41.8911 29.5 41.8914 29.5 41.8918 29.5C41.8921 29.5 41.8925 29.5 41.8928 29.5C41.8932 29.5 41.8935 29.5 41.8939 29.5C41.8943 29.5 41.8946 29.5 41.895 29.5C41.8953 29.5 41.8957 29.5 41.8961 29.5C41.8964 29.5 41.8968 29.5 41.8971 29.5C41.8975 29.5 41.8979 29.5 41.8982 29.5C41.8986 29.5 41.899 29.5 41.8993 29.5C41.8997 29.5 41.9001 29.5 41.9004 29.5C41.9008 29.5 41.9012 29.5 41.9015 29.5C41.9019 29.5 41.9023 29.5 41.9027 29.5C41.903 29.5 41.9034 29.5 41.9038 29.5C41.9042 29.5 41.9045 29.5 41.9049 29.5C41.9053 29.5 41.9057 29.5 41.906 29.5C41.9064 29.5 41.9068 29.5 41.9072 29.5C41.9075 29.5 41.9079 29.5 41.9083 29.5C41.9087 29.5 41.9091 29.5 41.9095 29.5C41.9098 29.5 41.9102 29.5 41.9106 29.5C41.911 29.5 41.9114 29.5 41.9118 29.5C41.9121 29.5 41.9125 29.5 41.9129 29.5C41.9133 29.5 41.9137 29.5 41.9141 29.5C41.9145 29.5 41.9149 29.5 41.9153 29.5C41.9156 29.5 41.916 29.5 41.9164 29.5C41.9168 29.5 41.9172 29.5 41.9176 29.5C41.918 29.5 41.9184 29.5 41.9188 29.5C41.9192 29.5 41.9196 29.5 41.92 29.5C41.9204 29.5 41.9208 29.5 41.9212 29.5C41.9216 29.5 41.922 29.5 41.9224 29.5C41.9228 29.5 41.9232 29.5 41.9236 29.5C41.924 29.5 41.9244 29.5 41.9248 29.5C41.9252 29.5 41.9256 29.5 41.926 29.5C41.9264 29.5 41.9268 29.5 41.9272 29.5C41.9276 29.5 41.928 29.5 41.9284 29.5C41.9288 29.5 41.9292 29.5 41.9296 29.5C41.93 29.5 41.9304 29.5 41.9308 29.5C41.9312 29.5 41.9316 29.5 41.932 29.5C41.9324 29.5 41.9328 29.5 41.9332 29.5C41.9337 29.5 41.9341 29.5 41.9345 29.5C41.9349 29.5 41.9353 29.5 41.9357 29.5C41.9361 29.5 41.9365 29.5 41.9369 29.5C41.9373 29.5 41.9377 29.5 41.9382 29.5C41.9386 29.5 41.939 29.5 41.9394 29.5C41.9398 29.5 41.9402 29.5 41.9406 29.5C41.941 29.5 41.9414 29.5 41.9419 29.5C41.9423 29.5 41.9427 29.5 41.9431 29.5C41.9435 29.5 41.9439 29.5 41.9443 29.5C41.9447 29.5 41.9452 29.5 41.9456 29.5C41.946 29.5 41.9464 29.5 41.9468 29.5C41.9472 29.5 41.9477 29.5 41.9481 29.5C41.9485 29.5 41.9489 29.5 41.9493 29.5C41.9497 29.5 41.9501 29.5 41.9506 29.5C41.951 29.5 41.9514 29.5 41.9518 29.5C41.9522 29.5 41.9526 29.5 41.9531 29.5C41.9535 29.5 41.9539 29.5 41.9543 29.5C41.9547 29.5 41.9551 29.5 41.9556 29.5C41.956 29.5 41.9564 29.5 41.9568 29.5C41.9572 29.5 41.9576 29.5 41.9581 29.5C41.9585 29.5 41.9589 29.5 41.9593 29.5C41.9597 29.5 41.9601 29.5 41.9606 29.5C41.961 29.5 41.9614 29.5 41.9618 29.5C41.9622 29.5 41.9626 29.5 41.9631 29.5C41.9635 29.5 41.9639 29.5 41.9643 29.5C41.9647 29.5 41.9651 29.5 41.9656 29.5C41.966 29.5 41.9664 29.5 41.9668 29.5C41.9672 29.5 41.9676 29.5 41.9681 29.5C41.9685 29.5 41.9689 29.5 41.9693 29.5C41.9697 29.5 41.9701 29.5 41.9706 29.5C41.971 29.5 41.9714 29.5 41.9718 29.5C41.9722 29.5 41.9726 29.5 41.9731 29.5C41.9735 29.5 41.9739 29.5 41.9743 29.5C41.9747 29.5 41.9751 29.5 41.9756 29.5C41.976 29.5 41.9764 29.5 41.9768 29.5C41.9772 29.5 41.9776 29.5 41.978 29.5C41.9785 29.5 41.9789 29.5 41.9793 29.5C41.9797 29.5 41.9801 29.5 41.9805 29.5C41.9809 29.5 41.9813 29.5 41.9818 29.5C41.9822 29.5 41.9826 29.5 41.983 29.5C41.9834 29.5 41.9838 29.5 41.9842 29.5C41.9846 29.5 41.985 29.5 41.9855 29.5C41.9859 29.5 41.9863 29.5 41.9867 29.5C41.9871 29.5 41.9875 29.5 41.9879 29.5C41.9883 29.5 41.9887 29.5 41.9891 29.5C41.9895 29.5 41.99 29.5 41.9904 29.5C41.9908 29.5 41.9912 29.5 41.9916 29.5C41.992 29.5 41.9924 29.5 41.9928 29.5C41.9932 29.5 41.9936 29.5 41.994 29.5C41.9944 29.5 41.9948 29.5 41.9952 29.5C41.9956 29.5 41.996 29.5 41.9964 29.5C41.9968 29.5 41.9972 29.5 41.9976 29.5C41.998 29.5 41.9984 29.5 41.9988 29.5C41.9992 29.5 41.9996 29.5 42 29.5C42.0004 29.5 42.0008 29.5 42.0012 29.5C42.0016 29.5 42.002 29.5 42.0024 29.5C42.0028 29.5 42.0032 29.5 42.0036 29.5C42.004 29.5 42.0044 29.5 42.0048 29.5C42.0052 29.5 42.0056 29.5 42.006 29.5C42.0064 29.5 42.0067 29.5 42.0071 29.5C42.0075 29.5 42.0079 29.5 42.0083 29.5C42.0087 29.5 42.0091 29.5 42.0095 29.5C42.0099 29.5 42.0103 29.5 42.0106 29.5C42.011 29.5 42.0114 29.5 42.0118 29.5C42.0122 29.5 42.0126 29.5 42.0129 29.5C42.0133 29.5 42.0137 29.5 42.0141 29.5C42.0145 29.5 42.0149 29.5 42.0152 29.5C42.0156 29.5 42.016 29.5 42.0164 29.5C42.0168 29.5 42.0171 29.5 42.0175 29.5C42.0179 29.5 42.0183 29.5 42.0186 29.5C42.019 29.5 42.0194 29.5 42.0198 29.5C42.0201 29.5 42.0205 29.5 42.0209 29.5C42.0212 29.5 42.0216 29.5 42.022 29.5C42.0224 29.5 42.0227 29.5 42.0231 29.5C42.0235 29.5 42.0238 29.5 42.0242 29.5C42.0246 29.5 42.0249 29.5 42.0253 29.5C42.0256 29.5 42.026 29.5 42.0264 29.5C42.0267 29.5 42.0271 29.5 42.0274 29.5C42.0278 29.5 42.0282 29.5 42.0285 29.5C42.0289 29.5 42.0292 29.5 42.0296 29.5C42.0299 29.5 42.0303 29.5 42.0307 29.5C42.031 29.5 42.0314 29.5 42.0317 29.5C42.0321 29.5 42.0324 29.5 42.0328 29.5C42.0331 29.5 42.0335 29.5 42.0338 29.5C42.0341 29.5 42.0345 29.5 42.0348 29.5C42.0352 29.5 42.0355 29.5 42.0359 29.5C42.0362 29.5 42.0365 29.5 42.0369 29.5C42.0372 29.5 42.0376 29.5 42.0379 29.5C42.0382 29.5 42.0386 29.5 42.0389 29.5C42.0392 29.5 42.0396 29.5 42.0399 29.5C42.0402 29.5 42.0406 29.5 42.0409 29.5C42.0412 29.5 42.0415 29.5 42.0419 29.5C42.0422 29.5 42.0425 29.5 42.0429 29.5C42.0432 29.5 42.0435 29.5 42.0438 29.5C42.0441 29.5 42.0445 29.5 42.0448 29.5C42.0451 29.5 42.0454 29.5 42.0457 29.5C42.046 29.5 42.0464 29.5 42.0467 29.5C42.047 29.5 42.0473 29.5 42.0476 29.5C42.0479 29.5 42.0482 29.5 42.0485 29.5C42.0488 29.5 42.0491 29.5 42.0494 29.5C42.0498 29.5 42.0501 29.5 42.0504 29.5C42.0507 29.5 42.051 29.5 42.0513 29.5C42.0516 29.5 42.0519 29.5 42.0521 29.5C42.0524 29.5 42.0527 29.5 42.053 29.5C42.0533 29.5 42.0536 29.5 42.0539 29.5C42.0542 29.5 42.0545 29.5 42.0548 29.5C42.055 29.5 42.0553 29.5 42.0556 29.5C42.0559 29.5 42.0562 29.5 42.0565 29.5C42.0567 29.5 42.057 29.5 42.0573 29.5C42.0576 29.5 42.0578 29.5 42.0581 29.5C42.0584 29.5 42.0587 29.5 42.0589 29.5C42.0592 29.5 42.0595 29.5 42.0597 29.5C42.06 29.5 42.0603 29.5 42.0605 29.5C42.0608 29.5 42.0611 29.5 42.0613 29.5C42.0616 29.5 42.0618 29.5 42.0621 29.5C42.0623 29.5 42.0626 29.5 42.0629 29.5C42.0631 29.5 42.0634 29.5 42.0636 29.5C42.0639 29.5 42.0641 29.5 42.0643 29.5C42.0646 29.5 42.0648 29.5 42.0651 29.5C42.0653 29.5 42.0656 29.5 42.0658 29.5C42.066 29.5 42.0663 29.5 42.0665 29.5C42.0667 29.5 42.067 29.5 42.0672 29.5C42.0674 29.5 42.0677 29.5 42.0679 29.5C42.0681 29.5 42.0683 29.5 42.0686 29.5C42.0688 29.5 42.069 29.5 42.0692 29.5C42.0695 29.5 42.0697 29.5 42.0699 29.5C42.0701 29.5 42.0703 29.5 42.0705 29.5C42.0707 29.5 42.0709 29.5 42.0712 29.5C42.0714 29.5 42.0716 29.5 42.0718 29.5C42.072 29.5 42.0722 29.5 42.0724 29.5C42.0726 29.5 42.0728 29.5 42.073 29.5C42.0732 29.5 42.0734 29.5 42.0735 29.5C42.0737 29.5 42.0739 29.5 42.0741 29.5C42.0743 29.5 42.0745 29.5 42.0747 29.5C42.0749 29.5 42.075 29.5 42.0752 29.5C42.0754 29.5 42.0756 29.5 42.0757 29.5C42.0759 29.5 42.0761 29.5 42.0763 29.5C42.0764 29.5 42.0766 29.5 42.0768 29.5C42.0769 29.5 42.0771 29.5 42.0773 29.5C42.0774 29.5 42.0776 29.5 42.0777 29.5C42.0779 29.5 42.078 29.5 42.0782 29.5C42.0784 29.5 42.0785 29.5 42.0787 29.5C42.0788 29.5 42.0789 29.5 42.0791 29.5C42.0792 29.5 42.0794 29.5 42.0795 29.5C42.0797 29.5 42.0798 29.5 42.0799 29.5C42.0801 29.5 42.0802 29.5 42.0803 29.5C42.0805 29.5 42.0806 29.5 42.0807 29.5C42.0808 29.5 42.081 29.5 42.0811 29.5C42.0812 29.5 42.0813 29.5 42.0814 29.5C42.0815 29.5 42.0817 29.5 42.0818 29.5C42.0819 29.5 42.082 29.5 42.0821 29.5C42.0822 29.5 42.0823 29.5 42.0824 29.5C42.0825 29.5 42.0826 29.5 42.0827 29.5C42.0828 29.5 42.0829 29.5 42.083 29.5C42.0831 29.5 42.0832 29.5 42.0832 29.5C42.0833 29.5 42.0834 29.5 42.0835 29.5C42.0836 29.5 42.0837 29.5 42.0837 29.5C42.0838 29.5 42.0839 29.5 42.084 29.5C42.084 29.5 42.0841 29.5 42.0842 29.5C42.0842 29.5 42.0843 29.5 42.0844 29.5C42.0844 29.5 42.0845 29.5 42.0845 29.5C42.0846 29.5 42.0846 29.5 42.0847 29.5C42.0847 29.5 42.0848 29.5 42.0848 29.5C42.0849 29.5 42.0849 29.5 42.085 29.5C42.085 29.5 42.085 29.5 42.0851 29.5C42.0851 29.5 42.0851 29.5 42.0852 29.5C42.0852 29.5 42.0852 29.5 42.0852 29.5C42.0853 29.5 42.0853 29.5 42.0853 29.5C42.0853 29.5 42.0853 29.5 42.0854 29.5C42.0854 29.5 42.0854 29.5 42.0854 29.5C42.0854 29.5 42.0854 29.5 42.0854 29.5C42.0854 29 42.0854 28.5 42.0854 28.5C42.0854 28.5 42.0854 28.5 42.0854 28.5C42.0854 28.5 42.0854 28.5 42.0853 28.5C42.0853 28.5 42.0853 28.5 42.0853 28.5C42.0853 28.5 42.0852 28.5 42.0852 28.5C42.0852 28.5 42.0852 28.5 42.0851 28.5C42.0851 28.5 42.0851 28.5 42.085 28.5C42.085 28.5 42.0849 28.5 42.0849 28.5C42.0848 28.5 42.0848 28.5 42.0847 28.5C42.0847 28.5 42.0846 28.5 42.0846 28.5C42.0845 28.5 42.0845 28.5 42.0844 28.5C42.0843 28.5 42.0843 28.5 42.0842 28.5C42.0841 28.5 42.0841 28.5 42.084 28.5C42.0839 28.5 42.0838 28.5 42.0838 28.5C42.0837 28.5 42.0836 28.5 42.0835 28.5C42.0834 28.5 42.0833 28.5 42.0832 28.5C42.0832 28.5 42.0831 28.5 42.083 28.5C42.0829 28.5 42.0828 28.5 42.0827 28.5C42.0825 28.5 42.0824 28.5 42.0823 28.5C42.0822 28.5 42.0821 28.5 42.082 28.5C42.0819 28.5 42.0817 28.5 42.0816 28.5C42.0815 28.5 42.0814 28.5 42.0812 28.5C42.0811 28.5 42.081 28.5 42.0808 28.5C42.0807 28.5 42.0806 28.5 42.0804 28.5C42.0803 28.5 42.0801 28.5 42.08 28.5C42.0798 28.5 42.0797 28.5 42.0795 28.5C42.0794 28.5 42.0792 28.5 42.079 28.5C42.0789 28.5 42.0787 28.5 42.0785 28.5C42.0784 28.5 42.0782 28.5 42.078 28.5C42.0778 28.5 42.0777 28.5 42.0775 28.5C42.0773 28.5 42.0771 28.5 42.0769 28.5C42.0767 28.5 42.0765 28.5 42.0763 28.5C42.0761 28.5 42.0759 28.5 42.0757 28.5C42.0755 28.5 42.0753 28.5 42.0751 28.5C42.0749 28.5 42.0747 28.5 42.0745 28.5C42.0742 28.5 42.074 28.5 42.0738 28.5C42.0736 28.5 42.0733 28.5 42.0731 28.5C42.0729 28.5 42.0726 28.5 42.0724 28.5C42.0722 28.5 42.0719 28.5 42.0717 28.5C42.0714 28.5 42.0712 28.5 42.0709 28.5C42.0707 28.5 42.0704 28.5 42.0702 28.5C42.0699 28.5 42.0696 28.5 42.0694 28.5C42.0691 28.5 42.0688 28.5 42.0686 28.5C42.0683 28.5 42.068 28.5 42.0677 28.5C42.0674 28.5 42.0672 28.5 42.0669 28.5C42.0666 28.5 42.0663 28.5 42.066 28.5C42.0657 28.5 42.0654 28.5 42.0651 28.5C42.0648 28.5 42.0645 28.5 42.0642 28.5C42.0639 28.5 42.0636 28.5 42.0632 28.5C42.0629 28.5 42.0626 28.5 42.0623 28.5C42.0619 28.5 42.0616 28.5 42.0613 28.5C42.0609 28.5 42.0606 28.5 42.0603 28.5C42.0599 28.5 42.0596 28.5 42.0592 28.5C42.0589 28.5 42.0585 28.5 42.0582 28.5C42.0578 28.5 42.0575 28.5 42.0571 28.5C42.0567 28.5 42.0564 28.5 42.056 28.5C42.0556 28.5 42.0552 28.5 42.0549 28.5C42.0545 28.5 42.0541 28.5 42.0537 28.5C42.0533 28.5 42.0529 28.5 42.0525 28.5C42.0522 28.5 42.0518 28.5 42.0514 28.5C42.0509 28.5 42.0505 28.5 42.0501 28.5C42.0497 28.5 42.0493 28.5 42.0489 28.5C42.0485 28.5 42.048 28.5 42.0476 28.5C42.0472 28.5 42.0468 28.5 42.0463 28.5C42.0459 28.5 42.0455 28.5 42.045 28.5C42.0446 28.5 42.0441 28.5 42.0437 28.5C42.0432 28.5 42.0428 28.5 42.0423 28.5C42.0419 28.5 42.0414 28.5 42.0409 28.5C42.0405 28.5 42.04 28.5 42.0395 28.5C42.039 28.5 42.0386 28.5 42.0381 28.5C42.0376 28.5 42.0371 28.5 42.0366 28.5C42.0361 28.5 42.0356 28.5 42.0351 28.5C42.0346 28.5 42.0341 28.5 42.0336 28.5C42.0331 28.5 42.0326 28.5 42.0321 28.5C42.0316 28.5 42.031 28.5 42.0305 28.5C42.03 28.5 42.0295 28.5 42.0289 28.5C42.0284 28.5 42.0279 28.5 42.0273 28.5C42.0268 28.5 42.0262 28.5 42.0257 28.5C42.0251 28.5 42.0246 28.5 42.024 28.5C42.0235 28.5 42.0229 28.5 42.0223 28.5C42.0218 28.5 42.0212 28.5 42.0206 28.5C42.02 28.5 42.0195 28.5 42.0189 28.5C42.0183 28.5 42.0177 28.5 42.0171 28.5C42.0165 28.5 42.0159 28.5 42.0153 28.5C42.0147 28.5 42.0141 28.5 42.0135 28.5C42.0129 28.5 42.0123 28.5 42.0116 28.5C42.011 28.5 42.0104 28.5 42.0098 28.5C42.0091 28.5 42.0085 28.5 42.0079 28.5C42.0072 28.5 42.0066 28.5 42.0059 28.5C42.0053 28.5 42.0046 28.5 42.004 28.5C42.0033 28.5 42.0027 28.5 42.002 28.5C42.0013 28.5 42.0007 28.5 42 28.5V29.5C42.0007 29.5 42.0013 29.5 42.002 29.5C42.0027 29.5 42.0033 29.5 42.004 29.5C42.0046 29.5 42.0053 29.5 42.0059 29.5C42.0066 29.5 42.0072 29.5 42.0079 29.5C42.0085 29.5 42.0091 29.5 42.0098 29.5C42.0104 29.5 42.011 29.5 42.0116 29.5C42.0123 29.5 42.0129 29.5 42.0135 29.5C42.0141 29.5 42.0147 29.5 42.0153 29.5C42.0159 29.5 42.0165 29.5 42.0171 29.5C42.0177 29.5 42.0183 29.5 42.0189 29.5C42.0195 29.5 42.02 29.5 42.0206 29.5C42.0212 29.5 42.0218 29.5 42.0223 29.5C42.0229 29.5 42.0235 29.5 42.024 29.5C42.0246 29.5 42.0251 29.5 42.0257 29.5C42.0262 29.5 42.0268 29.5 42.0273 29.5C42.0279 29.5 42.0284 29.5 42.0289 29.5C42.0295 29.5 42.03 29.5 42.0305 29.5C42.031 29.5 42.0316 29.5 42.0321 29.5C42.0326 29.5 42.0331 29.5 42.0336 29.5C42.0341 29.5 42.0346 29.5 42.0351 29.5C42.0356 29.5 42.0361 29.5 42.0366 29.5C42.0371 29.5 42.0376 29.5 42.0381 29.5C42.0386 29.5 42.039 29.5 42.0395 29.5C42.04 29.5 42.0405 29.5 42.0409 29.5C42.0414 29.5 42.0419 29.5 42.0423 29.5C42.0428 29.5 42.0432 29.5 42.0437 29.5C42.0441 29.5 42.0446 29.5 42.045 29.5C42.0455 29.5 42.0459 29.5 42.0463 29.5C42.0468 29.5 42.0472 29.5 42.0476 29.5C42.048 29.5 42.0485 29.5 42.0489 29.5C42.0493 29.5 42.0497 29.5 42.0501 29.5C42.0505 29.5 42.0509 29.5 42.0514 29.5C42.0518 29.5 42.0522 29.5 42.0525 29.5C42.0529 29.5 42.0533 29.5 42.0537 29.5C42.0541 29.5 42.0545 29.5 42.0549 29.5C42.0552 29.5 42.0556 29.5 42.056 29.5C42.0564 29.5 42.0567 29.5 42.0571 29.5C42.0575 29.5 42.0578 29.5 42.0582 29.5C42.0585 29.5 42.0589 29.5 42.0592 29.5C42.0596 29.5 42.0599 29.5 42.0603 29.5C42.0606 29.5 42.0609 29.5 42.0613 29.5C42.0616 29.5 42.0619 29.5 42.0623 29.5C42.0626 29.5 42.0629 29.5 42.0632 29.5C42.0636 29.5 42.0639 29.5 42.0642 29.5C42.0645 29.5 42.0648 29.5 42.0651 29.5C42.0654 29.5 42.0657 29.5 42.066 29.5C42.0663 29.5 42.0666 29.5 42.0669 29.5C42.0672 29.5 42.0674 29.5 42.0677 29.5C42.068 29.5 42.0683 29.5 42.0686 29.5C42.0688 29.5 42.0691 29.5 42.0694 29.5C42.0696 29.5 42.0699 29.5 42.0702 29.5C42.0704 29.5 42.0707 29.5 42.0709 29.5C42.0712 29.5 42.0714 29.5 42.0717 29.5C42.0719 29.5 42.0722 29.5 42.0724 29.5C42.0726 29.5 42.0729 29.5 42.0731 29.5C42.0733 29.5 42.0736 29.5 42.0738 29.5C42.074 29.5 42.0742 29.5 42.0745 29.5C42.0747 29.5 42.0749 29.5 42.0751 29.5C42.0753 29.5 42.0755 29.5 42.0757 29.5C42.0759 29.5 42.0761 29.5 42.0763 29.5C42.0765 29.5 42.0767 29.5 42.0769 29.5C42.0771 29.5 42.0773 29.5 42.0775 29.5C42.0777 29.5 42.0778 29.5 42.078 29.5C42.0782 29.5 42.0784 29.5 42.0785 29.5C42.0787 29.5 42.0789 29.5 42.079 29.5C42.0792 29.5 42.0794 29.5 42.0795 29.5C42.0797 29.5 42.0798 29.5 42.08 29.5C42.0801 29.5 42.0803 29.5 42.0804 29.5C42.0806 29.5 42.0807 29.5 42.0808 29.5C42.081 29.5 42.0811 29.5 42.0812 29.5C42.0814 29.5 42.0815 29.5 42.0816 29.5C42.0817 29.5 42.0819 29.5 42.082 29.5C42.0821 29.5 42.0822 29.5 42.0823 29.5C42.0824 29.5 42.0825 29.5 42.0827 29.5C42.0828 29.5 42.0829 29.5 42.083 29.5C42.0831 29.5 42.0832 29.5 42.0832 29.5C42.0833 29.5 42.0834 29.5 42.0835 29.5C42.0836 29.5 42.0837 29.5 42.0838 29.5C42.0838 29.5 42.0839 29.5 42.084 29.5C42.0841 29.5 42.0841 29.5 42.0842 29.5C42.0843 29.5 42.0843 29.5 42.0844 29.5C42.0845 29.5 42.0845 29.5 42.0846 29.5C42.0846 29.5 42.0847 29.5 42.0847 29.5C42.0848 29.5 42.0848 29.5 42.0849 29.5C42.0849 29.5 42.085 29.5 42.085 29.5C42.0851 29.5 42.0851 29.5 42.0851 29.5C42.0852 29.5 42.0852 29.5 42.0852 29.5C42.0852 29.5 42.0853 29.5 42.0853 29.5C42.0853 29.5 42.0853 29.5 42.0853 29.5C42.0854 29.5 42.0854 29.5 42.0854 29.5C42.0854 29.5 42.0854 29.5 42.0854 29.5C42.0854 29.5 42.0854 29 42.0854 28.5C42.0854 28.5 42.0854 28.5 42.0854 28.5C42.0854 28.5 42.0854 28.5 42.0854 28.5C42.0853 28.5 42.0853 28.5 42.0853 28.5C42.0853 28.5 42.0853 28.5 42.0852 28.5C42.0852 28.5 42.0852 28.5 42.0852 28.5C42.0851 28.5 42.0851 28.5 42.0851 28.5C42.085 28.5 42.085 28.5 42.085 28.5C42.0849 28.5 42.0849 28.5 42.0848 28.5C42.0848 28.5 42.0847 28.5 42.0847 28.5C42.0846 28.5 42.0846 28.5 42.0845 28.5C42.0845 28.5 42.0844 28.5 42.0844 28.5C42.0843 28.5 42.0842 28.5 42.0842 28.5C42.0841 28.5 42.084 28.5 42.084 28.5C42.0839 28.5 42.0838 28.5 42.0837 28.5C42.0837 28.5 42.0836 28.5 42.0835 28.5C42.0834 28.5 42.0833 28.5 42.0832 28.5C42.0832 28.5 42.0831 28.5 42.083 28.5C42.0829 28.5 42.0828 28.5 42.0827 28.5C42.0826 28.5 42.0825 28.5 42.0824 28.5C42.0823 28.5 42.0822 28.5 42.0821 28.5C42.082 28.5 42.0819 28.5 42.0818 28.5C42.0817 28.5 42.0815 28.5 42.0814 28.5C42.0813 28.5 42.0812 28.5 42.0811 28.5C42.081 28.5 42.0808 28.5 42.0807 28.5C42.0806 28.5 42.0805 28.5 42.0803 28.5C42.0802 28.5 42.0801 28.5 42.0799 28.5C42.0798 28.5 42.0797 28.5 42.0795 28.5C42.0794 28.5 42.0792 28.5 42.0791 28.5C42.0789 28.5 42.0788 28.5 42.0787 28.5C42.0785 28.5 42.0784 28.5 42.0782 28.5C42.078 28.5 42.0779 28.5 42.0777 28.5C42.0776 28.5 42.0774 28.5 42.0773 28.5C42.0771 28.5 42.0769 28.5 42.0768 28.5C42.0766 28.5 42.0764 28.5 42.0763 28.5C42.0761 28.5 42.0759 28.5 42.0757 28.5C42.0756 28.5 42.0754 28.5 42.0752 28.5C42.075 28.5 42.0749 28.5 42.0747 28.5C42.0745 28.5 42.0743 28.5 42.0741 28.5C42.0739 28.5 42.0737 28.5 42.0735 28.5C42.0734 28.5 42.0732 28.5 42.073 28.5C42.0728 28.5 42.0726 28.5 42.0724 28.5C42.0722 28.5 42.072 28.5 42.0718 28.5C42.0716 28.5 42.0714 28.5 42.0712 28.5C42.0709 28.5 42.0707 28.5 42.0705 28.5C42.0703 28.5 42.0701 28.5 42.0699 28.5C42.0697 28.5 42.0695 28.5 42.0692 28.5C42.069 28.5 42.0688 28.5 42.0686 28.5C42.0683 28.5 42.0681 28.5 42.0679 28.5C42.0677 28.5 42.0674 28.5 42.0672 28.5C42.067 28.5 42.0667 28.5 42.0665 28.5C42.0663 28.5 42.066 28.5 42.0658 28.5C42.0656 28.5 42.0653 28.5 42.0651 28.5C42.0648 28.5 42.0646 28.5 42.0643 28.5C42.0641 28.5 42.0639 28.5 42.0636 28.5C42.0634 28.5 42.0631 28.5 42.0629 28.5C42.0626 28.5 42.0623 28.5 42.0621 28.5C42.0618 28.5 42.0616 28.5 42.0613 28.5C42.0611 28.5 42.0608 28.5 42.0605 28.5C42.0603 28.5 42.06 28.5 42.0597 28.5C42.0595 28.5 42.0592 28.5 42.0589 28.5C42.0587 28.5 42.0584 28.5 42.0581 28.5C42.0578 28.5 42.0576 28.5 42.0573 28.5C42.057 28.5 42.0567 28.5 42.0565 28.5C42.0562 28.5 42.0559 28.5 42.0556 28.5C42.0553 28.5 42.055 28.5 42.0548 28.5C42.0545 28.5 42.0542 28.5 42.0539 28.5C42.0536 28.5 42.0533 28.5 42.053 28.5C42.0527 28.5 42.0524 28.5 42.0521 28.5C42.0519 28.5 42.0516 28.5 42.0513 28.5C42.051 28.5 42.0507 28.5 42.0504 28.5C42.0501 28.5 42.0498 28.5 42.0494 28.5C42.0491 28.5 42.0488 28.5 42.0485 28.5C42.0482 28.5 42.0479 28.5 42.0476 28.5C42.0473 28.5 42.047 28.5 42.0467 28.5C42.0464 28.5 42.046 28.5 42.0457 28.5C42.0454 28.5 42.0451 28.5 42.0448 28.5C42.0445 28.5 42.0441 28.5 42.0438 28.5C42.0435 28.5 42.0432 28.5 42.0429 28.5C42.0425 28.5 42.0422 28.5 42.0419 28.5C42.0415 28.5 42.0412 28.5 42.0409 28.5C42.0406 28.5 42.0402 28.5 42.0399 28.5C42.0396 28.5 42.0392 28.5 42.0389 28.5C42.0386 28.5 42.0382 28.5 42.0379 28.5C42.0376 28.5 42.0372 28.5 42.0369 28.5C42.0365 28.5 42.0362 28.5 42.0359 28.5C42.0355 28.5 42.0352 28.5 42.0348 28.5C42.0345 28.5 42.0341 28.5 42.0338 28.5C42.0335 28.5 42.0331 28.5 42.0328 28.5C42.0324 28.5 42.0321 28.5 42.0317 28.5C42.0314 28.5 42.031 28.5 42.0307 28.5C42.0303 28.5 42.0299 28.5 42.0296 28.5C42.0292 28.5 42.0289 28.5 42.0285 28.5C42.0282 28.5 42.0278 28.5 42.0274 28.5C42.0271 28.5 42.0267 28.5 42.0264 28.5C42.026 28.5 42.0256 28.5 42.0253 28.5C42.0249 28.5 42.0246 28.5 42.0242 28.5C42.0238 28.5 42.0235 28.5 42.0231 28.5C42.0227 28.5 42.0224 28.5 42.022 28.5C42.0216 28.5 42.0212 28.5 42.0209 28.5C42.0205 28.5 42.0201 28.5 42.0198 28.5C42.0194 28.5 42.019 28.5 42.0186 28.5C42.0183 28.5 42.0179 28.5 42.0175 28.5C42.0171 28.5 42.0168 28.5 42.0164 28.5C42.016 28.5 42.0156 28.5 42.0152 28.5C42.0149 28.5 42.0145 28.5 42.0141 28.5C42.0137 28.5 42.0133 28.5 42.0129 28.5C42.0126 28.5 42.0122 28.5 42.0118 28.5C42.0114 28.5 42.011 28.5 42.0106 28.5C42.0103 28.5 42.0099 28.5 42.0095 28.5C42.0091 28.5 42.0087 28.5 42.0083 28.5C42.0079 28.5 42.0075 28.5 42.0071 28.5C42.0067 28.5 42.0064 28.5 42.006 28.5C42.0056 28.5 42.0052 28.5 42.0048 28.5C42.0044 28.5 42.004 28.5 42.0036 28.5C42.0032 28.5 42.0028 28.5 42.0024 28.5C42.002 28.5 42.0016 28.5 42.0012 28.5C42.0008 28.5 42.0004 28.5 42 28.5C41.9996 28.5 41.9992 28.5 41.9988 28.5C41.9984 28.5 41.998 28.5 41.9976 28.5C41.9972 28.5 41.9968 28.5 41.9964 28.5C41.996 28.5 41.9956 28.5 41.9952 28.5C41.9948 28.5 41.9944 28.5 41.994 28.5C41.9936 28.5 41.9932 28.5 41.9928 28.5C41.9924 28.5 41.992 28.5 41.9916 28.5C41.9912 28.5 41.9908 28.5 41.9904 28.5C41.99 28.5 41.9895 28.5 41.9891 28.5C41.9887 28.5 41.9883 28.5 41.9879 28.5C41.9875 28.5 41.9871 28.5 41.9867 28.5C41.9863 28.5 41.9859 28.5 41.9855 28.5C41.985 28.5 41.9846 28.5 41.9842 28.5C41.9838 28.5 41.9834 28.5 41.983 28.5C41.9826 28.5 41.9822 28.5 41.9818 28.5C41.9813 28.5 41.9809 28.5 41.9805 28.5C41.9801 28.5 41.9797 28.5 41.9793 28.5C41.9789 28.5 41.9785 28.5 41.978 28.5C41.9776 28.5 41.9772 28.5 41.9768 28.5C41.9764 28.5 41.976 28.5 41.9756 28.5C41.9751 28.5 41.9747 28.5 41.9743 28.5C41.9739 28.5 41.9735 28.5 41.9731 28.5C41.9726 28.5 41.9722 28.5 41.9718 28.5C41.9714 28.5 41.971 28.5 41.9706 28.5C41.9701 28.5 41.9697 28.5 41.9693 28.5C41.9689 28.5 41.9685 28.5 41.9681 28.5C41.9676 28.5 41.9672 28.5 41.9668 28.5C41.9664 28.5 41.966 28.5 41.9656 28.5C41.9651 28.5 41.9647 28.5 41.9643 28.5C41.9639 28.5 41.9635 28.5 41.9631 28.5C41.9626 28.5 41.9622 28.5 41.9618 28.5C41.9614 28.5 41.961 28.5 41.9606 28.5C41.9601 28.5 41.9597 28.5 41.9593 28.5C41.9589 28.5 41.9585 28.5 41.9581 28.5C41.9576 28.5 41.9572 28.5 41.9568 28.5C41.9564 28.5 41.956 28.5 41.9556 28.5C41.9551 28.5 41.9547 28.5 41.9543 28.5C41.9539 28.5 41.9535 28.5 41.9531 28.5C41.9526 28.5 41.9522 28.5 41.9518 28.5C41.9514 28.5 41.951 28.5 41.9506 28.5C41.9501 28.5 41.9497 28.5 41.9493 28.5C41.9489 28.5 41.9485 28.5 41.9481 28.5C41.9477 28.5 41.9472 28.5 41.9468 28.5C41.9464 28.5 41.946 28.5 41.9456 28.5C41.9452 28.5 41.9447 28.5 41.9443 28.5C41.9439 28.5 41.9435 28.5 41.9431 28.5C41.9427 28.5 41.9423 28.5 41.9419 28.5C41.9414 28.5 41.941 28.5 41.9406 28.5C41.9402 28.5 41.9398 28.5 41.9394 28.5C41.939 28.5 41.9386 28.5 41.9382 28.5C41.9377 28.5 41.9373 28.5 41.9369 28.5C41.9365 28.5 41.9361 28.5 41.9357 28.5C41.9353 28.5 41.9349 28.5 41.9345 28.5C41.9341 28.5 41.9337 28.5 41.9332 28.5C41.9328 28.5 41.9324 28.5 41.932 28.5C41.9316 28.5 41.9312 28.5 41.9308 28.5C41.9304 28.5 41.93 28.5 41.9296 28.5C41.9292 28.5 41.9288 28.5 41.9284 28.5C41.928 28.5 41.9276 28.5 41.9272 28.5C41.9268 28.5 41.9264 28.5 41.926 28.5C41.9256 28.5 41.9252 28.5 41.9248 28.5C41.9244 28.5 41.924 28.5 41.9236 28.5C41.9232 28.5 41.9228 28.5 41.9224 28.5C41.922 28.5 41.9216 28.5 41.9212 28.5C41.9208 28.5 41.9204 28.5 41.92 28.5C41.9196 28.5 41.9192 28.5 41.9188 28.5C41.9184 28.5 41.918 28.5 41.9176 28.5C41.9172 28.5 41.9168 28.5 41.9164 28.5C41.916 28.5 41.9156 28.5 41.9153 28.5C41.9149 28.5 41.9145 28.5 41.9141 28.5C41.9137 28.5 41.9133 28.5 41.9129 28.5C41.9125 28.5 41.9121 28.5 41.9118 28.5C41.9114 28.5 41.911 28.5 41.9106 28.5C41.9102 28.5 41.9098 28.5 41.9095 28.5C41.9091 28.5 41.9087 28.5 41.9083 28.5C41.9079 28.5 41.9075 28.5 41.9072 28.5C41.9068 28.5 41.9064 28.5 41.906 28.5C41.9057 28.5 41.9053 28.5 41.9049 28.5C41.9045 28.5 41.9042 28.5 41.9038 28.5C41.9034 28.5 41.903 28.5 41.9027 28.5C41.9023 28.5 41.9019 28.5 41.9015 28.5C41.9012 28.5 41.9008 28.5 41.9004 28.5C41.9001 28.5 41.8997 28.5 41.8993 28.5C41.899 28.5 41.8986 28.5 41.8982 28.5C41.8979 28.5 41.8975 28.5 41.8971 28.5C41.8968 28.5 41.8964 28.5 41.8961 28.5C41.8957 28.5 41.8953 28.5 41.895 28.5C41.8946 28.5 41.8943 28.5 41.8939 28.5C41.8935 28.5 41.8932 28.5 41.8928 28.5C41.8925 28.5 41.8921 28.5 41.8918 28.5C41.8914 28.5 41.8911 28.5 41.8907 28.5C41.8904 28.5 41.89 28.5 41.8897 28.5C41.8893 28.5 41.889 28.5 41.8886 28.5C41.8883 28.5 41.8879 28.5 41.8876 28.5C41.8873 28.5 41.8869 28.5 41.8866 28.5C41.8862 28.5 41.8859 28.5 41.8856 28.5C41.8852 28.5 41.8849 28.5 41.8846 28.5C41.8842 28.5 41.8839 28.5 41.8835 28.5C41.8832 28.5 41.8829 28.5 41.8825 28.5C41.8822 28.5 41.8819 28.5 41.8816 28.5C41.8812 28.5 41.8809 28.5 41.8806 28.5C41.8803 28.5 41.8799 28.5 41.8796 28.5C41.8793 28.5 41.879 28.5 41.8786 28.5C41.8783 28.5 41.878 28.5 41.8777 28.5C41.8774 28.5 41.8771 28.5 41.8767 28.5C41.8764 28.5 41.8761 28.5 41.8758 28.5C41.8755 28.5 41.8752 28.5 41.8749 28.5C41.8746 28.5 41.8743 28.5 41.8739 28.5C41.8736 28.5 41.8733 28.5 41.873 28.5C41.8727 28.5 41.8724 28.5 41.8721 28.5C41.8718 28.5 41.8715 28.5 41.8712 28.5C41.8709 28.5 41.8706 28.5 41.8703 28.5C41.87 28.5 41.8698 28.5 41.8695 28.5C41.8692 28.5 41.8689 28.5 41.8686 28.5C41.8683 28.5 41.868 28.5 41.8677 28.5C41.8674 28.5 41.8672 28.5 41.8669 28.5C41.8666 28.5 41.8663 28.5 41.866 28.5C41.8658 28.5 41.8655 28.5 41.8652 28.5C41.8649 28.5 41.8647 28.5 41.8644 28.5C41.8641 28.5 41.8638 28.5 41.8636 28.5C41.8633 28.5 41.863 28.5 41.8628 28.5C41.8625 28.5 41.8622 28.5 41.862 28.5C41.8617 28.5 41.8615 28.5 41.8612 28.5C41.8609 28.5 41.8607 28.5 41.8604 28.5C41.8602 28.5 41.8599 28.5 41.8597 28.5C41.8594 28.5 41.8592 28.5 41.8589 28.5C41.8587 28.5 41.8584 28.5 41.8582 28.5C41.8579 28.5 41.8577 28.5 41.8575 28.5C41.8572 28.5 41.857 28.5 41.8567 28.5C41.8565 28.5 41.8563 28.5 41.856 28.5C41.8558 28.5 41.8556 28.5 41.8553 28.5C41.8551 28.5 41.8549 28.5 41.8547 28.5C41.8544 28.5 41.8542 28.5 41.854 28.5C41.8538 28.5 41.8535 28.5 41.8533 28.5C41.8531 28.5 41.8529 28.5 41.8527 28.5C41.8525 28.5 41.8523 28.5 41.852 28.5C41.8518 28.5 41.8516 28.5 41.8514 28.5C41.8512 28.5 41.851 28.5 41.8508 28.5C41.8506 28.5 41.8504 28.5 41.8502 28.5C41.85 28.5 41.8498 28.5 41.8496 28.5C41.8494 28.5 41.8492 28.5 41.849 28.5C41.8488 28.5 41.8487 28.5 41.8485 28.5C41.8483 28.5 41.8481 28.5 41.8479 28.5C41.8477 28.5 41.8476 28.5 41.8474 28.5C41.8472 28.5 41.847 28.5 41.8469 28.5C41.8467 28.5 41.8465 28.5 41.8463 28.5C41.8462 28.5 41.846 28.5 41.8458 28.5C41.8457 28.5 41.8455 28.5 41.8454 28.5C41.8452 28.5 41.845 28.5 41.8449 28.5C41.8447 28.5 41.8446 28.5 41.8444 28.5C41.8443 28.5 41.8441 28.5 41.844 28.5C41.8438 28.5 41.8437 28.5 41.8435 28.5C41.8434 28.5 41.8433 28.5 41.8431 28.5C41.843 28.5 41.8428 28.5 41.8427 28.5C41.8426 28.5 41.8425 28.5 41.8423 28.5C41.8422 28.5 41.8421 28.5 41.8419 28.5C41.8418 28.5 41.8417 28.5 41.8416 28.5C41.8415 28.5 41.8413 28.5 41.8412 28.5C41.8411 28.5 41.841 28.5 41.8409 28.5C41.8408 28.5 41.8407 28.5 41.8406 28.5C41.8405 28.5 41.8404 28.5 41.8403 28.5C41.8402 28.5 41.8401 28.5 41.84 28.5C41.8399 28.5 41.8398 28.5 41.8397 28.5C41.8396 28.5 41.8395 28.5 41.8394 28.5C41.8394 28.5 41.8393 28.5 41.8392 28.5C41.8391 28.5 41.839 28.5 41.839 28.5C41.8389 28.5 41.8388 28.5 41.8387 28.5C41.8387 28.5 41.8386 28.5 41.8385 28.5C41.8385 28.5 41.8384 28.5 41.8384 28.5C41.8383 28.5 41.8382 28.5 41.8382 28.5C41.8381 28.5 41.8381 28.5 41.838 28.5C41.838 28.5 41.8379 28.5 41.8379 28.5C41.8378 28.5 41.8378 28.5 41.8378 28.5C41.8377 28.5 41.8377 28.5 41.8377 28.5C41.8376 28.5 41.8376 28.5 41.8376 28.5C41.8375 28.5 41.8375 28.5 41.8375 28.5C41.8375 28.5 41.8375 28.5 41.8374 28.5C41.8374 28.5 41.8374 28.5 41.8374 28.5C41.8374 28.5 41.8374 28.5 41.8374 28.5C41.8374 28.5 41.8374 29 41.8374 29.5C41.8374 29.5 41.8374 29.5 41.8374 29.5C41.8374 29.5 41.8374 29.5 41.8374 29.5C41.8374 29.5 41.8374 29.5 41.8374 29.5C41.8375 29.5 41.8375 29.5 41.8375 29.5C41.8375 29.5 41.8376 29.5 41.8376 29.5C41.8376 29.5 41.8376 29.5 41.8377 29.5C41.8377 29.5 41.8377 29.5 41.8378 29.5C41.8378 29.5 41.8379 29.5 41.8379 29.5C41.838 29.5 41.838 29.5 41.8381 29.5C41.8381 29.5 41.8382 29.5 41.8382 29.5C41.8383 29.5 41.8384 29.5 41.8384 29.5C41.8385 29.5 41.8385 29.5 41.8386 29.5C41.8387 29.5 41.8388 29.5 41.8388 29.5C41.8389 29.5 41.839 29.5 41.8391 29.5C41.8392 29.5 41.8392 29.5 41.8393 29.5C41.8394 29.5 41.8395 29.5 41.8396 29.5C41.8397 29.5 41.8398 29.5 41.8399 29.5C41.84 29.5 41.8401 29.5 41.8402 29.5C41.8403 29.5 41.8404 29.5 41.8405 29.5C41.8407 29.5 41.8408 29.5 41.8409 29.5C41.841 29.5 41.8411 29.5 41.8413 29.5C41.8414 29.5 41.8415 29.5 41.8417 29.5C41.8418 29.5 41.8419 29.5 41.8421 29.5C41.8422 29.5 41.8423 29.5 41.8425 29.5C41.8426 29.5 41.8428 29.5 41.8429 29.5C41.8431 29.5 41.8432 29.5 41.8434 29.5C41.8436 29.5 41.8437 29.5 41.8439 29.5C41.8441 29.5 41.8442 29.5 41.8444 29.5C41.8446 29.5 41.8447 29.5 41.8449 29.5C41.8451 29.5 41.8453 29.5 41.8455 29.5C41.8457 29.5 41.8458 29.5 41.846 29.5C41.8462 29.5 41.8464 29.5 41.8466 29.5C41.8468 29.5 41.847 29.5 41.8472 29.5C41.8474 29.5 41.8476 29.5 41.8479 29.5C41.8481 29.5 41.8483 29.5 41.8485 29.5C41.8487 29.5 41.849 29.5 41.8492 29.5C41.8494 29.5 41.8496 29.5 41.8499 29.5C41.8501 29.5 41.8503 29.5 41.8506 29.5C41.8508 29.5 41.8511 29.5 41.8513 29.5C41.8516 29.5 41.8518 29.5 41.8521 29.5C41.8523 29.5 41.8526 29.5 41.8528 29.5C41.8531 29.5 41.8534 29.5 41.8536 29.5C41.8539 29.5 41.8542 29.5 41.8545 29.5C41.8547 29.5 41.855 29.5 41.8553 29.5C41.8556 29.5 41.8559 29.5 41.8562 29.5C41.8565 29.5 41.8568 29.5 41.857 29.5C41.8573 29.5 41.8576 29.5 41.858 29.5C41.8583 29.5 41.8586 29.5 41.8589 29.5C41.8592 29.5 41.8595 29.5 41.8598 29.5C41.8602 29.5 41.8605 29.5 41.8608 29.5C41.8611 29.5 41.8615 29.5 41.8618 29.5C41.8621 29.5 41.8625 29.5 41.8628 29.5C41.8632 29.5 41.8635 29.5 41.8639 29.5C41.8642 29.5 41.8646 29.5 41.8649 29.5C41.8653 29.5 41.8656 29.5 41.866 29.5C41.8664 29.5 41.8667 29.5 41.8671 29.5C41.8675 29.5 41.8679 29.5 41.8683 29.5C41.8686 29.5 41.869 29.5 41.8694 29.5C41.8698 29.5 41.8702 29.5 41.8706 29.5C41.871 29.5 41.8714 29.5 41.8718 29.5C41.8722 29.5 41.8726 29.5 41.873 29.5C41.8734 29.5 41.8739 29.5 41.8743 29.5C41.8747 29.5 41.8751 29.5 41.8755 29.5C41.876 29.5 41.8764 29.5 41.8768 29.5C41.8773 29.5 41.8777 29.5 41.8782 29.5C41.8786 29.5 41.8791 29.5 41.8795 29.5C41.88 29.5 41.8804 29.5 41.8809 29.5C41.8813 29.5 41.8818 29.5 41.8823 29.5C41.8828 29.5 41.8832 29.5 41.8837 29.5C41.8842 29.5 41.8847 29.5 41.8851 29.5C41.8856 29.5 41.8861 29.5 41.8866 29.5C41.8871 29.5 41.8876 29.5 41.8881 29.5C41.8886 29.5 41.8891 29.5 41.8896 29.5C41.8901 29.5 41.8907 29.5 41.8912 29.5C41.8917 29.5 41.8922 29.5 41.8927 29.5C41.8933 29.5 41.8938 29.5 41.8943 29.5C41.8949 29.5 41.8954 29.5 41.896 29.5C41.8965 29.5 41.8971 29.5 41.8976 29.5C41.8982 29.5 41.8987 29.5 41.8993 29.5C41.8998 29.5 41.9004 29.5 41.901 29.5C41.9016 29.5 41.9021 29.5 41.9027 29.5C41.9033 29.5 41.9039 29.5 41.9045 29.5C41.905 29.5 41.9056 29.5 41.9062 29.5C41.9068 29.5 41.9074 29.5 41.908 29.5C41.9086 29.5 41.9092 29.5 41.9099 29.5C41.9105 29.5 41.9111 29.5 41.9117 29.5C41.9123 29.5 41.913 29.5 41.9136 29.5C41.9142 29.5 41.9149 29.5 41.9155 29.5C41.9161 29.5 41.9168 29.5 41.9174 29.5C41.9181 29.5 41.9187 29.5 41.9194 29.5C41.9201 29.5 41.9207 29.5 41.9214 29.5C41.9221 29.5 41.9227 29.5 41.9234 29.5C41.9241 29.5 41.9248 29.5 41.9255 29.5C41.9261 29.5 41.9268 29.5 41.9275 29.5C41.9282 29.5 41.9289 29.5 41.9296 29.5C41.9303 29.5 41.931 29.5 41.9317 29.5C41.9325 29.5 41.9332 29.5 41.9339 29.5C41.9346 29.5 41.9353 29.5 41.9361 29.5C41.9368 29.5 41.9375 29.5 41.9383 29.5C41.939 29.5 41.9398 29.5 41.9405 29.5C41.9413 29.5 41.942 29.5 41.9428 29.5C41.9436 29.5 41.9443 29.5 41.9451 29.5C41.9459 29.5 41.9466 29.5 41.9474 29.5C41.9482 29.5 41.949 29.5 41.9498 29.5C41.9506 29.5 41.9513 29.5 41.9521 29.5C41.9529 29.5 41.9537 29.5 41.9545 29.5C41.9554 29.5 41.9562 29.5 41.957 29.5C41.9578 29.5 41.9586 29.5 41.9595 29.5C41.9603 29.5 41.9611 29.5 41.9619 29.5C41.9628 29.5 41.9636 29.5 41.9645 29.5C41.9653 29.5 41.9662 29.5 41.967 29.5C41.9679 29.5 41.9687 29.5 41.9696 29.5C41.9705 29.5 41.9713 29.5 41.9722 29.5C41.9731 29.5 41.974 29.5 41.9749 29.5C41.9757 29.5 41.9766 29.5 41.9775 29.5C41.9784 29.5 41.9793 29.5 41.9802 29.5C41.9811 29.5 41.9821 29.5 41.983 29.5C41.9839 29.5 41.9848 29.5 41.9857 29.5C41.9867 29.5 41.9876 29.5 41.9885 29.5C41.9895 29.5 41.9904 29.5 41.9913 29.5C41.9923 29.5 41.9932 29.5 41.9942 29.5C41.9952 29.5 41.9961 29.5 41.9971 29.5C41.9981 29.5 41.999 29.5 42 29.5V28.5ZM44.6319 15.7857L44.624 17.9982L45.624 18.0018L45.6319 15.7893L44.6319 15.7857ZM20.6334 18.4372C22.9404 19.7174 24.5 22.1769 24.5 25H25.5C25.5 21.7991 23.7304 19.0121 21.1186 17.5628L20.6334 18.4372ZM24.5 25C24.5 26.327 24.1561 27.6882 23.5628 28.7574L24.4372 29.2426C25.1182 28.0153 25.5 26.4855 25.5 25H24.5ZM42.4372 28.7574C41.8439 27.6882 41.5 26.327 41.5 25H40.5C40.5 26.4855 40.8818 28.0153 41.5628 29.2426L42.4372 28.7574ZM41.5 25C41.5 22.1769 43.0596 19.7174 45.3666 18.4372L44.8814 17.5628C42.2696 19.0121 40.5 21.7991 40.5 25H41.5Z" fill="#001E2B"/>
<path d="M1 49H0.5C0.5 49.2761 0.723858 49.5 1 49.5V49ZM16 17.0619L15.9381 16.5657L16 17.0619ZM19.7902 32.5L19.9646 32.9686L19.7902 32.5ZM65 49V49.5C65.2761 49.5 65.5 49.2761 65.5 49H65ZM17 32.5C12.8579 32.5 9.5 29.1421 9.5 25H8.5C8.5 29.6944 12.3056 33.5 17 33.5V32.5ZM17 17.5C21.1421 17.5 24.5 20.8579 24.5 25H25.5C25.5 20.3056 21.6944 16.5 17 16.5V17.5ZM33 48.5H1V49.5H33V48.5ZM1.5 49C1.5 40.4761 8.47614 33.5 17 33.5V32.5C7.92386 32.5 0.5 39.9239 0.5 49H1.5ZM17 33.5C25.5266 33.5 32.5 40.3455 32.5 49H33.5C33.5 39.7878 26.0734 32.5 17 32.5V33.5ZM9.5 25C9.5 21.1757 12.3627 18.0193 16.0619 17.5581L15.9381 16.5657C11.7447 17.0887 8.5 20.665 8.5 25H9.5ZM16.0619 17.5581C16.369 17.5198 16.6821 17.5 17 17.5V16.5C16.6406 16.5 16.2862 16.5223 15.9381 16.5657L16.0619 17.5581ZM24.5 25C24.5 28.2213 22.4689 30.9695 19.6158 32.0314L19.9646 32.9686C23.1965 31.7657 25.5 28.6525 25.5 25H24.5ZM19.6158 32.0314C18.802 32.3342 17.9209 32.5 17 32.5V33.5C18.0418 33.5 19.0409 33.3123 19.9646 32.9686L19.6158 32.0314ZM56.5 25C56.5 29.1421 53.1421 32.5 49 32.5V33.5C53.6944 33.5 57.5 29.6944 57.5 25H56.5ZM49 32.5C44.8579 32.5 41.5 29.1421 41.5 25H40.5C40.5 29.6944 44.3056 33.5 49 33.5V32.5ZM41.5 25C41.5 20.8579 44.8579 17.5 49 17.5V16.5C44.3056 16.5 40.5 20.3056 40.5 25H41.5ZM49 17.5C53.1421 17.5 56.5 20.8579 56.5 25H57.5C57.5 20.3056 53.6944 16.5 49 16.5V17.5ZM65 48.5H33V49.5H65V48.5ZM33.5 49C33.5 40.4761 40.4761 33.5 49 33.5V32.5C39.9239 32.5 32.5 39.9239 32.5 49H33.5ZM49 33.5C57.5266 33.5 64.5 40.3455 64.5 49H65.5C65.5 39.7878 58.0734 32.5 49 32.5V33.5Z" fill="#001E2B"/>
</svg>