<?xml version="1.0" encoding="utf-8"?>
<svg xmlns="http://www.w3.org/2000/svg" width="66" height="64" viewBox="0 0 66 64" fill="none">
<path d="M53 26V20.7628C53 9.89328 44 1 33 1C22 1 13 9.89328 13 20.7628V26" stroke="#001E2B" stroke-miterlimit="10"/>
<path d="M53 49C59.6 49 65 43.6 65 37C65 30.4 59.6 25 53 25V49Z" fill="#00ED64" stroke="#001E2B" stroke-miterlimit="10"/>
<path d="M13 25C6.4 25 1 30.4 1 37C1 43.6 6.4 49 13 49V25Z" fill="#00ED64" stroke="#001E2B" stroke-miterlimit="10"/>
<path d="M57 48V56.2205C57 58.2992 55.2 60 53 60H45" stroke="#001E2B" stroke-miterlimit="10"/>
<path d="M44 63H33C31.3 63 30 61.7 30 60C30 58.3 31.3 57 33 57H44C45.1 57 46 57.9 46 59V61C46 62.1 45.1 63 44 63Z" fill="#00ED64" stroke="#001E2B" stroke-miterlimit="10"/>
<path d="M44.6892 29.9536L43.2303 29.4672C43.1492 29.4672 43.0682 29.3862 43.0682 29.3862C42.0145 28.8998 41.5282 27.6028 42.0956 26.5489L42.744 25.1708C42.9871 24.6034 42.9871 23.9549 42.744 23.3874C42.2577 22.3336 40.9608 21.8472 39.9072 22.4147L38.5293 23.0632C38.4482 23.0632 38.3672 23.1442 38.3672 23.1442C37.2325 23.5496 36.0977 22.9821 35.6925 21.8472L35.1251 20.3881C34.882 19.8206 34.4767 19.3342 33.8283 19.091C32.6936 18.7668 31.4778 19.3342 31.0725 20.3881L30.5862 21.8472C30.5862 21.9283 30.5052 22.0093 30.5052 22.0904C30.0189 23.1442 28.722 23.6306 27.6684 23.0632L26.2905 22.4147C25.7231 22.1715 25.0747 22.1715 24.5074 22.4147C23.4537 22.901 22.9674 24.1981 23.4537 25.2519L24.1021 26.63C24.1021 26.7111 24.1832 26.7921 24.1832 26.8732C24.5884 28.0081 24.0211 29.143 22.8863 29.5483L21.4274 30.0347C20.86 30.2779 20.3737 30.6832 20.1306 31.3317C19.7253 32.4666 20.2927 33.6015 21.4274 34.0068L22.8863 34.4932C22.9674 34.4932 23.0484 34.5743 23.0484 34.5743C24.1021 35.0607 24.5884 36.3577 24.021 37.4115L23.3726 38.7896C23.1295 39.3571 23.1295 40.0056 23.3726 40.573C23.8589 41.6268 25.1558 42.1132 26.2094 41.5458L27.5873 40.8973C27.6684 40.8973 27.7494 40.8162 27.7494 40.8162C28.8841 40.4109 30.0189 40.9783 30.4241 42.1132L30.9104 43.5724C31.1536 44.1398 31.5589 44.6262 32.2073 44.8694C33.342 45.2747 34.5578 44.7073 34.882 43.5724L35.3683 42.1132C35.3683 42.0322 35.4493 41.9511 35.4493 41.9511C35.9356 40.8973 37.2325 40.4109 38.2861 40.9783L39.664 41.6268C40.2314 41.87 40.8798 41.87 41.4472 41.6268C42.5008 41.1405 42.9871 39.8434 42.5008 38.7896L41.8524 37.4115C41.8524 37.3305 41.7714 37.2494 41.7714 37.2494C41.3661 36.1145 41.9335 34.9796 43.0682 34.5743L44.5271 34.0879C45.0945 33.8447 45.5808 33.4394 45.8239 32.7909C46.3103 31.5749 45.7429 30.3589 44.6892 29.9536ZM33.0988 36.8441C30.4241 36.8441 28.2357 34.6553 28.2357 31.9802C28.2357 29.3051 30.4241 27.1164 33.0988 27.1164C35.7735 27.1164 37.9619 29.3051 37.9619 31.9802C37.9619 34.6553 35.7735 36.8441 33.0988 36.8441Z" stroke="#001E2B" stroke-miterlimit="10"/>
</svg>