<?xml version="1.0" encoding="utf-8"?>
<svg xmlns="http://www.w3.org/2000/svg" width="56" height="66" viewBox="0 0 56 66" fill="none">
<path d="M55 17C55 17 55 62.8998 54.8875 62.7893C54.8875 64.0052 53.875 65 52.6375 65H3.25C2.0125 65 1 64.0052 1 62.7893V3.21071C1 1.99482 2.0125 1 3.25 1H39" stroke="#001E2B" stroke-miterlimit="10" stroke-linecap="round" stroke-linejoin="round"/>
<path d="M39 15V1L55 17H41C39.8954 17 39 16.1046 39 15Z" fill="#00ED64"/>
<path d="M39 1L39.3536 0.646447C39.2106 0.503448 38.9955 0.46067 38.8087 0.53806C38.6218 0.615451 38.5 0.797769 38.5 1H39ZM55 17V17.5C55.2022 17.5 55.3846 17.3782 55.4619 17.1913C55.5393 17.0045 55.4966 16.7894 55.3536 16.6464L55 17ZM38.5 1V15H39.5V1H38.5ZM41 17.5H55V16.5H41V17.5ZM55.3536 16.6464L39.3536 0.646447L38.6464 1.35355L54.6464 17.3536L55.3536 16.6464ZM38.5 15C38.5 16.3807 39.6193 17.5 41 17.5V16.5C40.1716 16.5 39.5 15.8284 39.5 15H38.5Z" fill="#001E2B"/>
<path d="M21 30.5H20.5V31.5H21V30.5ZM43 31.5H43.5V30.5H43V31.5ZM10.2103 30.1688L10.5728 29.8244L10.2103 30.1688ZM11.7162 30.1047L11.3258 29.7924H11.3258L11.7162 30.1047ZM21 50.5H20.5V51.5H21V50.5ZM43 51.5H43.5V50.5H43V51.5ZM10.2103 50.1688L10.5728 49.8244V49.8244L10.2103 50.1688ZM11.7162 50.1047L11.3258 49.7924H11.3258L11.7162 50.1047ZM21 31.5H43V30.5H21V31.5ZM6.6375 27.1338L9.84785 30.5132L10.5728 29.8244L7.3625 26.4451L6.6375 27.1338ZM12.1066 30.4171L19.3904 21.3123L18.6096 20.6877L11.3258 29.7924L12.1066 30.4171ZM9.84785 30.5132C10.4742 31.1725 11.5385 31.1272 12.1066 30.4171L11.3258 29.7924C11.1364 30.0291 10.7816 30.0442 10.5728 29.8244L9.84785 30.5132ZM21 51.5H43V50.5H21V51.5ZM6.6375 47.1339L9.84785 50.5132L10.5728 49.8244L7.3625 46.4451L6.6375 47.1339ZM12.1066 50.4171L19.3904 41.3123L18.6096 40.6877L11.3258 49.7924L12.1066 50.4171ZM9.84785 50.5132C10.4742 51.1725 11.5385 51.1272 12.1066 50.4171L11.3258 49.7924C11.1364 50.0291 10.7816 50.0442 10.5728 49.8244L9.84785 50.5132Z" fill="#001E2B"/>
</svg>