<?xml version="1.0" encoding="utf-8"?>
<svg xmlns="http://www.w3.org/2000/svg" width="66" height="48" viewBox="0 0 66 48" fill="none">
<path d="M33.0001 1C24.821 1 17.9486 7.45213 16 15C16.3276 14.9593 17.1613 15 17.5 15C21.9183 15 24 18 25 22.4879C25 25.9144 23.5425 28.8711 20.5 30L19.6855 30.6862C23.1828 31.272 26.3025 32.9839 28.6414 35.4486C30.0441 35.8086 31.4847 36 33.0001 36C34.5083 36 36.0491 35.8152 37.4535 35.4486C40.3768 32.3682 44.4247 31 49 31L45.5 30C42.4575 28.8711 41 25.9144 41 22.4879C41.5 18.5 44.0817 15 48.5 15C48.8387 15 49.6724 14.9593 50 15C48.0514 7.45213 41.1791 1 33.0001 1Z" fill="#00ED64"/>
<path d="M16 15C17.9486 7.45213 24.821 1 33.0001 1M33.0001 1C41.1791 1 48.0514 7.45213 50 15M33.0001 1C29.7686 1 27.1491 8.83502 27.1491 18.5C27.1491 28.165 29.7686 36 33.0001 36M33.0001 1C36.2315 1 38.8511 8.83502 38.8511 18.5C38.8511 28.165 36.2315 36 33.0001 36M33.0001 36C31.4847 36 29.4027 35.86 28 35.5M33.0001 36C34.5083 36 36.5955 35.8667 38 35.5M23.5 18.5H42.5" stroke="#001E2B" stroke-miterlimit="10"/>
<path d="M1 47H0.5C0.5 47.2761 0.723858 47.5 1 47.5V47ZM16 15.0619L15.9381 14.5657L16 15.0619ZM19.7902 30.5L19.9646 30.9686L19.7902 30.5ZM65 47V47.5C65.2761 47.5 65.5 47.2761 65.5 47H65ZM17 30.5C12.8579 30.5 9.5 27.1421 9.5 23H8.5C8.5 27.6944 12.3056 31.5 17 31.5V30.5ZM17 15.5C21.1421 15.5 24.5 18.8579 24.5 23H25.5C25.5 18.3056 21.6944 14.5 17 14.5V15.5ZM33 46.5H1V47.5H33V46.5ZM1.5 47C1.5 38.4761 8.47614 31.5 17 31.5V30.5C7.92386 30.5 0.5 37.9239 0.5 47H1.5ZM17 31.5C25.5266 31.5 32.5 38.3455 32.5 47H33.5C33.5 37.7878 26.0734 30.5 17 30.5V31.5ZM9.5 23C9.5 19.1757 12.3627 16.0193 16.0619 15.5581L15.9381 14.5657C11.7447 15.0887 8.5 18.665 8.5 23H9.5ZM16.0619 15.5581C16.369 15.5198 16.6821 15.5 17 15.5V14.5C16.6406 14.5 16.2862 14.5223 15.9381 14.5657L16.0619 15.5581ZM24.5 23C24.5 26.2213 22.4689 28.9695 19.6158 30.0314L19.9646 30.9686C23.1965 29.7657 25.5 26.6525 25.5 23H24.5ZM19.6158 30.0314C18.802 30.3342 17.9209 30.5 17 30.5V31.5C18.0418 31.5 19.0409 31.3123 19.9646 30.9686L19.6158 30.0314ZM56.5 23C56.5 27.1421 53.1421 30.5 49 30.5V31.5C53.6944 31.5 57.5 27.6944 57.5 23H56.5ZM49 30.5C44.8579 30.5 41.5 27.1421 41.5 23H40.5C40.5 27.6944 44.3056 31.5 49 31.5V30.5ZM41.5 23C41.5 18.8579 44.8579 15.5 49 15.5V14.5C44.3056 14.5 40.5 18.3056 40.5 23H41.5ZM49 15.5C53.1421 15.5 56.5 18.8579 56.5 23H57.5C57.5 18.3056 53.6944 14.5 49 14.5V15.5ZM65 46.5H33V47.5H65V46.5ZM33.5 47C33.5 38.4761 40.4761 31.5 49 31.5V30.5C39.9239 30.5 32.5 37.9239 32.5 47H33.5ZM49 31.5C57.5266 31.5 64.5 38.3455 64.5 47H65.5C65.5 37.7878 58.0734 30.5 49 30.5V31.5Z" fill="#001E2B"/>
</svg>