<?xml version="1.0" encoding="utf-8"?>
<svg xmlns="http://www.w3.org/2000/svg" width="688" height="440" viewBox="0 0 688 440" fill="none">
<path d="M657.2 79.6105L530.93 79.5605" stroke="#001F2C" stroke-miterlimit="10"/>
<path d="M623.86 93.28L530.93 93.25" stroke="#001F2C" stroke-miterlimit="10"/>
<path d="M490.37 257.99L479.77 278.32L500.1 288.92L510.7 268.59L490.37 257.99Z" fill="#001F2C" stroke="#001F2C" stroke-linecap="round" stroke-linejoin="round"/>
<path d="M480.99 260.949L470.39 281.279L490.72 291.879L501.32 271.549L480.99 260.949Z" fill="#FFB000" stroke="#001F2C" stroke-linecap="round" stroke-linejoin="round"/>
<path d="M490.37 257.99L479.77 278.32L500.1 288.92L510.7 268.59L490.37 257.99Z" fill="#001F2C" stroke="#001F2C" stroke-linecap="round" stroke-linejoin="round"/>
<path d="M480.99 260.949L470.39 281.279L490.72 291.879L501.32 271.549L480.99 260.949Z" fill="#00F24C" stroke="#001F2C" stroke-linecap="round" stroke-linejoin="round"/>
<path d="M428.77 322.82H101.73L70.01 148.59H397.05L428.77 322.82Z" fill="#97FF00" stroke="#001F2C" stroke-linejoin="round"/>
<path d="M101.74 322.82L93.9 336.28L62.17 162.06L70.01 148.59L101.74 322.82Z" fill="#001F2C" stroke="#001F2C" stroke-linejoin="round"/>
<path d="M93.9 336.29H420.93L428.77 322.83H101.74L93.9 336.29Z" fill="#00F24C" stroke="#001F2C" stroke-linejoin="round"/>
<path d="M389.04 277.15L373.01 183.56C371.78 176.39 364.98 170.59 357.81 170.59H206.82C199.65 170.59 194.84 176.4 196.06 183.56L212.09 277.15C213.32 284.32 220.12 290.12 227.29 290.12H378.29C385.46 290.12 390.27 284.31 389.05 277.15H389.04Z" fill="#001F2C"/>
<path d="M577.1 25.2794C577.1 20.9094 573.56 17.3594 569.18 17.3594H279.79C275.42 17.3594 271.87 20.9094 271.87 25.2794V40.3094H577.09V25.2794H577.1ZM284.07 34.3294C281.33 34.3294 279.12 32.1094 279.12 29.3694C279.12 26.6294 281.34 24.4194 284.07 24.4194C286.8 24.4194 289.03 26.6394 289.03 29.3694C289.03 32.0994 286.81 34.3294 284.07 34.3294ZM299.02 34.3294C296.28 34.3294 294.07 32.1094 294.07 29.3694C294.07 26.6294 296.29 24.4194 299.02 24.4194C301.75 24.4194 303.98 26.6394 303.98 29.3694C303.98 32.0994 301.76 34.3294 299.02 34.3294ZM313.97 34.3294C311.23 34.3294 309.02 32.1094 309.02 29.3694C309.02 26.6294 311.24 24.4194 313.97 24.4194C316.7 24.4194 318.93 26.6394 318.93 29.3694C318.93 32.0994 316.71 34.3294 313.97 34.3294Z" fill="#00F24C" stroke="#001F2C" stroke-miterlimit="10"/>
<path d="M271.88 40.3105V215.651C271.88 220.021 275.42 223.571 279.8 223.571H569.18C573.55 223.571 577.1 220.021 577.1 215.651V40.3105H271.88Z" fill="white" stroke="#001F2C" stroke-miterlimit="10"/>
<path d="M284.06 24.4102C281.32 24.4102 279.11 26.6302 279.11 29.3602C279.11 32.0902 281.33 34.3202 284.06 34.3202C286.79 34.3202 289.02 32.1002 289.02 29.3602C289.02 26.6202 286.8 24.4102 284.06 24.4102Z" fill="white" stroke="#001F2C" stroke-miterlimit="10"/>
<path d="M299.01 24.4102C296.27 24.4102 294.06 26.6302 294.06 29.3602C294.06 32.0902 296.28 34.3202 299.01 34.3202C301.74 34.3202 303.97 32.1002 303.97 29.3602C303.97 26.6202 301.75 24.4102 299.01 24.4102Z" fill="white" stroke="#001F2C" stroke-miterlimit="10"/>
<path d="M313.97 24.4102C311.23 24.4102 309.02 26.6302 309.02 29.3602C309.02 32.0902 311.24 34.3202 313.97 34.3202C316.7 34.3202 318.93 32.1002 318.93 29.3602C318.93 26.6202 316.71 24.4102 313.97 24.4102Z" fill="white" stroke="#001F2C" stroke-miterlimit="10"/>
<path d="M195.07 408.949L219.73 336.289H211.49L186.82 408.949H195.07Z" fill="#001F2C" stroke="#001F2C" stroke-linejoin="round"/>
<path d="M297.28 336.289L272.62 408.949H195.07L219.73 336.289H297.28Z" fill="#00F24C" stroke="#001F2C" stroke-linejoin="round"/>
<path d="M139.28 410.98H130.32V416.02H139.28V410.98Z" fill="#00F24C" stroke="#001F2C" stroke-linejoin="round"/>
<path d="M214.84 350.689L292.15 351.419L297.28 336.289H219.73L214.85 350.689H214.84Z" fill="#001F2C" stroke="#001F2C" stroke-linejoin="round"/>
<path d="M273.09 337.83C275.97 334.49 276.39 334.15 280.27 332.07L281.52 331.73L292.01 337.69C291.19 338.04 290.36 338.4 289.53 338.76C287.37 339.72 282.56 343.98 281.18 345.89C262.98 370.98 256.34 371.63 253.87 371.44C243.93 370.66 265.67 346.44 273.09 337.84V337.83Z" fill="#001F2C" stroke="#001F2C" stroke-miterlimit="10"/>
<path d="M252.7 342.561C255.9 339.531 259.32 336.771 263.39 335.081L266.41 333.971L272.06 344.191C271.03 344.501 270 344.821 268.97 345.161C266.73 345.901 261.52 349.651 259.93 351.401C246.75 365.961 241.4 375.591 230.15 374.031C221 372.761 244.44 350.371 252.7 342.561Z" fill="#001F2C" stroke="#001F2C" stroke-miterlimit="10"/>
<path d="M306.68 354.63C308.61 355.86 308.66 358.64 306.78 359.93C302.32 363.01 296.83 362.89 287.48 373.81C279.03 383.67 273.9 372.06 278.77 365.37C283.64 358.68 289.19 356.81 293.13 351.91C296.01 348.33 302.76 352.13 306.69 354.63H306.68Z" fill="#001F2C" stroke="#001F2C" stroke-miterlimit="10"/>
<path d="M247.84 335.57C249.96 333.52 252.18 331.59 254.63 330.01L266.23 337.46C265.63 337.65 265.03 337.85 264.42 338.06C262.15 338.83 257.04 342.87 255.28 344.51C239.7 359.06 232.59 368.94 225.19 367.85C214.28 366.23 239.5 343.62 247.83 335.59V335.57H247.84Z" fill="#FFBE00" stroke="#001F2C" stroke-miterlimit="10"/>
<path d="M425.43 332.121C439.65 333.941 448.51 339.751 458.63 344.681L581.13 413.851L603.22 350.581L450.51 309.001C450.51 309.001 444.81 308.041 444.8 308.031L438.21 306.701C435.9 306.271 438.73 307.881 437.6 309.951L425.44 332.141H425.43V332.121Z" fill="#FFBE00" stroke="#001F2C" stroke-miterlimit="10"/>
<path d="M612.09 359.15V359.64C612.09 360.61 612.08 361.57 612.05 362.54C612.06 362.67 612.05 362.81 612.05 362.94C612.03 363.92 612 364.9 611.94 365.87C611.94 365.96 611.94 366.04 611.93 366.13C611.89 367.08 611.82 368.02 611.74 368.95V369.03C611.71 369.53 611.66 370.02 611.61 370.51C611.61 370.63 611.59 370.74 611.58 370.86C611.56 371.11 611.54 371.37 611.51 371.62C611.41 372.67 611.3 373.69 611.16 374.72C611.07 375.43 610.97 376.13 610.88 376.83C608.56 393.26 602.97 408.63 594.76 422.27L564.82 404.9L549.12 395.8L548.78 395.6L492.35 362.85L491.28 362.23L527.06 330.18L542.2 334.39L542.33 334.42L593.93 348.76L602.98 351.28L611.94 353.78H611.95C611.97 354.11 611.98 354.42 611.99 354.75C612.01 355.08 612.01 355.4 612.02 355.73V356.21C612.06 357.19 612.09 358.17 612.09 359.16H612.1L612.09 359.15Z" fill="#001F2C" stroke="#001F2C" stroke-miterlimit="10"/>
<path d="M411.16 294.089C414.19 292.279 414.61 292.139 418.08 291.529L419.12 291.589L425.57 298.779C424.86 298.839 424.14 298.899 423.42 298.969C421.54 299.149 416.8 301.169 415.27 302.269C395.09 316.709 389.88 315.519 388.05 314.739C380.7 311.619 403.36 298.749 411.18 294.099H411.16V294.089Z" fill="#001F2C" stroke="#001F2C" stroke-miterlimit="10"/>
<path d="M399.78 287.74C403.57 285.82 408.06 285.87 412.27 286.31L415.34 286.75L415.44 298C414.43 297.79 413.4 297.59 412.37 297.4C410.13 296.99 403.98 297.79 401.84 298.54C383.97 304.83 374.02 307.58 366.2 304.03C354.28 298.63 383.52 295.94 399.77 287.72L399.78 287.74Z" fill="#001F2C" stroke="#001F2C" stroke-miterlimit="10"/>
<path d="M399.63 281.25C402.42 280.28 403.62 282.52 406.53 282.78L412.97 294.05C412.38 293.83 411.78 293.62 411.18 293.41C408.91 292.62 402.4 292.66 400.01 292.87C378.78 294.76 367.25 296.7 361.94 292.74C353.05 286.12 380.28 287.98 399.64 281.25H399.62H399.63Z" fill="#FFBE00" stroke="#001F2C" stroke-miterlimit="10"/>
<path d="M382.24 294.471C382.24 294.471 395.83 289.711 390.87 281.681C393.08 279.801 390.1 281.211 390.1 281.211L404.12 289.781C404.12 289.781 404.64 295.901 402.11 295.821C399.58 295.741 382.24 294.471 382.24 294.471Z" fill="#001F2C" stroke="#001F2C" stroke-miterlimit="10"/>
<path d="M432.82 332.171C432.82 332.171 421.05 337.501 399.32 324.301C392.05 319.881 391.63 319.771 388.6 318.571C381.38 315.701 373.37 317.031 372.67 312.601C372.44 311.171 374.31 309.171 376.65 308.411C384.67 305.741 388.53 306.761 406.19 313.431C413.62 314.531 401.99 294.251 390.89 284.941C379.8 275.621 370.01 274.721 360.18 270.251C353.5 267.201 343.83 256.331 372.92 263.941C375.53 264.621 379.56 265.681 384.2 267.291C395.62 271.251 403.24 275.861 406.99 278.391C409.13 279.841 413.41 283.251 420.77 288.721C431.79 296.891 437.08 299.861 444.87 304.451C454.17 309.921 465.68 313.061 465.68 313.061" fill="#FFBE00"/>
<path d="M432.82 332.171C432.82 332.171 421.05 337.501 399.32 324.301C392.05 319.881 391.63 319.771 388.6 318.571C381.38 315.701 373.37 317.031 372.67 312.601C372.44 311.171 374.31 309.171 376.65 308.411C384.67 305.741 388.53 306.761 406.19 313.431C413.62 314.531 401.99 294.251 390.89 284.941C379.8 275.621 370.01 274.721 360.18 270.251C353.5 267.201 343.83 256.331 372.92 263.941C375.53 264.621 379.56 265.681 384.2 267.291C395.62 271.251 403.24 275.861 406.99 278.391C409.13 279.841 413.41 283.251 420.77 288.721C431.79 296.891 437.08 299.861 444.87 304.451C454.17 309.921 465.68 313.061 465.68 313.061" stroke="#001F2C" stroke-linejoin="round"/>
<path d="M612.09 359.139V359.629C612.09 360.599 612.08 361.559 612.05 362.529C612.06 362.659 612.05 362.799 612.05 362.929C612.03 363.909 612 364.889 611.94 365.859C611.94 365.949 611.94 366.029 611.93 366.119C611.89 367.069 611.82 368.009 611.74 368.939V369.019C611.71 369.519 611.66 370.009 611.61 370.499L591.75 385.119L591 385.679L582.64 391.819L565.03 404.759L564.83 404.889L546.52 418.349L540.84 422.529C536.25 425.909 530.44 427.169 524.86 426.019L520.77 425.179L334.79 374.719C332.49 374.099 330.12 373.889 327.75 374.029C312.78 374.859 299.44 369.989 292.69 366.919C290.38 365.869 288.18 364.639 286.06 363.269C281.18 360.069 267.71 351.889 251.09 346.909L251.96 331.089V331.079L257.54 328.459C258.15 328.179 259.56 327.979 261.3 327.829C269.07 327.169 276.9 327.809 284.5 329.619C303.51 334.159 340.18 342.909 341.09 343.169L490.33 362.579H490.34L492.37 362.839L507.52 364.809L536.28 339.709L542.35 334.409L542.72 334.079L579.83 301.709L591.35 291.649L591.38 291.619H591.39C592.02 292.549 592.65 293.509 593.24 294.469C594.44 296.339 595.57 298.239 596.65 300.179C596.92 300.659 597.18 301.139 597.45 301.629C597.54 301.789 597.64 301.969 597.72 302.129C598.69 303.909 599.61 305.709 600.47 307.549C600.67 307.949 600.86 308.369 601.05 308.779L601.37 309.489C601.73 310.259 602.07 311.049 602.41 311.829L604.31 316.539C604.5 317.029 604.68 317.519 604.86 318.019C605.12 318.739 605.38 319.459 605.62 320.179C605.88 320.939 606.14 321.719 606.38 322.489C606.41 322.569 606.43 322.649 606.46 322.729C606.62 323.249 606.79 323.779 606.94 324.309L607.19 325.139C607.35 325.649 607.5 326.179 607.64 326.699L608.21 328.789C608.45 329.679 608.68 330.589 608.89 331.489L609.44 333.939C609.55 334.379 609.64 334.819 609.72 335.259C609.88 336.059 610.04 336.849 610.18 337.649C610.35 338.589 610.52 339.539 610.67 340.499C610.67 340.549 610.68 340.609 610.69 340.659C610.77 341.159 610.84 341.659 610.91 342.179C611.03 342.939 611.13 343.699 611.22 344.459C611.32 345.219 611.41 345.989 611.48 346.749C611.59 347.769 611.69 348.799 611.76 349.819C611.85 350.829 611.91 351.849 611.97 352.869V353.019C611.99 353.269 612 353.529 612.01 353.789C612.03 354.119 612.04 354.429 612.05 354.759C612.07 355.089 612.07 355.409 612.08 355.739V356.219C612.12 357.199 612.15 358.179 612.15 359.169L612.13 359.189L612.09 359.139Z" fill="#FFBE00" stroke="#001F2C" stroke-miterlimit="10"/>
<path d="M251.07 346.911C244.86 344.931 239.71 345.441 233.16 347.971C221.76 352.371 214.52 354.061 210.99 352.381C209.03 351.451 209.07 348.641 211.06 347.781L234.45 335.091C240.11 332.301 240.21 331.391 259.37 330.811" fill="#FFBE00"/>
<path d="M251.07 346.911C244.86 344.931 239.71 345.441 233.16 347.971C221.76 352.371 214.52 354.061 210.99 352.381C209.03 351.451 209.07 348.641 211.06 347.781L234.45 335.091C240.11 332.301 240.21 331.391 259.37 330.811" stroke="#001F2C" stroke-miterlimit="10"/>
<path d="M597.71 302.14C598.67 303.92 599.58 305.74 600.46 307.56C599.6 305.72 598.68 303.91 597.71 302.14ZM611.9 352.99C611.92 353.24 611.93 353.5 611.93 353.76C611.93 353.5 611.91 353.24 611.89 352.99H611.9ZM612.03 356.19V355.71C612.01 355.38 612.01 355.06 611.99 354.73C611.98 354.4 611.97 354.09 611.95 353.76C611.94 353.5 611.93 353.24 611.91 352.99V352.84C611.86 351.82 611.79 350.8 611.7 349.79C611.62 348.77 611.53 347.74 611.42 346.72C611.34 345.96 611.26 345.19 611.16 344.43C611.07 343.67 610.96 342.9 610.85 342.15C610.78 341.64 610.71 341.14 610.63 340.63C610.63 340.58 610.61 340.52 610.61 340.47C610.46 339.51 610.29 338.56 610.12 337.62C609.98 336.82 609.83 336.03 609.66 335.23C609.57 334.79 609.49 334.35 609.38 333.91L608.83 331.46C608.62 330.56 608.39 329.65 608.15 328.76L607.58 326.67C607.44 326.15 607.3 325.62 607.13 325.11L606.88 324.28C606.73 323.75 606.56 323.22 606.4 322.7C606.38 322.62 606.36 322.54 606.32 322.46C606.08 321.69 605.82 320.91 605.56 320.15C605.32 319.43 605.06 318.71 604.8 317.99C604.63 317.49 604.44 317 604.25 316.51L602.35 311.8C602.01 311.02 601.67 310.23 601.31 309.46L600.99 308.75C600.8 308.34 600.61 307.92 600.41 307.52C599.55 305.68 598.63 303.87 597.66 302.1C597.57 301.94 597.47 301.76 597.39 301.6L591.3 291.63L590.75 290.74L579.37 300.95L542.53 334.03L542.16 334.36L536.22 339.69L582.57 391.78L586.34 396.01L587.66 394.97L589.57 393.47L610.83 376.77C610.93 376.06 611.03 375.36 611.11 374.66C611.25 373.64 611.36 372.61 611.46 371.56C611.48 371.31 611.5 371.05 611.53 370.8C611.54 370.68 611.55 370.57 611.56 370.45C611.61 369.96 611.66 369.47 611.69 368.97V368.89C611.77 367.95 611.83 367.02 611.88 366.07C611.89 365.98 611.89 365.9 611.89 365.81C611.94 364.84 611.98 363.86 612 362.88C612 362.75 612.02 362.61 612.01 362.48C612.04 361.51 612.05 360.55 612.05 359.58V359.09C612.05 358.1 612.03 357.12 612 356.14L612.02 356.1L612.03 356.19Z" fill="#FFEE9F" stroke="#001F2C" stroke-miterlimit="10"/>
<path d="M612.09 359.139V359.629C612.09 360.599 612.08 361.559 612.05 362.529C612.06 362.659 612.05 362.799 612.05 362.929C612.03 363.909 612 364.889 611.94 365.859C611.94 365.949 611.94 366.029 611.93 366.119C611.89 367.069 611.82 368.009 611.74 368.939V369.019C611.71 369.519 611.66 370.009 611.61 370.499C611.61 370.619 611.59 370.729 611.58 370.849C611.56 371.099 611.54 371.359 611.51 371.609C611.41 372.659 611.3 373.679 611.16 374.709C611.07 375.419 610.97 376.119 610.88 376.819L589.62 393.519C590.43 390.759 591.12 387.969 591.73 385.129C591.99 383.899 592.24 382.659 592.47 381.419V381.389C593.78 374.179 594.45 366.749 594.42 359.159C594.41 355.669 594.25 352.189 593.94 348.769C593.93 348.529 593.91 348.279 593.87 348.039C592.3 331.399 587.39 315.749 579.82 301.739C579.69 301.499 579.56 301.249 579.42 301.009L590.81 290.779C591.01 291.059 591.2 291.349 591.39 291.639C592.02 292.579 592.64 293.529 593.25 294.489C594.44 296.349 595.57 298.259 596.66 300.199C596.93 300.679 597.19 301.159 597.46 301.649C597.55 301.809 597.65 301.989 597.73 302.149C598.69 303.929 599.6 305.749 600.48 307.569C600.68 307.969 600.87 308.389 601.06 308.799L601.38 309.509C601.74 310.279 602.08 311.069 602.42 311.849L604.32 316.559C604.51 317.049 604.69 317.539 604.87 318.039C605.13 318.759 605.39 319.479 605.63 320.199C605.89 320.959 606.15 321.739 606.39 322.509C606.42 322.589 606.44 322.669 606.47 322.749C606.63 323.269 606.8 323.799 606.95 324.329L607.2 325.159C607.36 325.669 607.51 326.199 607.65 326.719L608.22 328.809C608.46 329.699 608.69 330.609 608.9 331.509L609.45 333.959C609.56 334.399 609.65 334.839 609.73 335.279C609.89 336.079 610.05 336.869 610.19 337.669C610.36 338.609 610.53 339.559 610.68 340.519C610.68 340.569 610.69 340.629 610.7 340.679C610.78 341.179 610.85 341.679 610.92 342.199C611.04 342.959 611.14 343.719 611.23 344.479C611.33 345.239 611.42 346.009 611.49 346.769C611.6 347.789 611.7 348.819 611.77 349.839C611.86 350.849 611.92 351.869 611.98 352.889V353.039C612 353.289 612.01 353.549 612.02 353.809C612.04 354.139 612.05 354.449 612.06 354.779C612.08 355.109 612.08 355.429 612.09 355.759V356.239C612.13 357.219 612.16 358.199 612.16 359.189L612.14 359.219L612.09 359.139Z" fill="#001F2C" stroke="#001F2C" stroke-miterlimit="10"/>
<path d="M388.27 408.949H181.65V418.239H388.27V408.949Z" fill="#00F24C" stroke="#001F2C" stroke-linejoin="round"/>
<path d="M181.65 408.949H129.03V418.239H181.65V408.949Z" fill="#001F2C" stroke="#001F2C" stroke-linejoin="round"/>
<path d="M448.03 95.1592L438.28 97.0592L436.46 87.7192C435.75 84.0892 434.34 80.6392 432.3 77.5492C430.26 74.4592 427.63 71.8192 424.56 69.7492C421.49 67.6792 418.05 66.2492 414.43 65.5092C410.81 64.7692 407.08 64.7592 403.45 65.4692C399.83 66.1792 396.37 67.5992 393.28 69.6292C390.24 71.6392 387.63 74.2192 385.58 77.2292C385.61 77.1692 385.65 77.0992 385.68 77.0392C385.64 77.1092 385.6 77.1892 385.56 77.2592C385.54 77.2892 385.51 77.3292 385.49 77.3592C383.42 80.4292 381.99 83.8692 381.25 87.4892C380.51 91.1092 380.5 94.8392 381.21 98.4692L383.03 107.809L373.28 109.709L367.71 117.369L381.69 189.109L456.43 174.539L462 166.879L448.02 95.1392V95.1592H448.03ZM414.44 78.2792C413.56 77.9792 412.62 77.7092 411.6 77.4992C412.57 77.6692 413.52 77.9292 414.44 78.2792ZM393.3 96.1492C392.49 92.0192 393.36 87.7492 395.72 84.2592C398.07 80.7692 401.71 78.3692 405.84 77.5592C407.77 77.1792 409.72 77.1792 411.61 77.5092C420.29 80.3892 422.6 85.1392 424.04 92.7492C424.61 95.7792 425.29 99.2792 425.29 99.2792L426.19 99.1092L426.25 99.4192L395.13 105.479L393.31 96.1392L393.3 96.1492Z" fill="#001F2C" stroke="#001F2C" stroke-linejoin="round"/>
<path d="M398.97 67.1406C398.2 63.1706 398.21 59.0906 399.02 55.1306C399.83 51.1706 401.41 47.4006 403.66 44.0506C405.92 40.6906 408.82 37.8206 412.19 35.5806C415.57 33.3406 419.34 31.8006 423.32 31.0306C427.29 30.2606 431.38 30.2706 435.33 31.0806C439.29 31.8906 443.06 33.4706 446.41 35.7206C449.77 37.9806 452.64 40.8806 454.88 44.2506C457.12 47.6306 458.67 51.4006 459.43 55.3706L466.04 89.2606C466.37 90.9606 463.68 92.9106 460.04 93.6106C456.39 94.3206 453.17 93.5206 452.84 91.8206L446.23 57.9306C445.35 53.4206 442.71 49.4306 438.9 46.8706C435.09 44.3006 430.4 43.3506 425.89 44.2306C421.38 45.1106 417.39 47.7506 414.83 51.5606C412.26 55.3706 411.31 60.0606 412.19 64.5706L418.8 98.4606C419.13 100.161 416.44 102.111 412.8 102.811C409.15 103.521 405.93 102.721 405.6 101.021L398.99 67.1306H398.97V67.1406Z" fill="#00D5FF" stroke="#001F2C" stroke-miterlimit="10"/>
<path d="M390.3 79.4302L472.09 63.4902L487.39 141.99L405.6 157.93L390.3 79.4302Z" fill="#00D5FF" stroke="#001F2C" stroke-linejoin="round"/>
<path d="M434.08 118.58L436.35 130.21L448.47 127.84L446.2 116.21C448.4 114.38 449.94 111.87 450.55 109.08C451.17 106.28 450.84 103.37 449.61 100.78C448.38 98.1903 446.34 96.1004 443.78 94.8004C441.22 93.5104 438.32 93.1004 435.51 93.6504C432.7 94.2004 430.16 95.6703 428.28 97.8103C426.4 99.9703 425.28 102.68 425.12 105.54C424.96 108.4 425.75 111.22 427.37 113.58C428.99 115.94 431.36 117.68 434.08 118.55V118.57V118.58Z" fill="white" stroke="#00222F" stroke-miterlimit="10"/>
<path d="M444.98 104.959C445.42 107.229 445.24 109.569 444.46 111.749C443.68 113.929 442.33 115.849 440.56 117.319L442.83 128.949L448.48 127.849L446.21 116.219C448.41 114.389 449.92 111.889 450.53 109.099C451.14 106.309 450.81 103.399 449.59 100.819C448.37 98.2391 446.32 96.1391 443.78 94.8491C441.23 93.5591 438.33 93.1391 435.53 93.6791C434.58 93.8691 433.65 94.1591 432.76 94.5491C435.67 94.6491 438.46 95.7291 440.68 97.6291C442.9 99.5191 444.4 102.099 444.96 104.959H444.97H444.98Z" fill="#001E2B"/>
<path d="M403.71 76.5195L401.2 63.8195C399.26 53.9795 401.09 48.8095 403.87 43.6895C397.64 54.6795 398.31 62.1095 398.96 65.3995L401.25 77.0095L403.72 76.5195H403.71Z" fill="#001F2C" stroke="#001F2C" stroke-miterlimit="10"/>
<path d="M449.88 67.4702C448.13 57.8202 445.68 46.9302 432.2 44.1602C441.7 47.3102 444.24 52.5102 445.8 60.8402C446.43 64.1702 447.17 67.9802 447.17 67.9802L449.89 67.4602L449.88 67.4702Z" fill="#001F2C" stroke="#001F2C" stroke-miterlimit="10"/>
<path d="M487.39 142L481.29 150.38L399.5 166.33L405.6 157.94L487.39 142Z" fill="#001F2C" stroke="#001F2C" stroke-linejoin="round"/>
<path d="M390.3 79.4297L405.6 157.93L399.5 166.32L384.2 87.8097L390.3 79.4297Z" fill="#001F2C" stroke="#001F2C" stroke-linejoin="round"/>
<path d="M322.52 70.0508C322.33 70.3208 322.13 70.5908 321.94 70.8608" stroke="#001F2C" stroke-miterlimit="10"/>
<path d="M320.74 72.4201C305.57 91.2601 277.76 93.9001 250.88 73.1701C221 49.6701 195.19 53.1501 182.41 67.6401" stroke="#001F2C" stroke-miterlimit="10"/>
<path d="M181.76 68.4102C181.55 68.6702 181.34 68.9302 181.14 69.1902" stroke="#001F2C" stroke-miterlimit="10"/>
<path d="M176.19 90.6292L152.23 90.7892L139.28 67.0392L162.87 66.1992L176.19 90.6292Z" fill="#00222F" stroke="#001F2C" stroke-linejoin="round"/>
<path d="M176.24 90.6008L189.35 70.5508L176.4 46.8008L162.92 66.1708L176.24 90.6008Z" fill="white" stroke="#001F2C" stroke-linejoin="round"/>
<path d="M152.91 47.9408L139.28 67.0408L162.92 66.1708L176.4 46.8008L152.91 47.9408Z" fill="white" stroke="#001F2C" stroke-linejoin="round"/>
<path d="M225.58 406.391H211.23V408.781H225.58V406.391Z" fill="#001F2C" stroke="#001F2C" stroke-linejoin="round"/>
<path d="M207.65 406.391H193.3V408.781H207.65V406.391Z" fill="#001F2C" stroke="#001F2C" stroke-linejoin="round"/>
<path d="M243.52 406.391H229.17V408.781H243.52V406.391Z" fill="#001F2C" stroke="#001F2C" stroke-linejoin="round"/>
<path d="M304.5 406.391H247.7V408.781H304.5V406.391Z" fill="#001F2C" stroke="#001F2C" stroke-linejoin="round"/>
<path d="M324.23 406.391H309.88V408.781H324.23V406.391Z" fill="#001F2C" stroke="#001F2C" stroke-linejoin="round"/>
<path d="M342.76 406.391H328.41V408.781H342.76V406.391Z" fill="#001F2C" stroke="#001F2C" stroke-linejoin="round"/>
<path d="M361.3 406.391H346.95V408.781H361.3V406.391Z" fill="#001F2C" stroke="#001F2C" stroke-linejoin="round"/>
</svg>