<svg width="1279" height="800" viewBox="0 0 1279 800" fill="none" xmlns="http://www.w3.org/2000/svg">
<g clip-path="url(#clip0_4283_408)">
<rect width="1280" height="800" fill="#00684A"/>
<path d="M600.14 590.47C594.06 590.08 588.22 593.73 586.11 599.76L559.33 676.12C558.33 678.96 555.66 680.86 552.65 680.85L472.6 680.8C470.11 680.8 467.77 681.46 465.75 682.61C462.43 684.13 459.7 686.94 458.39 690.66L415.63 812.12L442.01 821.39L481.18 709.94C481.44 709.2 482.14 708.71 482.92 708.71L572.88 708.82C575.9 708.82 578.59 706.91 579.58 704.05L608.42 620.51C608.87 619.2 610.1 618.32 611.49 618.33L706.3 618.45V590.48L600.98 590.42C600.7 590.42 600.43 590.45 600.15 590.46L600.14 590.47Z" fill="#B1FF05" stroke="black" stroke-linecap="round" stroke-linejoin="round"/>
<path d="M612.089 609.96H605.479C604.129 609.96 602.929 610.8 602.479 612.08L600.299 618.3L572.969 696.38C572.119 698.81 569.819 700.44 567.239 700.44L484.759 700.34H480.599C477.769 700.34 475.249 702.12 474.319 704.78L472.939 708.7L434.109 819.22L442.009 822L481.819 708.72L573.719 708.83C576.219 708.83 578.449 707.25 579.269 704.88L608.429 620.42C608.859 619.17 610.039 618.34 611.349 618.34L706.269 618.46V610.09L612.069 609.97L612.089 609.96Z" fill="black" stroke="black" stroke-miterlimit="10"/>
<path d="M1129.76 273.88L1162.8 299.16L1158.17 312.07L1181.42 328.6L1176.81 341.53L1200.06 358.06L1195.45 370.97L1218.74 387.5L1119.3 660.05L1089.9 660.02L1079.12 689.46L1049.74 689.41L1039 718.82L1009.62 718.8L998.891 748.23L726.551 747.8L693.461 722.53L699.301 710.54L674.801 693.03L680.421 682.06L656.161 663.57L661.781 652.57L637.561 634.09L1129.76 273.88Z" fill="black" stroke="black" stroke-linecap="round" stroke-linejoin="round"/>
<path d="M1156.28 362.24L1167.02 332.79L1137.64 332.74L1148.38 303.33L1119.04 303.28L1129.76 273.89L857.341 273.46L846.621 302.85L817.221 302.8L806.481 332.21L777.101 332.16L766.361 361.59L737.001 361.54L637.561 634.09L666.961 634.13H666.901L656.161 663.57L685.541 663.62L674.801 693.03L704.201 693.08L693.461 722.53L965.801 722.95L976.541 693.52L1005.92 693.55L1016.66 664.14L1046.04 664.19L1056.78 634.76H1056.82L1086.22 634.78L1185.66 362.23L1156.26 362.19L1156.29 362.25L1156.28 362.24Z" fill="black"/>
<path d="M806.481 332.26H806.461M1156.28 362.24L1167.02 332.79L1137.64 332.74L1148.38 303.33L1119.04 303.28L1129.76 273.89L857.341 273.46L846.621 302.85L817.221 302.8L806.481 332.21L777.101 332.16L766.361 361.59L737.001 361.54L637.561 634.09L666.961 634.13H666.901L656.161 663.57L685.541 663.62L674.801 693.03L704.201 693.08L693.461 722.53L965.801 722.95L976.541 693.52L1005.92 693.55L1016.66 664.14L1046.04 664.19L1056.78 634.76H1056.82L1086.22 634.78L1185.66 362.23L1156.26 362.19L1156.29 362.25L1156.28 362.24Z" stroke="black" stroke-linecap="round" stroke-linejoin="round"/>
<path d="M716 711.77L655.17 615.52L766.38 361.6L846.6 302.88L883.63 288.66L1102.33 288.76L1118.98 303.32L1156.28 362.24L1160.32 392.5L1075.29 622.43L1056.85 634.77L976.57 693.56L940.11 711.59L716 711.77Z" fill="#E9FF99" stroke="black" stroke-linecap="round" stroke-linejoin="round"/>
<path d="M777.07 332.18L806.49 332.22L795.75 361.65L766.33 361.61L777.07 332.18Z" fill="#00ED64" stroke="black" stroke-linecap="round" stroke-linejoin="round"/>
<path d="M817.19 302.79L846.61 302.83L835.87 332.28L806.45 332.24L817.19 302.79Z" fill="#00ED64" stroke="black" stroke-linecap="round" stroke-linejoin="round"/>
<path d="M1148.34 303.33L1137.6 332.76L1108.2 332.71L1118.94 303.28L1148.34 303.33Z" fill="#00ED64" stroke="black" stroke-linecap="round" stroke-linejoin="round"/>
<path d="M1167 332.79L1156.26 362.22L1126.86 362.17L1137.6 332.74L1167 332.79Z" fill="#00ED64" stroke="black" stroke-linecap="round" stroke-linejoin="round"/>
<path d="M1046.09 664.22L1016.67 664.18L1027.41 634.75L1056.83 634.79L1046.09 664.22Z" fill="#00ED64" stroke="black" stroke-linecap="round" stroke-linejoin="round"/>
<path d="M1005.96 693.58L976.54 693.54L987.28 664.11L1016.7 664.15L1005.96 693.58Z" fill="#00ED64" stroke="black" stroke-linecap="round" stroke-linejoin="round"/>
<path d="M674.82 693.07L685.56 663.64L714.96 663.69L704.22 693.12L674.82 693.08V693.07Z" fill="#00ED64" stroke="black" stroke-linecap="round" stroke-linejoin="round"/>
<path d="M656.16 663.61L666.9 634.18L696.32 634.22L685.56 663.65L656.16 663.6V663.61Z" fill="#00ED64" stroke="black" stroke-linecap="round" stroke-linejoin="round"/>
<path d="M857.34 273.45L1129.72 273.89L1118.98 303.32L846.6 302.88L857.34 273.45Z" fill="#00ED64" stroke="black" stroke-linecap="round" stroke-linejoin="round"/>
<path d="M704.23 693.14L976.57 693.56L965.83 722.99L693.49 722.57L704.23 693.14Z" fill="#00ED64" stroke="black" stroke-linecap="round" stroke-linejoin="round"/>
<path d="M1185.68 362.28L1086.26 634.81L1056.84 634.77L1156.28 362.24L1185.68 362.29V362.28Z" fill="#00ED64" stroke="black" stroke-linecap="round" stroke-linejoin="round"/>
<path d="M766.38 361.6L666.94 634.15L637.54 634.1L736.98 361.55L766.38 361.6Z" fill="#00ED64" stroke="black" stroke-linecap="round" stroke-linejoin="round"/>
<path d="M940.21 543.4L850.09 543.27L883.01 453.04L973.14 453.19L940.22 543.4H940.21Z" fill="#B1FF05" stroke="black" stroke-linecap="round" stroke-linejoin="round"/>
<path d="M907.82 384.99L997.95 385.14L985.55 419.16L895.4 419.01L907.82 384.99Z" fill="#00ED64" stroke="black" stroke-linecap="round" stroke-linejoin="round"/>
<path d="M925.22 331.9L1015.35 332.05L1005.45 359.2L915.3 359.05L925.22 331.9Z" fill="#00ED64" stroke="black" stroke-linecap="round" stroke-linejoin="round"/>
<path d="M837.66 577.29L927.81 577.42L915.39 611.46L825.24 611.31L837.66 577.29Z" fill="#00ED64" stroke="black" stroke-linecap="round" stroke-linejoin="round"/>
<path d="M817.49 635.98L907.64 636.11L895.85 666.46L805.7 666.31L817.5 635.98H817.49Z" fill="#00ED64" stroke="black" stroke-linecap="round" stroke-linejoin="round"/>
<path d="M1041.11 453.29L1008.21 543.52L974.2 543.46L1007.12 453.25L1041.11 453.29Z" fill="#00ED64" stroke="black" stroke-linecap="round" stroke-linejoin="round"/>
<path d="M1095.62 452.27L1062.72 542.5L1033.62 542.45L1066.54 452.24L1095.61 452.27H1095.62Z" fill="#00ED64" stroke="black" stroke-linecap="round" stroke-linejoin="round"/>
<path d="M787.44 452.27L754.54 542.5L725.44 542.45L758.36 452.24L787.43 452.27H787.44Z" fill="#00ED64" stroke="black" stroke-linecap="round" stroke-linejoin="round"/>
<path d="M848.98 452.98L816.09 543.2L782.1 543.14L815 452.94L848.99 452.98H848.98Z" fill="#00ED64" stroke="black" stroke-linecap="round" stroke-linejoin="round"/>
<path d="M816.09 543.21L850.08 543.27L837.66 577.29L803.67 577.23L816.09 543.21Z" fill="#00ED64" stroke="black" stroke-linecap="round" stroke-linejoin="round"/>
<path d="M985.54 419.17L1019.53 419.21L1007.11 453.25L973.12 453.19L985.54 419.17Z" fill="#00ED64" stroke="black" stroke-linecap="round" stroke-linejoin="round"/>
<path d="M861.41 418.96L895.4 419.02L883 453.04L848.99 453L861.41 418.96Z" fill="#00ED64" stroke="black" stroke-linecap="round" stroke-linejoin="round"/>
<path d="M940.211 543.4L974.201 543.46L961.801 577.48L927.811 577.42L940.211 543.4Z" fill="#00ED64" stroke="black" stroke-linecap="round" stroke-linejoin="round"/>
<path d="M871.96 441.36L881.22 449.28C888.07 455.13 886.39 468.35 877.49 478.78C868.59 489.22 855.81 492.95 848.96 487.1L839.7 479.18" fill="black"/>
<path d="M713.12 374.57C717.54 383.53 723.74 391.47 731.33 397.95L831.17 483.28C840.4 491.17 857.63 486.15 869.63 472.06C881.64 457.97 883.9 440.17 874.66 432.29L774.82 346.96C767.23 340.48 758.42 335.62 748.9 332.64L709.15 320.24L694.66 337.21L713.13 374.56H713.11L713.12 374.57Z" fill="black" stroke="black" stroke-linecap="round" stroke-linejoin="round"/>
<path d="M736.909 391.37L836.75 476.7C845.24 483.96 860.51 480.26 872.25 468.65C881.88 455.22 883.13 439.56 874.64 432.29L774.799 346.96C767.209 340.48 758.4 335.62 748.88 332.64L709.13 320.24L700.27 330.64L718.74 367.99C723.17 376.93 729.36 384.89 736.95 391.37H736.909Z" fill="white" stroke="black" stroke-linecap="round" stroke-linejoin="round"/>
<path d="M849.189 410.52C858.419 418.41 856.169 436.22 844.159 450.29C832.149 464.38 814.929 469.38 805.689 461.51" stroke="black" stroke-linecap="round" stroke-linejoin="round"/>
<path d="M823.71 388.75C832.94 396.64 830.69 414.45 818.68 428.52C806.67 442.61 789.45 447.61 780.21 439.74" stroke="black" stroke-linecap="round" stroke-linejoin="round"/>
<path d="M798.229 366.98C807.459 374.87 805.21 392.68 793.2 406.75C781.19 420.84 763.969 425.84 754.729 417.97" stroke="black" stroke-linecap="round" stroke-linejoin="round"/>
<path d="M709.13 320.25L585.23 214.37L570.74 231.34L694.62 337.21C697.69 339.84 703.43 338.17 707.42 333.47C711.43 328.78 712.18 322.85 709.09 320.23L709.12 320.25H709.13Z" fill="black" stroke="black" stroke-linecap="round" stroke-linejoin="round"/>
<path d="M709.06 331.24C711.58 327.05 711.74 322.46 709.13 320.24L585.25 214.36L574.34 227.15L698.22 333.02C700.81 335.24 705.32 334.38 709.06 331.24Z" fill="#006CFA" stroke="black" stroke-linecap="round" stroke-linejoin="round"/>
<path d="M648.959 268.83L652.359 200.87C652.449 199.1 651.719 197.39 650.359 196.25L612.119 163.58C609.009 160.92 604.209 162.31 602.969 166.2L587.169 216.04L586.399 222.82L648.959 268.84V268.83Z" fill="black" stroke="black" stroke-linecap="round" stroke-linejoin="round"/>
<path d="M634.49 285.81L567.95 299.81C566.21 300.18 564.43 299.71 563.07 298.57L524.83 265.9C521.72 263.24 522.34 258.28 525.99 256.45L572.7 233.02L634.49 285.82V285.81Z" fill="black" stroke="black" stroke-linecap="round" stroke-linejoin="round"/>
<path d="M664.359 289.4L723.279 246.43C726.269 244.26 726.429 239.87 723.639 237.46L679.949 200.12C678.499 198.88 676.539 198.45 674.719 198.97L587.149 223.42L664.359 289.41V289.39V289.4Z" fill="#B1FF05" stroke="black" stroke-linecap="round" stroke-linejoin="round"/>
<path d="M657.04 298L623.87 362.95C622.19 366.24 617.89 367.09 615.08 364.7L571.39 327.36C569.94 326.12 569.21 324.24 569.43 322.36L579.83 232L657.04 297.99V298Z" fill="#B1FF05" stroke="black" stroke-linecap="round" stroke-linejoin="round"/>
<path d="M570.76 231.35C567.69 228.72 568.43 222.79 572.43 218.11C576.43 213.43 582.17 211.74 585.25 214.38C588.32 217.01 587.58 222.94 583.58 227.62C579.57 232.31 573.84 233.99 570.76 231.35Z" fill="#00D2FF" stroke="black" stroke-linecap="round" stroke-linejoin="round"/>
<path d="M905.54 497.52L878.58 469.95L868.93 481.25L900.36 503.58C902.04 504.78 904.37 504.48 905.7 502.92C907.04 501.34 906.97 498.99 905.52 497.51H905.54V497.52Z" fill="black" stroke="black" stroke-linecap="round" stroke-linejoin="round"/>
<path d="M633.32 775.67C640.12 775.67 645.63 770.16 645.63 763.36C645.63 756.56 640.12 751.05 633.32 751.05C626.52 751.05 621.01 756.56 621.01 763.36C621.01 770.16 626.52 775.67 633.32 775.67Z" fill="white" stroke="black" stroke-linecap="round" stroke-linejoin="round"/>
<path d="M642.32 755.15C642.32 755.15 642.17 770.25 626.13 773.04C629.73 775.73 638.3 776.61 642.67 770.74C647.04 764.87 644.64 757.94 642.32 755.15Z" fill="black" stroke="black" stroke-linecap="round" stroke-linejoin="round"/>
<path d="M1129.57 696.98L1108.35 721.51C1102.28 728.52 1109.2 744.44 1123.8 757.07C1138.4 769.7 1155.15 774.25 1161.22 767.24L1182.44 742.71" fill="#00ED64"/>
<path d="M1129.57 696.98L1108.35 721.51C1102.28 728.52 1109.2 744.44 1123.8 757.07C1138.4 769.7 1155.15 774.25 1161.22 767.24L1182.44 742.71" stroke="black" stroke-miterlimit="10"/>
<path d="M1118.72 709.52C1112.65 716.53 1119.56 732.45 1134.17 745.08C1148.77 757.71 1165.52 762.26 1171.59 755.25" stroke="black" stroke-miterlimit="10"/>
<path d="M1182.42 742.74L1161.24 767.23C1158.8 770.05 1154.64 771 1149.58 770.3L1183.82 730.72C1185.24 735.62 1184.88 739.89 1182.42 742.74Z" fill="black" stroke="black" stroke-miterlimit="10"/>
<path d="M1182.44 742.72C1188.51 735.71 1181.59 719.78 1166.99 707.15C1152.39 694.52 1135.63 689.97 1129.57 696.98C1123.5 703.99 1130.42 719.92 1145.02 732.55C1159.62 745.18 1176.38 749.73 1182.44 742.72Z" fill="white" stroke="black" stroke-miterlimit="10"/>
<path d="M1161.15 713.91C1163.85 716.25 1165.13 719.2 1164.01 720.49L1160.08 725.03C1158.96 726.33 1155.85 725.47 1153.15 723.14C1150.45 720.81 1149.17 717.86 1150.29 716.56L1154.22 712.02C1155.34 710.73 1158.45 711.57 1161.15 713.91Z" fill="#B1FF05" stroke="black" stroke-miterlimit="10"/>
<path d="M1164.01 720.48L1160.08 725.02C1159.16 726.08 1156.93 725.71 1154.66 724.26L1163.25 716.22C1164.42 717.93 1164.78 719.59 1164.01 720.48Z" fill="black" stroke="black" stroke-miterlimit="10"/>
<path d="M1200.07 668.9C1214.67 681.53 1221.59 697.46 1215.52 704.47L1194.31 728.99C1188.24 736.01 1171.49 731.45 1156.89 718.82C1142.29 706.19 1135.37 690.27 1141.44 683.26L1162.65 658.74C1168.72 651.73 1185.47 656.27 1200.07 668.9Z" fill="#00ED64" stroke="black" stroke-miterlimit="10"/>
<path d="M1215.52 704.47L1194.31 728.99C1191.87 731.81 1187.71 732.76 1182.65 732.06L1216.89 692.48C1218.31 697.38 1217.96 701.65 1215.52 704.47Z" fill="black" stroke="black" stroke-miterlimit="10"/>
<path d="M1215.52 704.47C1221.59 697.46 1214.67 681.53 1200.07 668.9C1185.47 656.27 1168.71 651.72 1162.65 658.73C1156.58 665.74 1163.5 681.67 1178.1 694.3C1192.7 706.93 1209.45 711.48 1215.52 704.47Z" fill="white" stroke="black" stroke-miterlimit="10"/>
<path d="M1194.24 675.66C1196.94 678 1198.22 680.95 1197.1 682.25L1193.17 686.79C1192.05 688.09 1188.94 687.23 1186.24 684.9C1183.54 682.57 1182.26 679.62 1183.38 678.32L1187.31 673.78C1188.43 672.48 1191.54 673.33 1194.24 675.66Z" fill="#B1FF05" stroke="black" stroke-miterlimit="10"/>
<path d="M1197.09 682.24L1193.16 686.78C1192.24 687.84 1190 687.47 1187.74 686.02L1196.33 677.98C1197.5 679.69 1197.86 681.35 1197.08 682.24H1197.09Z" fill="black" stroke="black" stroke-miterlimit="10"/>
<path d="M1195.73 620.49L1174.52 645.01C1168.45 652.02 1175.36 667.94 1189.97 680.57C1204.57 693.2 1221.33 697.75 1227.39 690.74L1248.6 666.22" fill="#00ED64"/>
<path d="M1195.73 620.49L1174.52 645.01C1168.45 652.02 1175.36 667.94 1189.97 680.57C1204.57 693.2 1221.33 697.75 1227.39 690.74L1248.6 666.22" stroke="black" stroke-miterlimit="10"/>
<path d="M1185.13 632.75C1179.06 639.76 1185.97 655.68 1200.58 668.31C1215.18 680.94 1231.94 685.49 1238 678.48" stroke="black" stroke-miterlimit="10"/>
<path d="M1152.04 671C1145.97 678.01 1152.89 693.93 1167.49 706.56C1182.09 719.19 1198.84 723.74 1204.91 716.73" stroke="black" stroke-miterlimit="10"/>
<path d="M1248.6 666.23L1227.38 690.76C1224.94 693.58 1220.78 694.53 1215.72 693.83L1249.96 654.25C1251.38 659.15 1251.03 663.41 1248.6 666.23Z" fill="black" stroke="black" stroke-miterlimit="10"/>
<path d="M1248.61 666.22C1254.68 659.21 1247.76 643.28 1233.16 630.65C1218.56 618.02 1201.8 613.47 1195.74 620.48C1189.67 627.49 1196.59 643.42 1211.19 656.05C1225.79 668.68 1242.54 673.23 1248.61 666.22Z" fill="white" stroke="black" stroke-miterlimit="10"/>
<path d="M438.27 684.73L447.08 709.7C453.27 707.85 458.04 708.18 461.48 710.72C464.69 713.12 467.51 716.31 469.72 720.04C471.91 723.74 475.5 732.69 480.49 746.88C485.02 759.73 489.37 768.67 493.54 773.7C497.63 778.66 502.93 781.81 508.33 782.5C515.08 783.08 521.68 782.18 527.81 779.84L551.19 771.59L525.33 752.63C518.66 754.98 514.16 755.75 511.74 754.87C510.57 754.46 509.46 753.76 508.46 752.84C507.46 751.91 506.61 750.77 505.95 749.49L493.95 719.72C490.11 710.05 486.17 703 482.12 698.57C477.98 694.23 473.16 691.04 468.08 689.3L466.77 688.87C470 684.2 472.03 678.41 472.67 672.06C472.9 666.94 472.35 661.67 471.05 656.5C469.79 651.29 466.39 640.3 460.84 623.52C460.15 621.52 459.59 619.48 459.17 617.42C458.57 615.05 458.52 612.62 459.03 610.42C459.6 608.58 461.94 606.66 466.08 604.72C467.8 603.91 469.82 603.09 472.14 602.28L479.75 571.52L458.98 578.84C452.95 580.67 447.32 583.62 442.27 587.59C438.9 590.5 436.4 594.6 435.04 599.45C434.65 600.99 434.38 602.59 434.24 604.23C433.9 607.89 434.2 611.71 435.11 615.46C437.35 624.42 440.09 633.27 443.31 641.95C448.74 657.36 450.74 667.81 449.29 673.3C448.73 675.46 447.79 677.39 446.52 678.97C444.29 681.73 441.46 683.7 438.26 684.72L438.27 684.73Z" fill="#006CFA" stroke="black" stroke-linecap="round" stroke-linejoin="round"/>
<path d="M458.21 677.7L467.02 702.67C473.21 700.82 477.98 701.15 481.42 703.69C484.63 706.09 487.45 709.28 489.66 713.01C491.85 716.71 495.44 725.66 500.43 739.85C504.96 752.7 509.31 761.64 513.48 766.67C517.57 771.63 522.87 774.78 528.27 775.47C535.02 776.05 541.62 775.15 547.75 772.81L554.08 770.58L545.27 745.61C538.6 747.96 534.1 748.73 531.68 747.85C530.51 747.44 529.4 746.74 528.4 745.82C527.4 744.89 526.55 743.75 525.89 742.47L513.89 712.7C510.05 703.03 506.11 695.98 502.06 691.55C497.92 687.21 493.1 684.02 488.02 682.28L486.71 681.85C489.94 677.18 491.97 671.39 492.61 665.04C492.84 659.92 492.29 654.65 490.99 649.48C489.73 644.27 486.33 633.28 480.78 616.5C480.09 614.5 479.53 612.46 479.11 610.4C478.51 608.03 478.46 605.6 478.97 603.4C479.54 601.56 481.88 599.64 486.02 597.7C487.74 596.89 489.76 596.07 492.08 595.26L483.27 570.29L478.92 571.82C472.89 573.65 467.26 576.6 462.21 580.57C458.84 583.48 456.34 587.58 454.98 592.43C454.59 593.97 454.32 595.57 454.18 597.21C453.84 600.87 454.14 604.69 455.05 608.44C457.29 617.4 460.03 626.25 463.25 634.93C468.68 650.34 470.68 660.79 469.23 666.28C468.67 668.44 467.73 670.37 466.46 671.95C464.23 674.71 461.4 676.68 458.2 677.7H458.21Z" fill="#00D2FF" stroke="black" stroke-linecap="round" stroke-linejoin="round"/>
<path d="M458.244 677.654L438.308 684.686L447.116 709.658L467.052 702.626L458.244 677.654Z" fill="#006CFA" stroke="black" stroke-miterlimit="10"/>
<path d="M1197.5 130.2C1197.5 130.2 991.8 192.29 946.67 393.75C946.67 393.75 1032.09 231.78 1174.75 231.78L1197.5 130.21V130.2Z" fill="#00ED64" stroke="black" stroke-miterlimit="10"/>
<path d="M946.67 393.74C1005.27 244.52 1133.68 180.99 1133.68 180.99L1187.22 184.84L1174.75 231.77C1174.75 231.77 1047.49 220.31 946.67 393.74Z" fill="#B1FF05" stroke="black" stroke-linecap="round" stroke-linejoin="round"/>
<path d="M1238.56 180.97L1210.7 187.76C1200.83 190.17 1191.98 197.22 1187.47 206.25L1174.74 231.76L1173.44 206.12C1173.34 204.05 1172.95 202.11 1172.3 200.3C1170.55 195.25 1166.88 191.24 1161.84 188.98C1160.82 188.51 1159.72 188.13 1158.61 187.81L1133.68 180.99L1161.59 174.17C1169.12 172.33 1176.05 167.77 1180.9 161.7C1182.37 159.86 1183.66 157.87 1184.72 155.75L1197.49 130.19L1198.82 156.02C1199.07 160.77 1200.77 164.96 1203.65 168.17C1206.13 170.96 1209.47 173.02 1213.44 174.12L1238.56 181.01V180.96V180.97Z" fill="white" stroke="black" stroke-linecap="round" stroke-linejoin="round"/>
<path d="M1242.37 238.78L1227.79 242.34C1222.62 243.6 1217.99 247.29 1215.63 252.02L1208.97 265.38L1208.29 251.96C1208.24 250.88 1208.03 249.86 1207.7 248.91C1206.79 246.26 1204.86 244.17 1202.22 242.98C1201.68 242.73 1201.11 242.54 1200.53 242.37L1187.48 238.8L1202.09 235.23C1206.03 234.27 1209.66 231.88 1212.2 228.7C1212.97 227.74 1213.64 226.69 1214.2 225.59L1220.88 212.21L1221.58 225.74C1221.71 228.23 1222.6 230.42 1224.11 232.1C1225.41 233.56 1227.16 234.64 1229.24 235.21L1242.39 238.82V238.79L1242.37 238.78Z" fill="white" stroke="black" stroke-linecap="round" stroke-linejoin="round"/>
<path d="M1280 463.89V491.77L1174.67 491.64C1169.46 491.64 1164.9 488.77 1162.51 484.51C1162.28 484.1 1162.08 483.68 1161.89 483.25C1161.76 482.96 1161.64 482.67 1161.53 482.36C1161.01 480.89 1160.73 479.32 1160.72 477.68C1160.72 469.98 1166.97 463.74 1174.67 463.75L1279.99 463.81V463.89H1280Z" fill="#B1FF05" stroke="black" stroke-linecap="round" stroke-linejoin="round"/>
<path d="M1162.51 484.52C1164.9 488.78 1169.45 491.65 1174.67 491.65L1280 491.78V483.41L1161.9 483.27C1162.08 483.7 1162.29 484.13 1162.52 484.53L1162.51 484.52Z" fill="black" stroke="black" stroke-miterlimit="10"/>
<path d="M733.83 838.45L760.14 847.69L794.94 748.28C796.67 743.36 795.47 738.11 792.25 734.45C791.94 734.1 791.61 733.76 791.26 733.45C791.03 733.23 790.79 733.02 790.54 732.82C789.32 731.84 787.93 731.05 786.39 730.51C779.13 727.96 771.17 731.79 768.62 739.05L733.76 838.43L733.84 838.46L733.83 838.45Z" fill="#B1FF05" stroke="black" stroke-linecap="round" stroke-linejoin="round"/>
<path d="M792.25 734.45C795.47 738.11 796.67 743.36 794.94 748.28L760.14 847.69L752.24 844.91L791.26 733.44C791.61 733.76 791.94 734.09 792.25 734.44V734.45Z" fill="black" stroke="black" stroke-miterlimit="10"/>
<path d="M1144.49 530.76C1146.88 535.02 1151.43 537.89 1156.65 537.89L1280 538.02V510.14L1156.66 510C1148.96 510 1142.71 516.24 1142.71 523.93C1142.71 525.57 1143 527.14 1143.52 528.61C1143.63 528.92 1143.75 529.2 1143.88 529.5C1144.06 529.93 1144.27 530.36 1144.5 530.76H1144.49Z" fill="#00ED64" stroke="black" stroke-miterlimit="10"/>
<path d="M1144.49 530.76C1146.88 535.02 1151.43 537.89 1156.65 537.89L1280 538.02V529.65L1143.87 529.51C1144.05 529.94 1144.26 530.37 1144.49 530.77V530.76Z" fill="black" stroke="black" stroke-miterlimit="10"/>
<path d="M615.65 542.42L599.859 546.15C594.269 547.47 589.05 551.34 586.15 556.29L578 570.28L578.349 556.22C578.379 555.09 578.25 554.02 577.96 553.03C577.2 550.26 575.319 548.06 572.609 546.82C572.059 546.56 571.459 546.36 570.859 546.18L557.27 542.44L573.09 538.7C577.36 537.69 581.409 535.19 584.359 531.86C585.249 530.85 586.06 529.76 586.74 528.6L594.919 514.58L594.58 528.75C594.52 531.36 595.29 533.65 596.76 535.41C598.03 536.94 599.8 538.07 601.96 538.67L615.659 542.45V542.42H615.65Z" fill="white" stroke="black" stroke-linecap="round" stroke-linejoin="round"/>
<path d="M831.7 134.38L764.08 -8.3C762.11 -13.17 756.37 -16.51 751.26 -15.75L704.7 -16.42C692.39 -14.38 692.02 -2.77 693.99 2.11L753.97 150.56C755.94 155.44 761.68 158.77 766.79 158.01L818.37 150.35C830.13 149.09 833.67 139.25 831.7 134.37V134.38Z" fill="black" stroke="black" stroke-linecap="round" stroke-linejoin="round"/>
<path d="M760.909 141.92L700.93 -6.53C698.96 -11.41 701.51 -15.97 706.62 -16.73L758.2 -24.39C763.31 -25.15 769.05 -21.81 771.02 -16.94L831 131.51C832.97 136.39 830.42 140.95 825.31 141.71L773.729 149.37C768.619 150.13 762.879 146.79 760.909 141.92Z" fill="#006CFA" stroke="black" stroke-linecap="round" stroke-linejoin="round"/>
<path d="M919.38 196.73L851.76 54.05C849.79 49.18 844.05 45.84 838.94 46.6L792.38 45.93C780.07 47.97 779.7 59.58 781.67 64.46L841.65 212.91C843.62 217.79 849.36 221.12 854.47 220.36L906.05 212.7C917.81 211.44 921.35 201.6 919.38 196.72V196.73Z" fill="black" stroke="black" stroke-linecap="round" stroke-linejoin="round"/>
<path d="M848.58 204.28L788.6 55.83C786.63 50.95 789.18 46.39 794.29 45.63L845.87 37.97C850.98 37.21 856.72 40.55 858.69 45.42L918.67 193.87C920.64 198.75 918.09 203.31 912.98 204.07L861.4 211.73C856.29 212.49 850.55 209.15 848.58 204.28Z" fill="#00D2FF" stroke="black" stroke-linecap="round" stroke-linejoin="round"/>
<path d="M854.511 110.58L844.691 111.87L840.031 107.2L824.231 91.42L817.001 84.19L804.931 72.13L818.051 70.14L829.141 81.72L829.731 82.34L836.721 89.65L841.841 94.98L842.251 95.42L842.211 88.87L842.151 80.53L842.041 66.27L855.611 64.21L855.271 78.62L855.071 87.04L854.521 110.57L854.511 110.58Z" fill="#B1FF05" stroke="black" stroke-linecap="round" stroke-linejoin="round"/>
<path d="M841.151 160.67L823.48 116.92L834.51 115.28L852.19 159.03L841.151 160.67Z" fill="#B1FF05" stroke="black" stroke-linecap="round" stroke-linejoin="round"/>
<path d="M699.26 510.07L671.61 584.67L725.4 572.56L699.26 510.07Z" fill="black" stroke="black" stroke-linecap="round" stroke-linejoin="round"/>
<path d="M699.26 510.07L671.61 584.67L637.71 540.06L699.26 510.07Z" fill="#00D2FF" stroke="black" stroke-linecap="round" stroke-linejoin="round"/>
<path d="M949.8 598.09L960.63 637.88L929.58 667.88L887.85 658.65L877.05 618.84L908.08 588.86L949.81 598.08L949.8 598.09Z" fill="white" stroke="black" stroke-linecap="round" stroke-linejoin="round"/>
<path d="M887.84 658.65L918.89 628.65L960.62 637.88L929.57 667.88L887.84 658.65Z" fill="black" stroke="black" stroke-linecap="round" stroke-linejoin="round"/>
<path d="M908.08 588.87L918.91 628.66L960.64 637.88L949.82 598.1L908.09 588.87H908.08Z" fill="#006CFA" stroke="black" stroke-linecap="round" stroke-linejoin="round"/>
<path d="M887.84 658.65L877.04 618.84L908.07 588.86L918.9 628.65L887.84 658.65Z" fill="#006CFA" stroke="black" stroke-linecap="round" stroke-linejoin="round"/>
<path d="M1214.23 64.33L1206.05 77.21L1197.87 90.08L1190.81 76.56L1183.75 63.04L1198.99 63.69L1214.23 64.33Z" fill="white" stroke="black" stroke-miterlimit="10"/>
<path d="M1199.06 72.26L1184.44 63.45C1184.25 63.33 1184.02 63.54 1184.13 63.74L1197.34 89.05C1197.49 89.34 1197.93 89.25 1197.96 88.92L1199.06 72.26Z" fill="black" stroke="black" stroke-miterlimit="10"/>
<path d="M1199.06 72.26L1214.23 64.33" stroke="black" stroke-miterlimit="10"/>
<path d="M567.52 461.99L551.74 468.55L558.3 484.33L574.08 477.77L567.52 461.99Z" fill="black" stroke="black" stroke-linecap="round" stroke-linejoin="round"/>
<path d="M560.75 459.19L544.97 465.75L551.53 481.53L567.31 474.97L560.75 459.19Z" fill="white" stroke="black" stroke-miterlimit="10"/>
<path d="M1171.13 78.2C1171.13 78.2 1052.85 124.23 997.08 228.35" stroke="black" stroke-linejoin="round" stroke-dasharray="2 2"/>
<path d="M584.97 461.99C584.97 461.99 662.61 410.52 787.93 489.88" stroke="black" stroke-linejoin="round" stroke-dasharray="2 2"/>
<path d="M891.65 232.27C891.65 232.27 926.05 310.14 923.74 436.26" stroke="black" stroke-linejoin="round"/>
<path d="M906.67 229.37C906.67 229.37 919.34 257.46 922.2 288.39" stroke="black" stroke-linejoin="round"/>
<path d="M637.56 733.44C637.56 733.44 655.49 627.81 736.47 616.1" stroke="black" stroke-linejoin="round" stroke-dasharray="2 2"/>
<path d="M1065.32 380.25C1066.69 365.63 1079.55 354.81 1094.04 356.09C1108.54 357.37 1119.18 370.26 1117.81 384.88C1116.44 399.5 1103.58 410.32 1089.09 409.04C1074.59 407.76 1063.95 394.87 1065.32 380.25Z" fill="black" stroke="black" stroke-linecap="round" stroke-linejoin="round"/>
<path d="M1065.52 378.39C1067.9 363.89 1081.47 354.01 1095.84 356.31C1101.22 357.17 1105.94 359.63 1109.61 363.09C1111.73 367.71 1112.52 373.01 1111.63 378.44C1109.25 392.94 1095.68 402.82 1081.31 400.52C1075.93 399.66 1071.21 397.2 1067.54 393.74C1065.42 389.12 1064.63 383.82 1065.52 378.39Z" fill="#00D2FF" stroke="black" stroke-linecap="round" stroke-linejoin="round"/>
<path d="M969.53 504.32C969.53 504.32 1105.66 409.15 1150.61 631.67" stroke="black" stroke-linejoin="round"/>
</g>
<defs>
<clipPath id="clip0_4283_408">
<rect width="1280" height="800" fill="white"/>
</clipPath>
</defs>
</svg>
