<?xml version="1.0" encoding="utf-8"?>
<svg xmlns="http://www.w3.org/2000/svg" width="64" height="58" viewBox="0 0 64 58" fill="none">
<path d="M64 24.9H61.9M61.9 24.9C58.8 24.9 56.3 27.4 56.3 30.5V48.8C56.3 53.3 52.6 57 48.1 57H16C11.5 57 7.8 53.3 7.8 48.8V30.6C7.8 27.5 5.3 25 2.2 25H0M61.9 24.9C58.8 24.9 56.3 22.4 56.3 19.3V9.2C56.3 4.7 52.6 1 48.1 1H16.1C11.6 1 7.9 4.7 7.9 9.2V19.3C7.9 22.4 5.4 24.9 2.3 24.9H0" stroke="#001E2B" stroke-miterlimit="10"/>
<path d="M17 4C17 4 30.5625 8.5 48 4" stroke="#001E2B" stroke-miterlimit="10"/>
<path d="M20 29C20 35.6 25.4 41 32 41C38.6 41 44 35.6 44 29C44 22.4 38.6 17 32 17C25.4 17 20 22.4 20 29Z" fill="#00ED64" stroke="#001E2B" stroke-miterlimit="10"/>
<path d="M36.6291 30.5747L36.9643 30.9456L37.7062 30.2751L37.3709 29.9041L36.6291 30.5747ZM32.4808 25.2394L32.8517 24.9041L32.4808 25.2394ZM31.5192 25.2394L31.8902 25.5746L31.9226 25.5388L31.9475 25.4974L31.5192 25.2394ZM26.6291 29.9041L26.2938 30.2751L27.0357 30.9456L27.3709 30.5747L26.6291 29.9041ZM32.5 25.0266V24.5266H31.5V25.0266H32.5ZM31.5 41V41.5H32.5V41H31.5ZM37.3709 29.9041L32.8517 24.9041L32.1098 25.5746L36.6291 30.5747L37.3709 29.9041ZM32.8517 24.9041C32.6151 24.6423 32.2892 24.5 31.9639 24.5C31.6353 24.5 31.2907 24.6498 31.091 24.9813L31.9475 25.4974C31.9476 25.4973 31.9467 25.4987 31.9448 25.5005C31.9429 25.5022 31.9414 25.5031 31.9409 25.5033C31.9402 25.5037 31.947 25.5 31.9639 25.5C31.9993 25.5 32.058 25.5172 32.1098 25.5746L32.8517 24.9041ZM31.1483 24.9041L26.6291 29.9041L27.3709 30.5747L31.8902 25.5746L31.1483 24.9041ZM31.5 25.0266V41H32.5V25.0266H31.5Z" fill="#001E2B"/>
</svg>