<?xml version="1.0" encoding="utf-8"?>
<svg xmlns="http://www.w3.org/2000/svg" width="180" height="24" viewBox="0 0 180 24" fill="none">
<g clip-path="url(#clip0_2573_8330)">
<path d="M42.0511 20.0312V3.31204H54.5307V6.29733H45.3491V10.2147H53.5537V13.1045H45.3491V20.0312H42.0511Z" fill="white"/>
<path d="M56.6784 20.0312L61.7998 5.65891C62.0441 4.97324 62.5005 4.37894 63.1061 3.95844C63.7113 3.53795 64.435 3.31199 65.1776 3.31204C65.9248 3.31194 66.6532 3.5407 67.2604 3.96621C67.8677 4.3917 68.3235 4.99253 68.5643 5.68444L73.5513 20.0312H70.1573L68.9606 16.5439H61.3423L60.097 20.0312H56.6784ZM62.3177 13.63H67.9831L65.9352 7.6033C65.6908 6.88315 64.6507 6.88059 64.4028 7.59921L62.3177 13.63Z" fill="white"/>
<path d="M76.1152 11.6703C76.1152 6.96538 79.9974 3.11951 84.8081 3.11951C88.3488 3.11951 91.2306 5.22171 92.5976 8.207L89.472 9.09109C88.5932 7.39492 86.9812 6.17681 84.8081 6.17681C81.6825 6.17681 79.387 8.61305 79.387 11.6703C79.387 14.7277 81.6845 17.1399 84.8081 17.1399C86.9812 17.1399 88.5441 16.0413 89.3989 14.3215L92.5731 15.1577C91.2301 18.1199 88.3734 20.1972 84.8081 20.1972C79.9974 20.1972 76.1152 16.3773 76.1152 11.6703Z" fill="white"/>
<path d="M101.291 20.0312V6.29733H95.918V3.31204H109.739V6.29733H104.562V20.0312H101.291Z" fill="white"/>
<path d="M113.088 11.5593C113.163 6.86813 117.037 3.11673 121.833 3.14432C126.619 3.17241 130.473 6.9831 130.498 11.6952C130.521 16.4073 126.591 20.2246 121.78 20.2246C116.923 20.222 113.013 16.3271 113.088 11.5593ZM127.201 11.6952C127.201 8.6379 124.904 6.12812 121.78 6.12812C118.679 6.12812 116.359 8.63586 116.359 11.6952C116.359 14.7285 118.656 17.2112 121.78 17.2112C124.904 17.2112 127.201 14.7525 127.201 11.6952Z" fill="white"/>
<path d="M134.962 20.0312V3.31204H142.654C146.024 3.31204 148.562 5.9393 148.562 8.97259C148.56 10.058 148.217 11.1165 147.579 12.0049C146.942 12.8934 146.041 13.569 144.998 13.9406L148.807 20.0312H145.071L141.53 14.3466H138.26V20.0312H134.962ZM138.258 11.5529H142.604C144.168 11.5529 145.389 10.4292 145.389 8.8781C145.389 7.37346 144.24 6.20284 142.654 6.20284H138.26L138.258 11.5529Z" fill="white"/>
<path d="M157.111 14.8001L151.177 3.31204H154.669L158.722 11.1698L162.775 3.31204H166.267L160.407 14.7047V20.0312H157.111V14.8001Z" fill="white"/>
<path d="M23.7952 4.04964C23.7504 4.03876 23.7084 4.0185 23.6723 3.99031C23.6361 3.96205 23.6066 3.92656 23.5859 3.88616C23.5649 3.84576 23.5533 3.80144 23.5516 3.75622C23.5499 3.71097 23.5583 3.66598 23.576 3.6242C24.1891 2.16502 24.4594 0.997458 24.023 0.508678C22.8669 -0.788094 18.2307 1.79059 16.7524 2.66395C16.7129 2.68724 16.6686 2.7019 16.6227 2.70692C16.5768 2.71192 16.5303 2.70717 16.4865 2.69302C16.4426 2.67888 16.4023 2.65563 16.3685 2.62488C16.3347 2.59414 16.308 2.5566 16.2903 2.51487C15.669 1.05875 15.0157 0.0459471 14.3536 0.00202337C12.5987 -0.115447 11.1842 4.9148 10.7701 6.55427C10.759 6.59819 10.7384 6.63926 10.7096 6.6746C10.6808 6.71 10.6445 6.73886 10.6033 6.75924C10.562 6.77961 10.5167 6.79101 10.4705 6.79264C10.4244 6.79432 10.3784 6.7862 10.3357 6.76883C8.84385 6.16922 7.64967 5.90466 7.1505 6.33164C5.82474 7.46242 8.46058 11.9973 9.35347 13.4432C9.37735 13.4819 9.39238 13.5252 9.39755 13.5701C9.40272 13.6151 9.39792 13.6606 9.38344 13.7034C9.36898 13.7464 9.34517 13.7858 9.31369 13.8189C9.2822 13.852 9.24378 13.8779 9.20101 13.8952C7.71285 14.503 6.67742 15.1419 6.63199 15.7895C6.51242 17.5061 11.6546 18.8897 13.3313 19.2947C13.3761 19.3057 13.4179 19.3259 13.454 19.3542C13.49 19.3824 13.5195 19.4179 13.5402 19.4582C13.561 19.4985 13.5726 19.5428 13.5743 19.5879C13.576 19.633 13.5678 19.678 13.5501 19.7197C12.937 21.1789 12.6666 22.3469 13.1031 22.8352C14.2591 24.1319 18.8958 21.5538 20.3741 20.6804C20.4137 20.657 20.458 20.6423 20.5039 20.6373C20.5499 20.6322 20.5964 20.6369 20.6402 20.6511C20.6842 20.6652 20.7244 20.6886 20.7581 20.7193C20.792 20.7501 20.8186 20.7877 20.8362 20.8295C21.4576 22.2851 22.1103 23.2979 22.7729 23.3424C24.5278 23.4593 25.9424 18.4295 26.356 16.7896C26.3671 16.7458 26.3879 16.7047 26.4167 16.6694C26.4456 16.6341 26.482 16.6053 26.5233 16.5849C26.5645 16.5647 26.6099 16.5533 26.6561 16.5517C26.7022 16.55 26.7483 16.5581 26.7909 16.5756C28.2827 17.1751 29.4764 17.4392 29.976 17.0128C31.3019 15.882 28.6654 11.3466 27.7726 9.90064C27.7489 9.86194 27.734 9.81862 27.729 9.77378C27.7238 9.72888 27.7287 9.68343 27.7432 9.64058C27.7577 9.59768 27.7814 9.55835 27.8127 9.52525C27.8441 9.49216 27.8824 9.46601 27.925 9.44869C29.4138 8.84091 30.4491 8.20192 30.4941 7.5543C30.6141 5.83771 25.4715 4.45416 23.7952 4.04964ZM21.7819 2.40399C22.1191 2.99543 20.3809 6.93636 19.0881 9.69283C19.0664 9.7389 19.0309 9.7774 18.9863 9.80314C18.9416 9.8289 18.8899 9.84063 18.8382 9.83681C18.7865 9.83298 18.7372 9.81372 18.6971 9.7817C18.6569 9.74962 18.6277 9.70631 18.6134 9.65754C18.0912 7.86535 17.4944 5.75961 16.8558 3.97202C16.8308 3.90184 16.832 3.82523 16.8594 3.75592C16.8867 3.68656 16.9384 3.629 17.0052 3.59351C18.5998 2.74159 21.3286 1.6103 21.7819 2.40399ZM14.1396 2.89174C14.8053 3.07663 16.4251 7.06557 17.5033 9.90887C17.5213 9.95637 17.524 10.0081 17.511 10.0572C17.498 10.1062 17.47 10.1502 17.4308 10.1832C17.3915 10.2163 17.3428 10.2368 17.2913 10.2419C17.2397 10.2471 17.1878 10.2368 17.1425 10.2122C15.4763 9.30774 13.5333 8.23007 11.7893 7.40777C11.721 7.37535 11.6667 7.32033 11.636 7.25241C11.6053 7.18453 11.6003 7.10817 11.6217 7.03698C12.135 5.33314 13.2451 2.64404 14.1396 2.89174ZM9.08822 8.52267C9.69236 8.19273 13.7218 9.89304 16.5394 11.1576C16.5866 11.1788 16.6259 11.2135 16.6522 11.2572C16.6786 11.3009 16.6906 11.3515 16.6866 11.402C16.6827 11.4526 16.6631 11.5008 16.6303 11.5401C16.5975 11.5794 16.5532 11.608 16.5034 11.6219C14.6716 12.1326 12.5183 12.7164 10.6907 13.3411C10.6191 13.3654 10.5409 13.3641 10.4701 13.3373C10.3994 13.3107 10.3406 13.2601 10.3043 13.1949C9.43493 11.6351 8.27627 8.96599 9.08822 8.52267ZM9.58688 15.998C9.77538 15.3467 13.8539 13.7624 16.7608 12.7077C16.8094 12.6901 16.8623 12.6875 16.9124 12.7002C16.9626 12.7129 17.0076 12.7403 17.0413 12.7787C17.0751 12.8171 17.0961 12.8647 17.1014 12.9152C17.1066 12.9654 17.096 13.0162 17.071 13.0606C16.1457 14.6904 15.0439 16.5909 14.2033 18.2962C14.1704 18.3633 14.1142 18.4166 14.0447 18.4468C13.9752 18.4769 13.8971 18.4818 13.8242 18.4607C12.0823 17.9617 9.33311 16.8729 9.58688 15.998ZM15.3437 20.9388C15.0058 20.3479 16.7446 16.4065 18.0375 13.6506C18.0591 13.6045 18.0947 13.5659 18.1393 13.5401C18.184 13.5145 18.2356 13.5027 18.2873 13.5065C18.3391 13.5103 18.3883 13.5296 18.4285 13.5616C18.4687 13.5937 18.4979 13.6371 18.5121 13.6858C19.0343 15.4775 19.6311 17.5838 20.2697 19.3714C20.2946 19.4415 20.2933 19.518 20.2658 19.5872C20.2383 19.6565 20.1865 19.714 20.1198 19.7494C18.5257 20.5996 15.7964 21.7331 15.3452 20.9388H15.3437ZM22.9859 20.451C22.3197 20.2667 20.6999 16.2774 19.6218 13.434C19.6036 13.3864 19.6008 13.3345 19.6138 13.2854C19.6268 13.2362 19.6549 13.1921 19.6943 13.1592C19.7336 13.1261 19.7825 13.1056 19.834 13.1005C19.8857 13.0953 19.9377 13.106 19.9831 13.1306C21.6487 14.0351 23.5921 15.1133 25.3356 15.9357C25.4041 15.9679 25.4585 16.0229 25.4892 16.0908C25.52 16.1587 25.525 16.2351 25.5033 16.3064C24.9906 18.0128 23.8804 20.6992 22.9859 20.451ZM28.0373 14.8202C27.4327 15.1506 23.4037 13.4498 20.5857 12.1852C20.5384 12.164 20.4991 12.1293 20.4728 12.0856C20.4464 12.0419 20.4345 11.9914 20.4384 11.9408C20.4423 11.8902 20.4619 11.8421 20.4947 11.8028C20.5275 11.7635 20.5718 11.7349 20.6216 11.721C22.4539 11.2102 24.6067 10.6264 26.4342 10.0018C26.506 9.97742 26.5844 9.97875 26.6552 10.0056C26.7261 10.0325 26.785 10.0831 26.8213 10.1484C27.69 11.7077 28.8487 14.3773 28.0373 14.8202ZM27.5386 7.34489C27.3496 7.99661 23.2715 9.58098 20.3647 10.6357C20.3161 10.6533 20.263 10.656 20.2129 10.6433C20.1626 10.6306 20.1175 10.6032 20.0837 10.5647C20.05 10.5262 20.0291 10.4784 20.0238 10.4279C20.0186 10.3774 20.0293 10.3266 20.0545 10.2822C20.9794 8.65291 22.0811 6.75193 22.9218 5.04656C22.9548 4.97971 23.011 4.92653 23.0805 4.89651C23.1499 4.86648 23.2281 4.86152 23.3009 4.88261C25.0427 5.38416 27.7918 6.47 27.5386 7.34489Z" fill="white"/>
</g>
<defs>
<clipPath id="clip0_2573_8330">
<rect width="180" height="24" fill="white"/>
</clipPath>
</defs>
</svg>