<?xml version="1.0" encoding="utf-8"?>
<svg xmlns="http://www.w3.org/2000/svg" width="160" height="24" viewBox="0 0 160 24" fill="none">
<path fill-rule="evenodd" clip-rule="evenodd" d="M100.094 4.47668C95.8971 4.47668 92.926 7.59409 92.926 12.0208C92.926 16.406 95.8971 19.5233 100.094 19.5233C104.27 19.5233 107.22 16.406 107.22 12.0208C107.22 7.59409 104.27 4.47668 100.094 4.47668ZM100.094 16.6138C97.6423 16.6138 96.1464 14.868 96.1464 12.0208C96.1464 9.13203 97.6423 7.38627 100.094 7.38627C102.525 7.38627 104 9.13203 104 12.0208C104 14.868 102.525 16.6138 100.094 16.6138Z" fill="white"/>
<path d="M143.676 14.39C143.135 15.8032 142.054 16.6138 140.58 16.6138C138.128 16.6138 136.632 14.868 136.632 12.0208C136.632 9.13203 138.128 7.38627 140.58 7.38627C142.054 7.38627 143.135 8.19678 143.676 9.61004H146.979C146.169 6.49261 143.738 4.47668 140.58 4.47668C136.383 4.47668 133.411 7.59409 133.411 12.0208C133.411 16.406 136.383 19.5233 140.58 19.5233C143.758 19.5233 146.189 17.4867 147 14.39H143.676Z" fill="white"/>
<path d="M123.809 4.7309L129.61 19.2791H132.79L126.99 4.7309H123.809Z" fill="white"/>
<path fill-rule="evenodd" clip-rule="evenodd" d="M110.136 4.7309H117.246C120.552 4.7309 122.568 6.47668 122.568 9.36553C122.568 12.2544 120.552 14.0002 117.246 14.0002H113.254V19.2791H110.136V4.7309ZM113.254 11.1945H117.1C118.639 11.1945 119.449 10.571 119.449 9.36553C119.449 8.16013 118.639 7.53663 117.1 7.53663H113.254V11.1945Z" fill="white"/>
<path fill-rule="evenodd" clip-rule="evenodd" d="M85.2226 4.7309C88.5273 4.7309 90.5434 6.41434 90.5434 9.1577C90.5434 11.0821 89.5514 12.4847 87.8186 13.1508L91.2708 19.2791H87.8206L84.7028 13.5845H81.2321V19.2791H78.1144V4.7309H85.2226ZM85.0772 7.53663H81.2321V10.7788H85.0772C86.6151 10.7788 87.4258 10.2176 87.4258 9.1577C87.4258 8.09777 86.6151 7.53663 85.0772 7.53663Z" fill="white"/>
<path d="M71.1518 10.5294H64.2949V4.7309H61.1781V19.2791H64.2949V13.3351H71.1518V19.2791H74.2687V4.7309H71.1518V10.5294Z" fill="white"/>
<path d="M50.6756 7.53663H45.7923V4.7309H58.676V7.53663H53.7927V19.2791H50.6756V7.53663Z" fill="white"/>
<path d="M40.2873 14.9146L33.742 4.7309H30.2096V19.2791H33.2226V9.09535L39.7679 19.2791H43.3002V4.7309H40.2873V14.9146Z" fill="white"/>
<path fill-rule="evenodd" clip-rule="evenodd" d="M13 19.2791L18.7993 4.7309H22.1251L27.9244 19.2791H24.6818L23.4959 16.224H17.4287L16.2426 19.2791H13ZM20.4622 8.40951L18.4776 13.5222H22.4469L20.4622 8.40951Z" fill="white"/>
</svg>