<?xml version="1.0" encoding="utf-8"?>
<svg xmlns="http://www.w3.org/2000/svg" width="180" height="20" viewBox="0 0 180 20" fill="none">
<g clip-path="url(#clip0_2573_8364)">
<path fill-rule="evenodd" clip-rule="evenodd" d="M24.2943 0.31546L19.6964 11.2826L15.0941 0.31546H12.1418L17.1861 12.3044C17.6045 13.3048 18.5857 13.9508 19.6791 13.9508C20.7725 13.9508 21.7516 13.3048 22.1722 12.3087L27.2467 0.31546H24.2943ZM26.259 17.0248L34.6698 8.56068L33.5224 5.86665L24.3352 15.1293C23.5675 15.9043 23.3475 17.0463 23.7724 18.0467C24.1951 19.0384 25.172 19.6803 26.2612 19.6803L26.2654 19.6845L39.3971 19.6523L38.2497 16.9583L26.2612 17.0248H26.259ZM4.7273 8.55426L5.87462 5.86021L15.0618 15.1229C15.8295 15.8958 16.0517 17.042 15.6247 18.0402C15.202 19.0341 14.2208 19.6738 13.136 19.6738L0.00431324 19.6438L0 19.648L1.14732 16.954L13.136 17.0206L4.7273 8.55426Z" fill="white"/>
<path d="M49.8876 18.609L49.8898 18.6112H52.1477V10.8704H59.4414V8.86333H52.1477V3.82732H60.1703V1.82022H49.8876V18.609Z" fill="white"/>
<path d="M64.6288 6.4827H62.5111V18.609H64.6288V6.4827Z" fill="white"/>
<path d="M69.9999 8.09054H70.002C69.9546 8.20645 69.9093 8.27729 69.767 8.27729C69.6483 8.27729 69.603 8.23221 69.603 8.11629V6.48271H67.4852V18.6091H69.5988V11.7269C69.5988 9.39782 70.6835 8.48765 72.7302 8.48765H74.4253V6.43549H73.0601C71.3909 6.43549 70.5433 6.92491 69.9999 8.09054Z" fill="white"/>
<path d="M81.4683 17.145C79.1974 17.145 77.5022 15.8613 77.3599 13.1351H87.2563V11.9673C87.2563 8.58642 85.1859 6.13708 81.4187 6.13708C77.6511 6.13708 75.2507 8.58642 75.2507 12.5491C75.2507 16.5118 77.5799 18.9611 81.464 18.9611C85.3483 18.9611 86.944 16.6083 87.3024 14.7666H85.0938C84.7505 16.1447 83.7392 17.145 81.4683 17.145ZM81.4187 7.95099C83.6572 7.95099 85.0419 9.14234 85.139 11.3813H77.4182C77.7697 9.093 79.3937 7.95099 81.4187 7.95099Z" fill="white"/>
<path d="M102.286 16.3465C102.234 16.5568 102.17 16.6277 102.001 16.6277C101.833 16.6277 101.762 16.5568 101.717 16.3465L99.3616 6.4827H95.713L93.358 16.3465C93.306 16.5568 93.2416 16.6277 93.0733 16.6277C92.905 16.6277 92.8339 16.5568 92.7887 16.3465L90.4336 6.4827H88.3632V6.95066H88.3757L91.249 18.609H94.885L97.3113 8.44041C97.3565 8.27513 97.4017 8.23005 97.544 8.23005C97.6604 8.23005 97.7315 8.27942 97.7767 8.44041L100.203 18.609H103.839L106.711 6.95066V6.4827H104.641L102.286 16.3465Z" fill="white"/>
<path d="M114.096 6.13495C110.539 6.13495 107.717 8.34817 107.717 12.5469C107.717 16.7457 110.538 18.9589 114.096 18.9589C117.655 18.9589 120.478 16.7457 120.478 12.5469C120.478 8.34817 117.652 6.13495 114.096 6.13495ZM114.1 17.0935C111.629 17.0935 109.863 15.4642 109.863 12.5469C109.863 9.62967 111.629 8.00037 114.1 8.00037C116.571 8.00037 118.338 9.634 118.338 12.5469C118.338 15.4599 116.571 17.0935 114.1 17.0935Z" fill="white"/>
<path d="M125.23 8.09054C125.185 8.20645 125.14 8.27729 124.997 8.27729C124.878 8.27729 124.833 8.23221 124.833 8.11629V6.48271H122.715V18.6069H124.829V11.7269C124.829 9.39782 125.914 8.48765 127.96 8.48765H129.655V6.43549H128.29C126.621 6.43549 125.773 6.92491 125.23 8.09054Z" fill="white"/>
<path d="M133.406 12.1262V1.82022H131.288V18.6197H133.406V14.7472L135.703 12.7981L140.271 18.6155H142.586V18.1475L137.266 11.4651L142.586 6.95067V6.4827H139.865L133.406 12.1262Z" fill="white"/>
<path d="M149.926 11.6689L148.185 11.3427C146.517 11.0271 145.785 10.6793 145.785 9.67475C145.785 8.67008 146.611 7.92521 148.587 7.92521C150.562 7.92521 151.692 8.67441 151.856 10.3294H154.013C153.773 7.37353 151.468 6.13922 148.578 6.13922C145.688 6.13922 143.659 7.37568 143.659 9.70475C143.659 12.0339 145.319 12.841 147.709 13.2832L149.449 13.6095C151.145 13.9251 151.992 14.2878 151.992 15.3354C151.992 16.3829 151.142 17.1643 149.098 17.1643C147.053 17.1643 145.697 16.325 145.533 14.715H143.379C143.579 17.6065 145.945 18.9589 149.1 18.9589C152.255 18.9589 154.114 17.6194 154.114 15.2152C154.114 12.811 152.16 12.0876 149.926 11.6689Z" fill="white"/>
<path d="M180 1.82022H177.626V18.6197H180V1.82022Z" fill="white"/>
<path d="M166.11 1.82022L159.528 18.3128V18.6197H161.878L163.545 14.2342H171.47L173.136 18.6197H175.558V18.3171L168.929 1.82022H166.11ZM164.328 12.2035L167.158 4.8255H167.156C167.203 4.69885 167.326 4.61514 167.462 4.61514H167.578C167.715 4.61514 167.838 4.69885 167.885 4.8255L170.693 12.2035H164.328Z" fill="white"/>
<path d="M64.6288 1.82022H62.5111V4.29314H64.6288V1.82022Z" fill="white"/>
</g>
<defs>
<clipPath id="clip0_2573_8364">
<rect width="180" height="20" fill="white"/>
</clipPath>
</defs>
</svg>