<?xml version="1.0" encoding="utf-8"?>
<svg xmlns="http://www.w3.org/2000/svg" width="140" height="32" viewBox="0 0 140 32" fill="none">
<path d="M41.3711 21.564V10.7111H44.1569V14.7517H47.2991V10.7111H50.0848V21.564H47.2991V17.2563H44.1569V21.564H41.3711ZM54.6464 21.7644C53.761 21.7644 53.1185 21.4583 52.719 20.8461C52.3194 20.2227 52.1198 19.3934 52.1198 18.3582V13.2157H54.9055V17.9909C54.9055 18.5253 54.9704 18.8813 55.0999 19.0594C55.2402 19.2376 55.4454 19.3266 55.7154 19.3266C55.9744 19.3266 56.1905 19.271 56.3633 19.1597C56.536 19.0484 56.7088 18.8591 56.8816 18.5919V13.2157H59.6674V21.564H57.3998L57.2054 20.4621H57.1406C56.8168 20.8628 56.455 21.1801 56.0555 21.4138C55.6668 21.6476 55.1971 21.7644 54.6464 21.7644ZM64.4959 25.0036C63.8805 25.0036 63.3135 24.9313 62.7952 24.7866C62.277 24.6529 61.8613 24.4359 61.5482 24.1353C61.2457 23.8349 61.0947 23.4341 61.0947 22.9331C61.0947 22.2765 61.4725 21.7422 62.2284 21.3303V21.2635C62.0214 21.1057 61.8408 20.9139 61.6939 20.6959C61.5535 20.4621 61.4833 20.1726 61.4833 19.8275C61.4833 19.5381 61.5644 19.2543 61.7263 18.9761C61.8991 18.6977 62.1205 18.4584 62.3903 18.2581V18.1913C62.0987 17.9909 61.8397 17.7071 61.613 17.3397C61.3969 16.9612 61.289 16.5326 61.289 16.0541C61.289 15.3639 61.4509 14.7963 61.7749 14.351C62.1096 13.8945 62.5415 13.5607 63.0706 13.3492C63.5997 13.1266 64.1612 13.0152 64.755 13.0152C65.2301 13.0152 65.662 13.082 66.0507 13.2157H69.0634V15.286H67.8972C67.9295 15.3863 67.9565 15.5142 67.9781 15.67C68.0105 15.8259 68.0267 15.9873 68.0267 16.1542C68.0267 16.811 67.881 17.3453 67.5894 17.7572C67.2979 18.1579 66.9039 18.4529 66.4071 18.6421C65.9103 18.8314 65.3597 18.9259 64.755 18.9259C64.4852 18.9259 64.1827 18.887 63.848 18.809C63.7184 18.9315 63.6537 19.0929 63.6537 19.2932C63.6537 19.4713 63.7401 19.5993 63.9129 19.6773C64.0963 19.7552 64.3879 19.7941 64.7874 19.7941H66.0022C67.0171 19.7941 67.8 19.9667 68.3507 20.3117C68.9122 20.6457 69.1929 21.1966 69.1929 21.9647C69.1929 22.5659 68.9985 23.0945 68.6099 23.551C68.2319 24.0073 67.692 24.3635 66.9901 24.6195C66.2883 24.8756 65.4568 25.0036 64.4959 25.0036ZM64.755 17.2229C65.0142 17.2229 65.2247 17.1283 65.3867 16.939C65.5487 16.7498 65.6296 16.4548 65.6296 16.0541C65.6296 15.6645 65.5487 15.3806 65.3867 15.2025C65.2247 15.0133 65.0142 14.9188 64.755 14.9188C64.4959 14.9188 64.2853 15.0133 64.1234 15.2025C63.9613 15.3806 63.8805 15.6645 63.8805 16.0541C63.8805 16.4548 63.9613 16.7498 64.1234 16.939C64.2853 17.1283 64.4959 17.2229 64.755 17.2229ZM64.9494 23.2337C65.4029 23.2337 65.7808 23.1614 66.0831 23.0167C66.3855 22.883 66.5366 22.6994 66.5366 22.4656C66.5366 22.2431 66.4395 22.1039 66.2452 22.0483C66.0615 21.9926 65.797 21.9647 65.4515 21.9647H64.8199C64.4959 21.9647 64.2476 21.9537 64.0748 21.9313C63.9129 21.9203 63.7725 21.898 63.6537 21.8646C63.4594 22.065 63.3621 22.2653 63.3621 22.4656C63.3621 22.7328 63.5079 22.9276 63.7994 23.0501C64.1019 23.1726 64.4852 23.2337 64.9494 23.2337ZM73.3376 25.0036C72.7221 25.0036 72.1553 24.9313 71.6369 24.7866C71.1186 24.6529 70.7029 24.4359 70.3898 24.1353C70.0875 23.8349 69.9363 23.4341 69.9363 22.9331C69.9363 22.2765 70.3142 21.7422 71.07 21.3303V21.2635C70.863 21.1057 70.6824 20.9139 70.5356 20.6959C70.3951 20.4621 70.3249 20.1726 70.3249 19.8275C70.3249 19.5381 70.406 19.2543 70.5679 18.9761C70.7407 18.6977 70.9621 18.4584 71.2321 18.2581V18.1913C70.9405 17.9909 70.6813 17.7071 70.4546 17.3397C70.2385 16.9612 70.1306 16.5326 70.1306 16.0541C70.1306 15.3639 70.2927 14.7963 70.6165 14.351C70.9512 13.8945 71.3831 13.5607 71.9123 13.3492C72.4413 13.1266 73.0028 13.0152 73.5966 13.0152C74.0718 13.0152 74.5038 13.082 74.8924 13.2157H77.905V15.286H76.7388C76.7712 15.3863 76.7981 15.5142 76.8199 15.67C76.8521 15.8259 76.8683 15.9873 76.8683 16.1542C76.8683 16.811 76.7226 17.3453 76.431 17.7572C76.1396 18.1579 75.7454 18.4529 75.2487 18.6421C74.7521 18.8314 74.2013 18.9259 73.5966 18.9259C73.3268 18.9259 73.0245 18.887 72.6896 18.809C72.5601 18.9315 72.4953 19.0929 72.4953 19.2932C72.4953 19.4713 72.5817 19.5993 72.7545 19.6773C72.9381 19.7552 73.2295 19.7941 73.629 19.7941H74.8438C75.8587 19.7941 76.6416 19.9667 77.1923 20.3117C77.7537 20.6457 78.0345 21.1966 78.0345 21.9647C78.0345 22.5659 77.8401 23.0945 77.4515 23.551C77.0735 24.0073 76.5336 24.3635 75.8318 24.6195C75.13 24.8756 74.2986 25.0036 73.3376 25.0036ZM73.5966 17.2229C73.8558 17.2229 74.0663 17.1283 74.2284 16.939C74.3903 16.7498 74.4714 16.4548 74.4714 16.0541C74.4714 15.6645 74.3903 15.3806 74.2284 15.2025C74.0663 15.0133 73.8558 14.9188 73.5966 14.9188C73.3376 14.9188 73.1269 15.0133 72.965 15.2025C72.8031 15.3806 72.7221 15.6645 72.7221 16.0541C72.7221 16.4548 72.8031 16.7498 72.965 16.939C73.1269 17.1283 73.3376 17.2229 73.5966 17.2229ZM73.7911 23.2337C74.2446 23.2337 74.6224 23.1614 74.9248 23.0167C75.2271 22.883 75.3783 22.6994 75.3783 22.4656C75.3783 22.2431 75.2811 22.1039 75.0868 22.0483C74.9033 21.9926 74.6386 21.9647 74.2931 21.9647H73.6615C73.3376 21.9647 73.0892 21.9537 72.9164 21.9313C72.7545 21.9203 72.6141 21.898 72.4953 21.8646C72.301 22.065 72.2037 22.2653 72.2037 22.4656C72.2037 22.7328 72.3496 22.9276 72.6412 23.0501C72.9434 23.1726 73.3268 23.2337 73.7911 23.2337ZM79.2315 21.564V13.2157H82.0173V21.564H79.2315ZM80.6244 12.1804C80.1709 12.1804 79.8036 12.0524 79.5229 11.7964C79.2422 11.5293 79.1018 11.1786 79.1018 10.7445C79.1018 10.3104 79.2422 9.96524 79.5229 9.70926C79.8036 9.44209 80.1709 9.30859 80.6244 9.30859C81.0779 9.30859 81.445 9.44209 81.7257 9.70926C82.0064 9.96524 82.1468 10.3104 82.1468 10.7445C82.1468 11.1786 82.0064 11.5293 81.7257 11.7964C81.445 12.0524 81.0779 12.1804 80.6244 12.1804ZM83.8975 21.564V13.2157H86.1649L86.3593 14.2173H86.4241C86.7479 13.8945 87.1152 13.6163 87.5254 13.3826C87.9465 13.1376 88.4324 13.0152 88.9831 13.0152C89.8793 13.0152 90.5217 13.3269 90.9106 13.9503C91.3101 14.5625 91.5098 15.3863 91.5098 16.4214V21.564H88.724V16.7888C88.724 16.2544 88.6591 15.8982 88.5296 15.7201C88.4 15.542 88.1949 15.4529 87.9141 15.4529C87.6551 15.4529 87.439 15.5086 87.2663 15.62C87.0935 15.7313 86.8991 15.8872 86.6833 16.0875V21.564H83.8975ZM96.2721 25.0036C95.6566 25.0036 95.0897 24.9313 94.5714 24.7866C94.0532 24.6529 93.6375 24.4359 93.3244 24.1353C93.0219 23.8349 92.8709 23.4341 92.8709 22.9331C92.8709 22.2765 93.2487 21.7422 94.0046 21.3303V21.2635C93.7976 21.1057 93.617 20.9139 93.4701 20.6959C93.3297 20.4621 93.2595 20.1726 93.2595 19.8275C93.2595 19.5381 93.3406 19.2543 93.5025 18.9761C93.6752 18.6977 93.8966 18.4584 94.1665 18.2581V18.1913C93.8749 17.9909 93.6158 17.7071 93.389 17.3397C93.1731 16.9612 93.0652 16.5326 93.0652 16.0541C93.0652 15.3639 93.2271 14.7963 93.5511 14.351C93.8858 13.8945 94.3177 13.5607 94.8467 13.3492C95.3759 13.1266 95.9374 13.0152 96.5312 13.0152C97.0063 13.0152 97.4382 13.082 97.8269 13.2157H100.839V15.286H99.6733C99.7057 15.3863 99.7327 15.5142 99.7543 15.67C99.7867 15.8259 99.8029 15.9873 99.8029 16.1542C99.8029 16.811 99.6572 17.3453 99.3656 17.7572C99.074 18.1579 98.6799 18.4529 98.1833 18.6421C97.6865 18.8314 97.1359 18.9259 96.5312 18.9259C96.2612 18.9259 95.9589 18.887 95.6242 18.809C95.4946 18.9315 95.4299 19.0929 95.4299 19.2932C95.4299 19.4713 95.5163 19.5993 95.6891 19.6773C95.8725 19.7552 96.1641 19.7941 96.5636 19.7941H97.7784C98.7933 19.7941 99.5762 19.9667 100.127 20.3117C100.688 20.6457 100.969 21.1966 100.969 21.9647C100.969 22.5659 100.775 23.0945 100.386 23.551C100.008 24.0073 99.4682 24.3635 98.7663 24.6195C98.0645 24.8756 97.233 25.0036 96.2721 25.0036ZM96.5312 17.2229C96.7904 17.2229 97.0009 17.1283 97.1628 16.939C97.3249 16.7498 97.4058 16.4548 97.4058 16.0541C97.4058 15.6645 97.3249 15.3806 97.1628 15.2025C97.0009 15.0133 96.7904 14.9188 96.5312 14.9188C96.2721 14.9188 96.0615 15.0133 95.8996 15.2025C95.7375 15.3806 95.6566 15.6645 95.6566 16.0541C95.6566 16.4548 95.7375 16.7498 95.8996 16.939C96.0615 17.1283 96.2721 17.2229 96.5312 17.2229ZM96.7255 23.2337C97.179 23.2337 97.557 23.1614 97.8593 23.0167C98.1617 22.883 98.3128 22.6994 98.3128 22.4656C98.3128 22.2431 98.2157 22.1039 98.0214 22.0483C97.8377 21.9926 97.5732 21.9647 97.2277 21.9647H96.596C96.2721 21.9647 96.0237 21.9537 95.851 21.9313C95.6891 21.9203 95.5485 21.898 95.4299 21.8646C95.2354 22.065 95.1383 22.2653 95.1383 22.4656C95.1383 22.7328 95.284 22.9276 95.5756 23.0501C95.8779 23.1726 96.2612 23.2337 96.7255 23.2337ZM105.635 21.564V10.7111H112.502V13.1154H108.421V15.1858H111.919V17.5901H108.421V21.564H105.635ZM115.549 21.7644C115.041 21.7644 114.604 21.6476 114.237 21.4138C113.886 21.1755 113.602 20.8477 113.411 20.4621C113.216 20.0725 113.119 19.6494 113.119 19.1931C113.119 18.3248 113.465 17.6459 114.156 17.156C114.847 16.6551 115.97 16.3213 117.525 16.1542C117.46 15.5754 117.082 15.286 116.391 15.286C116.1 15.286 115.792 15.3472 115.468 15.4696C115.144 15.5809 114.771 15.7535 114.35 15.9873L113.379 14.1173C113.951 13.761 114.529 13.4883 115.112 13.299C115.704 13.1101 116.321 13.0144 116.942 13.0152C118 13.0152 118.826 13.3269 119.42 13.9503C120.014 14.5625 120.311 15.5532 120.311 16.9223V21.564H118.043L117.849 20.7625H117.784C117.46 21.0631 117.114 21.3081 116.747 21.4972C116.391 21.6753 115.992 21.7644 115.549 21.7644ZM116.521 19.5604C116.747 19.5604 116.936 19.5102 117.088 19.4102C117.239 19.2989 117.384 19.1597 117.525 18.9928V17.8573C116.866 17.9575 116.407 18.1077 116.148 18.3081C115.9 18.5086 115.776 18.7256 115.776 18.9594C115.776 19.36 116.024 19.5604 116.521 19.5604ZM125.787 21.7644C125.021 21.7644 124.33 21.5918 123.714 21.2467C123.099 20.9017 122.607 20.4063 122.24 19.7607C121.884 19.1041 121.706 18.3137 121.706 17.3898C121.706 16.466 121.905 15.6812 122.305 15.0356C122.715 14.3787 123.25 13.878 123.908 13.5328C124.567 13.1878 125.28 13.0152 126.046 13.0152C126.532 13.0152 126.97 13.0932 127.358 13.2489C127.758 13.4048 128.109 13.6163 128.411 13.8835L127.115 15.7201C126.943 15.5644 126.786 15.4586 126.646 15.403C126.506 15.3473 126.358 15.3191 126.208 15.3194C125.69 15.3194 125.285 15.5086 124.994 15.8872C124.702 16.2544 124.556 16.7553 124.556 17.3898C124.556 18.0244 124.707 18.5308 125.01 18.9092C125.312 19.2765 125.679 19.4603 126.111 19.4603C126.338 19.4603 126.559 19.4102 126.775 19.3099C126.997 19.2019 127.208 19.0733 127.407 18.9259L128.476 20.796C128.076 21.1634 127.634 21.4193 127.148 21.564C126.662 21.6975 126.208 21.7644 125.787 21.7644ZM133.034 21.7644C132.245 21.7644 131.533 21.5918 130.896 21.2467C130.269 20.9017 129.773 20.4063 129.406 19.7607C129.038 19.1041 128.855 18.3137 128.855 17.3898C128.855 16.4882 129.038 15.7146 129.406 15.069C129.784 14.4122 130.269 13.9057 130.863 13.5495C131.457 13.1933 132.083 13.0152 132.742 13.0152C133.541 13.0152 134.2 13.199 134.718 13.5662C135.247 13.9224 135.636 14.4066 135.884 15.0188C136.143 15.631 136.273 16.3101 136.273 17.0559C136.273 17.3007 136.257 17.5401 136.224 17.7739C136.203 17.9965 136.181 18.1579 136.159 18.2581H131.544C131.673 18.759 131.905 19.1096 132.24 19.3099C132.575 19.4992 132.969 19.5938 133.422 19.5938C133.941 19.5938 134.491 19.4269 135.074 19.0929L135.981 20.796C135.549 21.1076 135.064 21.347 134.524 21.5139C133.984 21.6808 133.487 21.7644 133.034 21.7644ZM131.511 16.3879H133.908C133.908 16.0651 133.827 15.7869 133.665 15.5532C133.514 15.3082 133.228 15.1858 132.807 15.1858C132.504 15.1858 132.235 15.2805 131.997 15.4696C131.759 15.6589 131.597 15.965 131.511 16.3879Z" fill="white"/>
<path d="M35.3823 23.1544C35.3002 22.8349 35.1672 22.5318 34.9888 22.2572C35.027 22.1125 35.056 21.9656 35.0756 21.8173C35.2022 20.8753 34.8856 20.013 34.2885 19.3456C33.9651 18.9812 33.6185 18.7407 33.2514 18.593C33.4924 17.5301 33.6144 16.4424 33.615 15.3509C33.615 14.8525 33.5876 14.3642 33.5418 13.8831C33.5177 13.6429 33.4888 13.4032 33.4551 13.1642C33.3499 12.4592 33.1939 11.7632 32.9884 11.082C32.8537 10.6345 32.6979 10.194 32.5216 9.76213C32.2573 9.12257 31.9486 8.5034 31.598 7.90946C31.3679 7.5144 31.1174 7.13234 30.8475 6.76497C30.7153 6.57945 30.5775 6.39832 30.4341 6.22181C30.0094 5.68959 29.5479 5.18982 29.053 4.72647C28.8888 4.57071 28.7198 4.42032 28.5463 4.27551C28.3755 4.12864 28.2009 3.98647 28.0228 3.84915C27.6642 3.57407 27.2936 3.31598 26.9123 3.07571C24.8052 1.75642 22.3342 1 19.6932 1C12.0039 1 5.77165 7.42493 5.77165 15.3515C5.77145 16.4567 5.89566 17.5582 6.14181 18.6338C5.81155 18.7817 5.4949 19.0119 5.20149 19.3453C4.60458 20.0122 4.28778 20.8715 4.41453 21.8133C4.43364 21.9631 4.46269 22.1112 4.50122 22.2569C4.3229 22.5316 4.18992 22.8349 4.10766 23.1544C3.92419 23.8733 3.98458 24.5216 4.21775 25.0895C3.9644 25.832 4.0277 26.6226 4.3578 27.31C4.59785 27.8121 4.94141 28.2003 5.36479 28.5475C5.86828 28.96 6.49852 29.3107 7.25888 29.6469C8.16586 30.0457 9.27284 30.4204 9.77633 30.5578C11.0769 30.905 12.3239 31.1251 13.5879 31.1356C15.3884 31.153 16.9391 30.7164 18.0494 29.5993C18.5948 29.6682 19.1437 29.7027 19.6932 29.7026C20.2738 29.7013 20.8537 29.6635 21.4298 29.5897C22.5374 30.7138 24.0941 31.1544 25.9013 31.1366C27.165 31.1263 28.412 30.9063 29.7092 30.5586C30.2161 30.4211 31.3228 30.0465 32.2302 29.6479C32.9906 29.3109 33.6206 28.9603 34.1277 28.5483C34.5478 28.2012 34.8911 27.8128 35.1313 27.3108C35.4647 26.6234 35.5248 25.8328 35.2747 25.0903C35.5057 24.5224 35.5657 23.8726 35.3823 23.1544ZM34.092 25.0414C34.3475 25.5412 34.3639 26.106 34.1384 26.6319C33.7965 27.4292 32.9473 28.057 31.298 28.7311C30.2725 29.1506 29.3333 29.4185 29.325 29.421C27.9685 29.7837 26.7416 29.9678 25.6796 29.9678C23.921 29.9678 22.6125 29.4677 21.7826 28.4797C20.3791 28.7261 18.946 28.7344 17.54 28.5045C16.7091 29.4761 15.4078 29.9678 13.664 29.9678C12.6019 29.9678 11.3752 29.7837 10.0187 29.421C10.0103 29.4185 9.07163 29.1506 8.04569 28.7311C6.39638 28.057 5.54704 27.4295 5.20531 26.6319C4.97979 26.106 4.99615 25.5412 5.25164 25.0414C5.27534 24.9951 5.30057 24.9497 5.32763 24.906C5.17449 24.6689 5.07179 24.401 5.02624 24.1201C4.98071 23.8392 4.99338 23.5514 5.06343 23.2759C5.16495 22.8784 5.37472 22.5477 5.65942 22.3101C5.52233 22.0778 5.43235 21.8193 5.39491 21.5501C5.31295 20.9647 5.50132 20.3801 5.92546 19.9036C6.25557 19.5327 6.72236 19.3286 7.23931 19.3286H7.25307C6.86338 18.041 6.66577 16.6998 6.66701 15.351C6.66701 7.99457 12.4522 2.03052 19.589 2.03052C26.7259 2.03052 32.5109 7.9941 32.5109 15.351C32.5118 16.7034 32.3129 18.0481 31.9209 19.3387C31.9833 19.3324 32.0444 19.3291 32.1044 19.3291C32.6212 19.3291 33.0881 19.533 33.4182 19.9039C33.842 20.3801 34.0309 20.9652 33.9488 21.5504C33.9113 21.8196 33.8214 22.0783 33.6843 22.3106C33.9689 22.548 34.1787 22.8787 34.2802 23.2764C34.3501 23.5519 34.3628 23.8395 34.3172 24.1206C34.2717 24.4015 34.1691 24.6693 34.016 24.9065C34.0431 24.9497 34.0686 24.9951 34.092 25.0414Z" fill="white"/>
<path d="M34.0166 24.9066C34.1697 24.6694 34.2723 24.4016 34.3179 24.1207C34.3634 23.8397 34.3507 23.552 34.2809 23.2765C34.1793 22.879 33.9696 22.5483 33.6849 22.3107C33.8219 22.0784 33.9119 21.8199 33.9494 21.5507C34.0313 20.9653 33.843 20.3807 33.4188 19.9042C33.0887 19.5333 32.6218 19.3292 32.105 19.3292C32.0449 19.3292 31.9839 19.3323 31.9215 19.3388C32.3131 18.0482 32.5117 16.7035 32.5105 15.3513C32.5105 7.99495 26.7253 2.03076 19.5891 2.03076C12.4529 2.03076 6.66714 7.99432 6.66714 15.3513C6.6659 16.7001 6.86351 18.0413 7.2532 19.3289H7.23944C6.72264 19.3289 6.25585 19.533 5.92574 19.9039C5.50191 20.38 5.31324 20.965 5.39519 21.5504C5.4326 21.8196 5.52258 22.0781 5.6597 22.3104C5.37501 22.548 5.16523 22.8786 5.06386 23.2763C4.99387 23.5518 4.98124 23.8397 5.02683 24.1207C5.07242 24.4016 5.17519 24.6695 5.32837 24.9066C5.30101 24.9503 5.27593 24.9957 5.25238 25.042C4.99705 25.5418 4.98053 26.1066 5.20606 26.6325C5.54778 27.4296 6.39713 28.0577 8.04643 28.7317C9.07191 29.1512 10.0112 29.4191 10.0194 29.4216C11.3759 29.7843 12.6026 29.9686 13.6646 29.9686C15.4086 29.9686 16.7097 29.4768 17.5407 28.5051C18.9468 28.735 20.3799 28.7267 21.7833 28.4803C22.6131 29.4683 23.9218 29.9686 25.6804 29.9686C26.7424 29.9686 27.9693 29.7843 29.3258 29.4216C29.334 29.4191 30.2728 29.1512 31.2987 28.7317C32.948 28.0577 33.7974 27.4296 34.1391 26.6325C34.3646 26.1066 34.3483 25.5418 34.0928 25.042C34.0694 24.9952 34.0437 24.9499 34.0166 24.9066ZM16.9461 26.984C16.8746 27.1131 16.798 27.2391 16.7163 27.3615C16.5015 27.6858 16.2189 27.9334 15.8911 28.1176C15.2641 28.4699 14.4707 28.5932 13.6645 28.5932C12.3912 28.5932 11.0857 28.286 10.354 28.0902C10.318 28.0806 5.86887 26.7851 6.43214 25.6824C6.52694 25.497 6.68304 25.423 6.87936 25.423C7.67244 25.423 9.11657 26.6404 9.73734 26.6404C9.87586 26.6404 9.9737 26.5794 10.0136 26.4311C10.2781 25.4531 5.99348 25.042 6.35431 23.6259C6.41807 23.3753 6.59069 23.2736 6.83365 23.2736C7.88206 23.2735 10.2355 25.1744 10.7276 25.1744C10.7654 25.1744 10.7925 25.163 10.8071 25.1391L10.8136 25.1282C11.0444 24.7349 10.912 24.449 9.32924 23.4497L9.17726 23.3543C7.43576 22.2676 6.21319 21.6137 6.90857 20.8335C6.98853 20.7434 7.10183 20.7035 7.23959 20.7035C7.40304 20.7035 7.60073 20.7599 7.81846 20.8543C8.73829 21.2542 10.0131 22.3448 10.5457 22.8205C10.7027 22.9614 10.7952 23.0475 10.7952 23.0475C10.7952 23.0475 11.4695 23.7703 11.8773 23.7703C11.9711 23.7703 12.0507 23.7323 12.1046 23.6379C12.3939 23.1354 9.41929 20.8118 9.25157 19.8531C9.13796 19.2034 9.33138 18.8745 9.68931 18.8745C9.85933 18.8745 10.067 18.949 10.2962 19.0989C11.0071 19.5642 12.3798 21.996 12.8824 22.9419C13.0509 23.259 13.3385 23.393 13.5977 23.393C14.1119 23.393 14.5138 22.866 13.6448 22.1965C12.3386 21.1888 12.7969 19.542 13.4203 19.4406C13.4469 19.4364 13.4738 19.4342 13.5006 19.434C14.0675 19.434 14.3177 20.4412 14.3177 20.4412C14.3177 20.4412 15.0505 22.3386 16.3096 23.6355C17.4522 24.8128 17.6117 25.779 16.9461 26.984ZM21.0176 27.2063L20.9523 27.2143L20.8409 27.2276C20.7823 27.2337 20.7238 27.2397 20.6649 27.2454L20.6074 27.2507L20.5551 27.2553L20.4806 27.2614C20.4533 27.2635 20.4259 27.2657 20.3985 27.2674L20.3166 27.2731L20.2985 27.2742L20.234 27.2782L20.2067 27.2796L20.1302 27.2835L20.0414 27.2873L19.9606 27.2901L19.9068 27.2917H19.8796C19.8628 27.2917 19.8461 27.2927 19.8293 27.2928H19.8026C19.7857 27.2928 19.7691 27.2928 19.7522 27.2938L19.6839 27.2945H19.5882C19.5131 27.2945 19.4383 27.2938 19.3636 27.2923L19.303 27.2909C19.2859 27.2909 19.2686 27.29 19.2515 27.2895L19.1874 27.2875L19.1076 27.2843L19.0359 27.2812L19.0173 27.2804L18.9489 27.2766C18.93 27.2755 18.911 27.2745 18.8922 27.2733L18.848 27.2706C18.7925 27.267 18.737 27.2629 18.6815 27.2585L18.6234 27.2537L18.55 27.2473L18.4642 27.2391C18.4164 27.2345 18.3685 27.2294 18.3207 27.2239H18.3184C19.0171 25.617 18.6638 24.1163 17.2518 22.6618C16.3258 21.7085 15.7096 20.3004 15.582 19.9914C15.3233 19.0764 14.6384 18.0592 13.5013 18.0592C13.4052 18.0594 13.3093 18.0673 13.2144 18.0827C12.7161 18.1634 12.2806 18.4591 11.9699 18.9039C11.6343 18.4735 11.3079 18.1313 11.0128 17.9379C10.5679 17.6472 10.124 17.4997 9.6913 17.4997C9.15157 17.4997 8.66887 17.7282 8.3325 18.1428L8.32409 18.1533L8.30513 18.0712L8.30437 18.0678C8.24039 17.7856 8.18665 17.5009 8.14321 17.2147C8.14321 17.2127 8.14321 17.2108 8.1423 17.2089L8.13282 17.1441C8.12769 17.1091 8.12269 17.074 8.11783 17.039C8.11386 17.0098 8.10988 16.9806 8.10621 16.9516C8.10254 16.9226 8.09857 16.8935 8.0952 16.8643C8.09153 16.835 8.08817 16.8058 8.08481 16.7767C8.08158 16.7489 8.07848 16.7212 8.07548 16.6935L8.07458 16.6864C8.06079 16.5584 8.04897 16.4302 8.03909 16.3019L8.03374 16.2277C8.03221 16.2074 8.03083 16.1869 8.02961 16.1662C8.02961 16.1615 8.029 16.1566 8.02869 16.1522L8.02366 16.0699C8.02183 16.0401 8.02044 16.0103 8.01891 15.9805C8.01738 15.9509 8.01585 15.9211 8.01463 15.8912L8.01157 15.8131L8.01065 15.7895L8.00836 15.7173L8.00669 15.6562C8.00669 15.6317 8.00561 15.6071 8.00515 15.5827L8.00392 15.5056C8.00362 15.4799 8.00392 15.4544 8.00331 15.4287C8.00255 15.4029 8.00331 15.3772 8.00331 15.3513C8.00331 8.75452 13.1913 3.4063 19.5909 3.4063C25.9906 3.4063 31.1784 8.75421 31.1784 15.3513V15.5056C31.1784 15.5313 31.1778 15.5572 31.1772 15.5827C31.1772 15.6041 31.1764 15.6251 31.1758 15.6465C31.1758 15.6656 31.1751 15.6845 31.1743 15.703C31.1743 15.7271 31.1729 15.751 31.1721 15.7752V15.7772C31.1702 15.8295 31.168 15.8819 31.1659 15.9342L31.165 15.9515L31.161 16.0297L31.1573 16.0917C31.1488 16.2384 31.1376 16.3852 31.124 16.5316V16.5336C31.1215 16.5611 31.1188 16.5886 31.1159 16.6161C31.1092 16.6799 31.1023 16.7437 31.0954 16.8076L31.0876 16.8717L31.078 16.9471C31.0746 16.9747 31.0709 17.0021 31.0671 17.0295C31.063 17.0602 31.0585 17.0908 31.0543 17.1214L31.0436 17.1936L31.031 17.2756C31.0267 17.3028 31.0225 17.3299 31.0174 17.3572C31.0122 17.3843 31.0082 17.4114 31.0037 17.4387C30.9945 17.4929 30.985 17.547 30.9748 17.601C30.9544 17.7087 30.9332 17.816 30.9107 17.9232C30.905 17.9499 30.8992 17.9766 30.8933 18.0033C30.5671 17.6765 30.1353 17.4986 29.6589 17.4986C29.2267 17.4986 28.7824 17.646 28.3376 17.9368C28.0423 18.13 27.7162 18.4724 27.3803 18.9028C27.0691 18.4579 26.6337 18.1623 26.136 18.0815C26.0411 18.0662 25.945 18.0583 25.8489 18.0581C24.7115 18.0581 24.0271 19.0753 23.7682 19.9903C23.64 20.2993 23.0238 21.7072 22.0968 22.6621C20.6858 24.1119 20.3297 25.606 21.0176 27.2063ZM32.9803 23.9896L32.9757 24.0036C32.9725 24.0126 32.9693 24.0216 32.9658 24.0304C32.9603 24.0438 32.9545 24.0569 32.9484 24.0699C32.9335 24.1012 32.9167 24.1314 32.8982 24.1604C32.8727 24.1997 32.8447 24.2372 32.8143 24.2725C32.8072 24.2807 32.8005 24.2887 32.7926 24.2968C32.7818 24.3089 32.7704 24.3207 32.7591 24.3325C32.5531 24.543 32.2394 24.7272 31.8846 24.8965C31.8444 24.9153 31.8038 24.934 31.7625 24.9528L31.7215 24.9715C31.6941 24.984 31.6669 24.9964 31.6382 25.0086C31.6102 25.0209 31.5821 25.033 31.5539 25.045L31.4686 25.0814C31.2691 25.166 31.0647 25.2466 30.8651 25.3263L30.78 25.3604L30.6956 25.3944C30.6396 25.417 30.5843 25.4395 30.5297 25.4621L30.4485 25.4958L30.3688 25.5295L30.3295 25.5464C30.3035 25.5577 30.2778 25.5688 30.2525 25.5801C29.6656 25.8396 29.2436 26.1036 29.3323 26.4313C29.3348 26.4406 29.3375 26.4494 29.3406 26.4579C29.3485 26.4822 29.3594 26.5052 29.3729 26.5266C29.3808 26.5395 29.39 26.5517 29.4002 26.5627C29.5045 26.6743 29.6942 26.6567 29.9335 26.5681C29.9529 26.5608 29.9728 26.5531 29.9928 26.5449C30.0066 26.5395 30.0202 26.5339 30.034 26.5282L30.0546 26.5192C30.1094 26.4953 30.1673 26.4686 30.2266 26.4395C30.2415 26.4324 30.2564 26.4254 30.2714 26.4172C30.5639 26.2699 30.8956 26.0711 31.2246 25.8903C31.275 25.8621 31.3257 25.8351 31.376 25.8083C31.4582 25.7644 31.5412 25.722 31.625 25.6815C31.9366 25.5305 32.2294 25.4233 32.465 25.4233C32.5754 25.4233 32.6731 25.4466 32.7543 25.5002L32.7679 25.5095C32.8091 25.5394 32.8448 25.5762 32.874 25.6184C32.8808 25.6283 32.8878 25.6386 32.8938 25.6491C32.9002 25.66 32.9063 25.6712 32.9121 25.6826C33.0285 25.9102 32.9311 26.1461 32.7033 26.3774C32.4845 26.5993 32.1441 26.817 31.7571 27.0186C31.7285 27.0335 31.6996 27.0485 31.6706 27.063C30.5191 27.6459 29.0116 28.0849 28.9905 28.0904C28.5886 28.1977 28.0141 28.3388 27.3668 28.4442L27.271 28.4595L27.2554 28.4619C27.1086 28.4846 26.9614 28.5046 26.8138 28.5219L26.8002 28.5234C26.5319 28.5549 26.2566 28.5777 25.981 28.5874H25.9768C25.8778 28.5911 25.7788 28.5929 25.6798 28.5929H25.5657C25.4146 28.5907 25.2637 28.5837 25.1131 28.5717C25.1096 28.5717 25.1059 28.5717 25.1023 28.571C25.0485 28.5667 24.9945 28.5615 24.9408 28.5554C24.8485 28.5451 24.7563 28.5325 24.6644 28.5177C24.6286 28.5115 24.5904 28.5051 24.5535 28.4985C24.5367 28.4953 24.52 28.4921 24.5034 28.4887L24.4994 28.4879C24.4463 28.4775 24.3936 28.466 24.341 28.4535C24.3106 28.4464 24.28 28.4393 24.2499 28.431L24.2318 28.4261C24.2168 28.4223 24.2022 28.4182 24.1875 28.4141L24.1794 28.4119L24.1321 28.3979C24.115 28.3928 24.098 28.3876 24.0809 28.3824L24.0748 28.3806L24.0303 28.3665C24.0135 28.3612 23.9968 28.3555 23.9802 28.35C23.9664 28.3452 23.9528 28.3404 23.939 28.3358L23.9089 28.3249C23.8799 28.3145 23.8511 28.3035 23.8224 28.2921L23.7952 28.2813L23.7727 28.272C23.7294 28.254 23.6863 28.2352 23.6436 28.2155L23.6152 28.2015L23.6105 28.1993C23.6004 28.1944 23.5904 28.1895 23.5803 28.1851C23.5606 28.1753 23.541 28.1652 23.5216 28.155L23.5158 28.152L23.4877 28.1367C23.4377 28.1099 23.3886 28.0812 23.3406 28.0507L23.3143 28.0341C23.3007 28.0256 23.2883 28.0169 23.2753 28.0083L23.2411 27.9848C23.2287 27.9763 23.2163 27.9676 23.2042 27.9586L23.1822 27.9425C23.159 27.9253 23.1362 27.9078 23.1137 27.8897C23.1018 27.8803 23.09 27.8705 23.0782 27.8615C23.0521 27.8399 23.0265 27.8177 23.0013 27.7948L23.0002 27.7939C22.9756 27.772 22.9516 27.7493 22.9282 27.7261L22.927 27.7245C22.9148 27.7126 22.9028 27.7006 22.8909 27.6881C22.8791 27.6757 22.8672 27.6634 22.8558 27.6509C22.8441 27.6383 22.8325 27.6255 22.8212 27.6125C22.8102 27.6002 22.7995 27.5877 22.7888 27.5751L22.7851 27.5709C22.7299 27.5048 22.6782 27.4356 22.6304 27.3636L22.6114 27.3347C22.5989 27.3157 22.5865 27.2964 22.5743 27.2772L22.5382 27.22C22.5205 27.1921 22.5032 27.1639 22.4864 27.1355C22.4743 27.1153 22.4624 27.0952 22.4506 27.0748C22.4406 27.0575 22.4307 27.0403 22.4212 27.0233C22.4159 27.014 22.4108 27.0045 22.4058 26.9951C22.4007 26.9853 22.3948 26.9754 22.3894 26.9654L22.3809 26.9498C22.378 26.9446 22.377 26.9431 22.3755 26.9396C22.3651 26.9208 22.355 26.9018 22.3452 26.8824C22.3408 26.874 22.3364 26.8655 22.3316 26.8572L22.3179 26.83L22.3043 26.8031L22.278 26.7484C22.2737 26.7394 22.2695 26.7304 22.2654 26.7214C22.2564 26.7021 22.2478 26.683 22.2393 26.6639C22.2359 26.6562 22.2324 26.6485 22.2293 26.6407C22.2176 26.6144 22.2064 26.5878 22.1959 26.5608C22.1887 26.543 22.1821 26.5254 22.1751 26.5077C22.1553 26.4557 22.1368 26.4032 22.1199 26.3501C22.1148 26.3343 22.1098 26.3187 22.1053 26.303C22.0943 26.2672 22.0844 26.2311 22.0755 26.1947C22.0647 26.1523 22.055 26.1094 22.0469 26.0664C22.0417 26.041 22.0371 26.0155 22.0333 25.9898C22.0292 25.9644 22.0257 25.939 22.0228 25.9138C22.0165 25.8635 22.0121 25.8131 22.0095 25.7625C22.0095 25.7541 22.0087 25.7456 22.0086 25.7373C22.0078 25.7205 22.0073 25.7038 22.0072 25.6871C21.9986 25.0138 22.3293 24.3661 23.0362 23.6377C24.2951 22.341 25.0281 20.4434 25.0281 20.4434C25.0281 20.4434 25.0478 20.3638 25.089 20.2494C25.1027 20.2114 25.1171 20.1736 25.1322 20.1362C25.1495 20.094 25.168 20.0522 25.1879 20.0112L25.1937 19.9992C25.2192 19.9469 25.2469 19.896 25.277 19.8463C25.2839 19.8348 25.2906 19.8233 25.2986 19.812C25.3209 19.7776 25.3446 19.7444 25.3695 19.7121C25.3888 19.6873 25.4093 19.6633 25.4309 19.6406C25.5039 19.5631 25.5873 19.4997 25.6816 19.4658L25.6935 19.4619C25.7015 19.4592 25.7093 19.4567 25.7174 19.4543C25.7269 19.4518 25.7363 19.4495 25.7458 19.4474L25.7501 19.4466C25.7701 19.4425 25.7902 19.4397 25.8105 19.4383H25.8123C25.8229 19.4383 25.8334 19.4372 25.8443 19.4372C25.8713 19.4373 25.8983 19.4395 25.925 19.4438C26.0385 19.4622 26.1466 19.5319 26.2395 19.6394L26.2521 19.6545C26.2823 19.6911 26.3099 19.7302 26.3343 19.7712C26.3527 19.8016 26.3699 19.8336 26.3863 19.8671C26.3929 19.8813 26.3992 19.8943 26.4054 19.9081C26.4085 19.9152 26.4115 19.9222 26.4144 19.9294C26.4206 19.9434 26.4262 19.9576 26.4319 19.9724C26.4638 20.0569 26.4886 20.1441 26.506 20.233C26.5245 20.329 26.5352 20.4264 26.5383 20.5243C26.5394 20.5673 26.5394 20.6108 26.5383 20.6549C26.5375 20.6716 26.5368 20.6885 26.5355 20.7054C26.523 20.8928 26.4834 21.0772 26.418 21.2526C26.4114 21.27 26.4042 21.2876 26.3975 21.3053C26.3646 21.3863 26.3264 21.4648 26.2833 21.5404C26.2586 21.5836 26.232 21.6265 26.2036 21.6691L26.1862 21.6946C26.1187 21.7917 26.0435 21.8828 25.9613 21.967C25.8802 22.0507 25.7934 22.1281 25.7015 22.1988C25.6093 22.269 25.5229 22.3468 25.4431 22.4315C25.2133 22.6802 25.1598 22.8995 25.2114 23.0657C25.2176 23.0845 25.2247 23.1029 25.233 23.1208C25.2521 23.1594 25.2769 23.1948 25.3065 23.2257L25.3146 23.2341C25.3231 23.2424 25.3319 23.2505 25.3409 23.2582L25.3501 23.2659C25.3724 23.2836 25.396 23.2993 25.4206 23.3131C25.4276 23.317 25.4342 23.3209 25.4423 23.3247C25.4761 23.3421 25.5114 23.3559 25.5478 23.3665L25.5579 23.3692L25.5715 23.3729L25.5834 23.3759L25.5961 23.3788L25.6088 23.3815L25.6209 23.3835C25.6299 23.3852 25.6391 23.3867 25.6481 23.3879L25.657 23.3892L25.6727 23.3909L25.6825 23.3919L25.6987 23.3931H25.7081L25.7249 23.3939H25.7779L25.7931 23.3931L25.8105 23.392L25.8317 23.39L25.8516 23.3874C25.8561 23.3874 25.8606 23.3862 25.8652 23.3854C25.9353 23.3748 26.0035 23.3545 26.068 23.3249C26.0817 23.3189 26.0953 23.3123 26.1079 23.3053C26.1348 23.2915 26.1609 23.2759 26.186 23.2587C26.221 23.235 26.2541 23.2084 26.2851 23.1794L26.3066 23.1583C26.31 23.1548 26.3135 23.1515 26.3167 23.1479C26.3378 23.1261 26.3577 23.1031 26.3762 23.079C26.4089 23.0364 26.438 22.9912 26.4632 22.9436C26.7624 22.3828 27.076 21.8302 27.4037 21.2865L27.4486 21.2123L27.494 21.1379C27.5168 21.1004 27.5396 21.0632 27.5624 21.0264L27.5855 20.9894L27.6315 20.9155C27.6933 20.817 27.7552 20.7196 27.8176 20.6231L27.8642 20.5512C27.9578 20.4084 28.0512 20.2694 28.1436 20.1372L28.1897 20.0719C28.2902 19.9288 28.3949 19.789 28.5036 19.6525L28.5469 19.5992C28.5539 19.5902 28.5605 19.5815 28.5683 19.5729L28.6107 19.5223C28.6177 19.5139 28.6244 19.5057 28.6318 19.4977L28.6727 19.4499L28.6934 19.4269C28.7133 19.4047 28.7334 19.3828 28.7539 19.361C28.7677 19.347 28.7804 19.3328 28.7937 19.3197C28.8712 19.2379 28.9567 19.1646 29.0489 19.1011L29.0701 19.0871L29.0917 19.0729C29.1054 19.0641 29.1193 19.0556 29.1336 19.0475C29.495 18.8362 29.7944 18.8205 29.9665 18.998C30.071 19.1057 30.1286 19.284 30.1256 19.5319C30.1256 19.5429 30.1256 19.5538 30.1246 19.5651V19.5774C30.1246 19.5886 30.1237 19.6001 30.123 19.6116C30.123 19.6257 30.1213 19.6399 30.1199 19.6539C30.1185 19.6681 30.1179 19.6788 30.1165 19.6912C30.1165 19.6949 30.1158 19.6985 30.1153 19.7021C30.1142 19.7132 30.1129 19.7243 30.1115 19.7354C30.1115 19.7388 30.1115 19.7422 30.1101 19.7456C30.1086 19.7606 30.1065 19.7756 30.1039 19.7904C30.1022 19.8041 30.1 19.8178 30.0974 19.8315C30.0964 19.8394 30.0948 19.8471 30.0936 19.855C30.0896 19.8774 30.0844 19.8996 30.0782 19.9214C30.0664 19.962 30.052 20.0019 30.035 20.0407C30.0277 20.0576 30.0199 20.0744 30.012 20.091C29.9954 20.1252 29.9768 20.1602 29.9563 20.1964C29.9461 20.2142 29.9355 20.2327 29.9242 20.2511L29.9071 20.2792C29.8896 20.3074 29.8714 20.3359 29.8525 20.3648C29.8335 20.3936 29.8132 20.4231 29.7913 20.4529C29.763 20.4926 29.7332 20.5331 29.7017 20.5741L29.6779 20.6051C29.6105 20.6917 29.5413 20.7768 29.4707 20.8605L29.4146 20.9259L29.386 20.959C29.347 21.0039 29.3079 21.0485 29.2684 21.0928L29.2381 21.1265C29.2181 21.1489 29.1972 21.1716 29.1771 21.1942C29.1567 21.217 29.1359 21.2397 29.1151 21.2624L29.0521 21.3308L28.9883 21.3994C28.9671 21.4222 28.9457 21.4454 28.9241 21.4683L28.7943 21.6062C28.1743 22.2617 27.521 22.9151 27.2999 23.3224C27.2852 23.349 27.2719 23.3763 27.2598 23.4042C27.2285 23.4782 27.2153 23.5416 27.2242 23.5928C27.2271 23.6097 27.2329 23.6259 27.2413 23.6406C27.2538 23.6628 27.269 23.6833 27.2864 23.7016C27.2945 23.7098 27.3029 23.7175 27.3121 23.7244C27.3575 23.7579 27.4126 23.775 27.4684 23.7733H27.4858L27.5037 23.772L27.5217 23.7698L27.5366 23.7676C27.5385 23.7675 27.5405 23.767 27.5425 23.7665L27.5561 23.7638L27.5598 23.7629L27.5748 23.7596L27.5801 23.7582L27.5962 23.7539L27.6153 23.7481C27.6278 23.7441 27.6404 23.7397 27.6532 23.7348C27.6809 23.7248 27.708 23.7131 27.7344 23.7C27.7411 23.6967 27.748 23.6935 27.7546 23.6899L27.7749 23.6795C27.8015 23.6656 27.828 23.6507 27.8546 23.6344C27.8758 23.6215 27.8969 23.6083 27.918 23.5942L27.9385 23.5802C27.9452 23.5758 27.9521 23.5712 27.9589 23.566L27.9792 23.552L27.9899 23.5443L28.0192 23.5232C28.0466 23.5036 28.0722 23.4836 28.0981 23.4633L28.1004 23.4615L28.1414 23.4287C28.1975 23.383 28.2509 23.337 28.2991 23.2937L28.3312 23.2645L28.3342 23.2617L28.3509 23.2464C28.3903 23.21 28.4255 23.1759 28.4549 23.1477L28.4668 23.1357L28.4957 23.1075L28.513 23.0902L28.5189 23.0839L28.5206 23.0821C28.5353 23.067 28.5353 23.067 28.55 23.0517L28.5512 23.0505L28.5567 23.0454C28.5584 23.0435 28.5607 23.0416 28.5633 23.0393L28.5654 23.0372L28.5712 23.0319L28.6022 23.0036L28.6197 22.9874C28.6282 22.9798 28.6376 22.9712 28.647 22.9619L28.668 22.943C28.6717 22.9398 28.6753 22.9362 28.6792 22.9327L28.701 22.913L28.7333 22.884L28.7503 22.8687C28.8168 22.809 28.8978 22.7369 28.9906 22.6558L29.0287 22.6227L29.0917 22.5683L29.1559 22.5128C29.24 22.4409 29.3305 22.3645 29.4262 22.285L29.4891 22.233C29.5426 22.1892 29.5976 22.1443 29.6533 22.0992C29.6756 22.0811 29.6984 22.063 29.7216 22.045C29.7786 21.9996 29.836 21.9544 29.8935 21.9098C30.0247 21.8076 30.16 21.7053 30.2968 21.6055L30.3557 21.5635C30.3966 21.5341 30.4376 21.505 30.4788 21.4765L30.5159 21.4504C30.5895 21.3994 30.6636 21.3494 30.7384 21.3006L30.7755 21.2764L30.8124 21.2528C30.8492 21.2293 30.8861 21.206 30.9225 21.1834L30.959 21.1611L31.0322 21.1171C31.0562 21.1027 31.0801 21.0887 31.104 21.0748L31.1183 21.0665L31.1752 21.0345C31.1987 21.0212 31.2224 21.0085 31.2458 20.996L31.281 20.9774L31.315 20.9596C31.3926 20.9194 31.4717 20.8822 31.5521 20.8482C31.5631 20.8435 31.574 20.8389 31.5848 20.834C31.6064 20.8247 31.6278 20.8162 31.649 20.8086C31.6703 20.8012 31.6912 20.7935 31.7119 20.7859C31.7307 20.7795 31.7489 20.7735 31.7666 20.7678L31.7726 20.7659C31.7821 20.7629 31.7915 20.7601 31.801 20.7575L31.8038 20.7568C31.823 20.7511 31.8423 20.7459 31.8617 20.7412H31.8632C31.8918 20.7341 31.9197 20.7281 31.9469 20.7233C31.9562 20.7218 31.9654 20.7202 31.9742 20.7189C32.0007 20.7148 32.0273 20.712 32.0539 20.7101C32.0707 20.7088 32.0877 20.7084 32.1045 20.7084H32.1174C32.1345 20.7084 32.151 20.7095 32.1674 20.7112C32.1748 20.7112 32.1823 20.7126 32.1897 20.7137H32.1927C32.2001 20.7145 32.2076 20.7158 32.2148 20.7174C32.2219 20.7189 32.2293 20.72 32.2363 20.7218H32.2388C32.2458 20.7233 32.2524 20.7254 32.2597 20.7274C32.3181 20.7437 32.3718 20.7743 32.4163 20.8165L32.4202 20.8206L32.428 20.8285L32.4357 20.8368C32.497 20.9033 32.5478 20.9795 32.586 21.0624L32.5919 21.0764C32.6049 21.1079 32.6152 21.1406 32.6224 21.174C32.6423 21.2671 32.6369 21.3642 32.6068 21.4544C32.5938 21.4936 32.5779 21.5318 32.5591 21.5683L32.5465 21.5917C32.4988 21.6741 32.4426 21.7509 32.3785 21.8205L32.3647 21.8355C32.3346 21.8685 32.3033 21.9005 32.271 21.9312C32.2608 21.9411 32.2502 21.9511 32.2395 21.961L32.2233 21.9761C32.1897 22.0068 32.1553 22.0368 32.1204 22.0661C32.1143 22.0712 32.108 22.0762 32.1021 22.0816C32.0778 22.1017 32.0527 22.1222 32.0267 22.1427C31.9371 22.2133 31.8458 22.2814 31.7528 22.3472C31.6981 22.3858 31.6415 22.4247 31.5831 22.4643C31.4743 22.5379 31.3646 22.6099 31.2539 22.6805C31.222 22.7009 31.1899 22.7215 31.1572 22.742C30.8564 22.9327 30.5229 23.1367 30.1673 23.3584L30.0753 23.4161C29.9745 23.4795 29.8794 23.54 29.79 23.5976L29.7448 23.6269L29.6595 23.6833C29.6257 23.7054 29.5929 23.7271 29.5609 23.7486C29.5368 23.7645 29.5132 23.7802 29.4901 23.7958L29.4446 23.8267C29.4224 23.8417 29.4004 23.8567 29.3784 23.872L29.3569 23.886C29.3343 23.9016 29.3123 23.9169 29.2909 23.932L29.2559 23.9566L29.2148 23.9861L29.1768 24.0134C29.1169 24.0567 29.0577 24.101 28.999 24.1461L28.9785 24.1622C28.9554 24.1801 28.9331 24.1981 28.9116 24.2156L28.8834 24.2388C28.836 24.278 28.7931 24.3157 28.7542 24.3516L28.7353 24.3696C28.7244 24.3798 28.7137 24.3901 28.7036 24.4002C28.6964 24.4071 28.6899 24.4142 28.6827 24.4211L28.6727 24.4312C28.6509 24.4538 28.6296 24.4769 28.609 24.5007L28.5989 24.5127C28.5764 24.5395 28.5568 24.5652 28.5396 24.5903L28.5319 24.6016C28.512 24.6315 28.4945 24.6632 28.4795 24.6962L28.4743 24.7077L28.4711 24.7157L28.4685 24.7227L28.4649 24.7323C28.4639 24.7356 28.4617 24.7414 28.4605 24.7465C28.4542 24.7652 28.4497 24.7846 28.4466 24.8043L28.4451 24.8149L28.4438 24.8245L28.4431 24.8338V24.8833C28.4431 24.8874 28.4431 24.8916 28.444 24.8959C28.4442 24.8984 28.4445 24.9009 28.4448 24.9034C28.4448 24.9075 28.4458 24.9116 28.4463 24.9159L28.4492 24.9332C28.4503 24.9387 28.4513 24.9451 28.4527 24.9506C28.4541 24.9561 28.4555 24.9622 28.4571 24.9681C28.462 24.9859 28.468 25.0035 28.4749 25.0207C28.4749 25.022 28.476 25.0234 28.4764 25.0247C28.4782 25.0289 28.4799 25.0333 28.4819 25.0376C28.4894 25.0555 28.4978 25.073 28.507 25.0902L28.5166 25.108L28.5267 25.126L28.5373 25.144C28.5391 25.147 28.5411 25.1496 28.5434 25.1523L28.5469 25.1561L28.5506 25.1596L28.5547 25.1629C28.5574 25.1649 28.5604 25.1667 28.5634 25.1684C28.5665 25.1698 28.5698 25.1714 28.5732 25.1727C28.5769 25.1739 28.5805 25.175 28.5842 25.176C28.6724 25.1965 28.8538 25.1211 29.0946 24.99L29.1378 24.9663L29.2111 24.9252L29.247 24.9047C29.2724 24.8905 29.2985 24.8748 29.325 24.8592L29.3735 24.8309C29.6919 24.642 30.0725 24.3991 30.4658 24.162C30.5025 24.1398 30.5395 24.1177 30.5765 24.0956L30.6508 24.0468C30.6879 24.0247 30.7249 24.003 30.7621 23.9815C30.9202 23.8888 31.0804 23.7998 31.2423 23.7145L31.315 23.6765C31.3633 23.6519 31.4111 23.628 31.4584 23.6047C31.55 23.5599 31.6425 23.5175 31.7359 23.4773L31.7871 23.4559L31.7934 23.4533C32.0646 23.3425 32.3106 23.274 32.5097 23.274C32.5528 23.2736 32.5958 23.2773 32.6383 23.2848H32.6395C32.6533 23.2874 32.6656 23.2902 32.6782 23.2935H32.6805C32.6988 23.2981 32.7169 23.3039 32.7343 23.3112C32.7482 23.3164 32.7617 23.3225 32.7747 23.3298C32.8317 23.3595 32.8805 23.4035 32.9169 23.4577C32.9199 23.4623 32.9228 23.467 32.9256 23.4719C32.939 23.4931 32.9506 23.5153 32.9601 23.5386C32.9658 23.552 32.971 23.5659 32.9759 23.5808C32.9808 23.596 32.985 23.6105 32.9895 23.6261C33.0219 23.7456 33.0187 23.872 32.9803 23.9896Z" fill="#C0C0C0"/>
<path fill-rule="evenodd" clip-rule="evenodd" d="M31.1762 15.4285V15.3513C31.1762 8.75416 25.9902 3.40625 19.5904 3.40625C13.1909 3.40625 8.00294 8.75447 8.00294 15.3513L8.00279 15.3771C8.00264 15.3943 8.00248 15.4113 8.00279 15.4285C8.00352 15.4542 8.00378 15.4799 8.00355 15.5056L8.00447 15.5623L8.00478 15.5828L8.00554 15.6109C8.00585 15.626 8.00631 15.641 8.00631 15.6561L8.00783 15.7174L8.01028 15.7894L8.01104 15.8131L8.0141 15.8876V15.8911L8.01838 15.9783V15.9805C8.01991 16.0103 8.02144 16.0401 8.02328 16.0697C8.02481 16.0973 8.02649 16.1247 8.02832 16.1521L8.02878 16.157C8.03013 16.1805 8.03165 16.2041 8.03337 16.2276L8.03383 16.2338C8.03536 16.2565 8.03704 16.2793 8.03887 16.3019L8.03918 16.3063L8.04224 16.3457C8.05139 16.4593 8.0621 16.573 8.07434 16.6863L8.07511 16.6934L8.08428 16.7766L8.09483 16.8643C8.10191 16.9226 8.10946 16.9807 8.11746 17.0389C8.12223 17.074 8.12719 17.109 8.13229 17.144L8.13306 17.1483C8.14448 17.2274 8.1568 17.3065 8.17006 17.3853C8.20808 17.6141 8.25274 17.8417 8.304 18.0677L8.30476 18.0713L8.30965 18.0926C8.31424 18.1128 8.31883 18.1329 8.32372 18.1533L8.33213 18.1427C8.6685 17.7282 9.15105 17.4996 9.69093 17.4996C10.1236 17.4996 10.5676 17.647 11.0124 17.9378C11.3075 18.131 11.6338 18.4734 11.9696 18.9039C12.2802 18.4589 12.7157 18.1634 13.2138 18.0827C13.3089 18.0672 13.4049 18.0593 13.501 18.0592C14.6381 18.0592 15.3229 19.0765 15.5816 19.9913C15.7093 20.3005 16.3254 21.7082 17.2544 22.6606C18.6664 24.115 19.0198 25.6158 18.321 27.2228H18.3233C18.371 27.2281 18.4189 27.2332 18.4669 27.2377C18.4955 27.2406 18.5241 27.2434 18.5527 27.2459L18.5628 27.2469C18.5837 27.2489 18.6048 27.2508 18.6259 27.2524L18.684 27.2573C18.7394 27.2617 18.7949 27.2656 18.8507 27.2694L18.8947 27.2721L18.9297 27.2741L18.9516 27.2754L19.0198 27.2792L19.0384 27.28L19.1103 27.2831L19.19 27.2863L19.2542 27.2882L19.2649 27.2887C19.2783 27.2891 19.2921 27.2898 19.3057 27.2898L19.3202 27.2901C19.4104 27.2923 19.5005 27.2934 19.5907 27.2934H19.6864L19.7549 27.2926C19.7717 27.2916 19.7884 27.2916 19.8052 27.2916H19.8318L19.8549 27.2912C19.8639 27.2909 19.8731 27.2905 19.8821 27.2905H19.9095L19.9632 27.289L20.0439 27.2861L20.1329 27.2822C20.1584 27.2811 20.1838 27.2798 20.2093 27.2784L20.2367 27.2768L20.2772 27.2745L20.3012 27.273L20.3191 27.2719L20.4012 27.2663C20.4286 27.2645 20.456 27.2623 20.4833 27.2601L20.5576 27.2541L20.6101 27.2496L20.6674 27.2442C20.7263 27.2385 20.785 27.2325 20.8434 27.2262C20.8807 27.222 20.9177 27.2177 20.9549 27.2132L21.0201 27.2051C20.3323 25.6048 20.6884 24.1107 22.0947 22.662C23.0216 21.7073 23.6377 20.2993 23.7662 19.9902C24.025 19.0752 24.7092 18.0581 25.8466 18.0581C25.9428 18.0582 26.0388 18.066 26.1338 18.0816C26.6315 18.1623 27.0671 18.458 27.3782 18.9028C27.7141 18.4723 28.0403 18.1299 28.3354 17.9367C28.7801 17.6459 29.2245 17.4985 29.6567 17.4985C30.1331 17.4985 30.5651 17.6766 30.8912 18.0032C30.9091 17.9209 30.9264 17.8387 30.9429 17.7561C30.953 17.7045 30.9629 17.6528 30.9727 17.601C30.9846 17.5373 30.9959 17.4733 31.0063 17.4093C31.0091 17.392 31.012 17.3746 31.0152 17.3571C31.0202 17.3299 31.0247 17.3029 31.0288 17.2755L31.0305 17.2651L31.0413 17.1937L31.052 17.1213C31.0563 17.0911 31.0609 17.0599 31.0649 17.0294C31.0681 17.0064 31.0712 16.9834 31.0741 16.9602L31.0759 16.947L31.0854 16.8717L31.0932 16.8075C31.0979 16.7653 31.1025 16.723 31.1069 16.6806C31.1089 16.6638 31.1106 16.6467 31.1123 16.6297L31.1138 16.616C31.1167 16.5878 31.1193 16.5597 31.1218 16.5315L31.1279 16.4659C31.1406 16.3206 31.1508 16.1753 31.1588 16.0297L31.1629 15.9515L31.1637 15.9341L31.1667 15.8608C31.1679 15.8333 31.169 15.8054 31.1699 15.7771V15.7751L31.1707 15.7548C31.1715 15.7374 31.1721 15.7201 31.1721 15.7029L31.1724 15.6958C31.173 15.6797 31.1736 15.663 31.1736 15.6465L31.1741 15.6323C31.1745 15.6157 31.175 15.5993 31.175 15.5828L31.1753 15.5688C31.1757 15.5476 31.1762 15.5267 31.1762 15.5056V15.4285ZM16.7165 27.3615C17.6341 25.9741 17.5691 24.9329 16.31 23.6356C15.0509 22.3384 14.318 20.4413 14.318 20.4413C14.318 20.4413 14.0445 19.3392 13.4207 19.4406C12.7969 19.5418 12.3393 21.1884 13.6453 22.1964C14.9513 23.2044 13.3855 23.8878 12.8828 22.9419C12.3799 21.9959 11.0075 19.5643 10.2958 19.0992C9.5842 18.634 9.08377 18.8947 9.2515 19.8534C9.33483 20.3292 10.1097 21.1413 10.8337 21.9001C11.5682 22.6701 12.2503 23.3849 12.1046 23.6378C11.8151 24.1403 10.7958 23.0476 10.7958 23.0476C10.7958 23.0476 7.60388 20.0532 6.90896 20.8336C6.26847 21.5528 7.25619 22.1642 8.77844 23.1065C8.90794 23.1867 9.04127 23.2693 9.1778 23.3544C10.9193 24.4414 11.0548 24.7281 10.8077 25.1393C10.7164 25.2913 10.1334 24.9305 9.41632 24.4866C8.19391 23.73 6.58191 22.7325 6.3544 23.6254C6.15732 24.3982 7.34319 24.8717 8.41867 25.3012C9.31465 25.659 10.1342 25.9862 10.0137 26.4304C9.88878 26.8908 9.21159 26.5069 8.47127 26.087C7.64027 25.6155 6.72977 25.099 6.43192 25.6819C5.86865 26.7836 10.317 28.0807 10.3536 28.0902C11.7908 28.4744 15.4408 29.2887 16.7165 27.3615ZM22.6282 27.3615C21.7105 25.9741 21.7756 24.9329 23.0347 23.6356C24.2938 22.3384 25.0268 20.4413 25.0268 20.4413C25.0268 20.4413 25.3002 19.3392 25.924 19.4406C26.5478 19.5418 27.0056 21.1884 25.6994 22.1964C24.3932 23.2044 25.9592 23.8878 26.4621 22.9419C26.9648 21.9959 28.3366 19.5643 29.0482 19.0992C29.7598 18.634 30.2603 18.8947 30.0926 19.8534C30.0093 20.3292 29.2344 21.1414 28.5103 21.9002C27.7759 22.6701 27.0938 23.3849 27.2395 23.6378C27.5288 24.1403 28.5491 23.0469 28.5491 23.0469C28.5491 23.0469 31.7408 20.0526 32.4358 20.833C33.0762 21.5522 32.0884 22.1638 30.5661 23.1062C30.4366 23.1863 30.3035 23.2687 30.1669 23.354C28.4253 24.4408 28.29 24.7276 28.537 25.1387C28.6283 25.2907 29.2113 24.9299 29.9282 24.4862C31.1508 23.7296 32.7628 22.7318 32.9903 23.6248C33.1874 24.3976 32.0015 24.8712 30.9259 25.3007C30.0299 25.6585 29.2105 25.9856 29.3309 26.4299C29.4558 26.8903 30.1327 26.5062 30.8727 26.0863C31.7037 25.6149 32.6143 25.0982 32.9123 25.6812C33.4756 26.7838 29.0266 28.0794 28.9905 28.089C27.5533 28.4744 23.9033 29.2887 22.6282 27.3615Z" fill="white"/>
<path fill-rule="evenodd" clip-rule="evenodd" d="M23.354 12.1C23.5346 12.1659 23.669 12.3665 23.7968 12.5573C23.9696 12.8153 24.1304 13.0552 24.3772 12.9199C24.6685 12.7604 24.9071 12.5155 25.0632 12.216C25.2193 11.9166 25.2857 11.5762 25.2541 11.2378C25.2305 10.9848 25.1528 10.7403 25.0265 10.522C24.9002 10.3037 24.7285 10.117 24.524 9.97528C24.3192 9.83362 24.0865 9.74052 23.8428 9.70271C23.5989 9.6649 23.35 9.68332 23.1139 9.75663C22.7982 9.85466 22.5178 10.047 22.308 10.3092C22.0984 10.5715 21.9687 10.8919 21.9356 11.2301C21.9025 11.5683 21.9675 11.9091 22.1223 12.2092C22.2366 12.431 22.4904 12.3265 22.7583 12.216C22.9684 12.1295 23.187 12.0393 23.354 12.1ZM15.4987 12.1002C15.3182 12.166 15.1836 12.3667 15.0558 12.5574C14.883 12.8153 14.7222 13.0553 14.4754 12.9201C14.2578 12.8008 14.0687 12.6331 13.9215 12.4293C13.7742 12.2255 13.6727 11.9906 13.6241 11.7414C13.5755 11.4923 13.581 11.2352 13.6403 10.9886C13.6998 10.742 13.8114 10.5119 13.9672 10.3151C14.1233 10.1184 14.3196 9.95973 14.5422 9.85061C14.7648 9.74149 15.0083 9.68462 15.2547 9.68405C15.5012 9.6835 15.7448 9.73928 15.9678 9.84738C16.1909 9.95549 16.388 10.1133 16.5449 10.3093C16.7546 10.5715 16.8843 10.892 16.9175 11.2303C16.9505 11.5685 16.8855 11.9093 16.7306 12.2094C16.616 12.4312 16.3622 12.3265 16.0943 12.216C15.8844 12.1295 15.6657 12.0393 15.4987 12.1002ZM22.1388 19.4691C23.3838 18.4578 23.8411 16.807 23.8411 15.7901C23.8411 14.9862 23.3164 15.2392 22.4765 15.6677L22.4293 15.692C21.6582 16.0856 20.632 16.6095 19.5054 16.6095C18.3787 16.6095 17.3525 16.0854 16.5817 15.6919C15.7146 15.2491 15.1708 14.9714 15.1708 15.7902C15.1708 16.8392 15.6573 18.5618 16.9929 19.5627C17.169 19.1939 17.417 18.8665 17.7216 18.6011C18.026 18.3356 18.3804 18.138 18.7625 18.0202C18.8958 17.9792 19.0331 18.2158 19.1738 18.4579C19.3094 18.6917 19.4479 18.9306 19.5891 18.9306C19.7392 18.9306 19.8869 18.6952 20.0311 18.4652C20.1817 18.225 20.3285 17.9908 20.4705 18.0376C21.1855 18.2742 21.7834 18.7872 22.1388 19.4691Z" fill="#051B27"/>
<path d="M22.1398 19.4687C21.4914 19.9954 20.6295 20.3487 19.5072 20.3487C18.4527 20.3487 17.6278 20.0369 16.9944 19.5623C17.1707 19.1936 17.4188 18.8662 17.7232 18.601C18.0276 18.3355 18.3821 18.1377 18.764 18.0198C19.0259 17.9393 19.3033 18.9302 19.5904 18.9302C19.8979 18.9302 20.194 17.9456 20.472 18.0372C21.1867 18.2739 21.7845 18.787 22.1398 19.4687Z" fill="white"/>
<path fill-rule="evenodd" clip-rule="evenodd" d="M12.5216 13.53C12.4033 13.6121 12.2704 13.6693 12.1306 13.6983C11.9908 13.7273 11.8468 13.7276 11.7069 13.6992C11.567 13.6707 11.4339 13.6141 11.3152 13.5326C11.1966 13.451 11.0947 13.3462 11.0155 13.2239C10.9362 13.1017 10.8812 12.9644 10.8535 12.8204C10.8257 12.6761 10.8259 12.5277 10.8539 12.3834C10.8819 12.2394 10.9373 12.1024 11.0168 11.9802C11.0963 11.8582 11.1984 11.7535 11.3172 11.6722C11.5562 11.5087 11.8483 11.4495 12.1295 11.5077C12.4108 11.5658 12.6582 11.7364 12.8176 11.9823C12.9769 12.2282 13.0353 12.5291 12.9798 12.8191C12.9243 13.1093 12.7595 13.3649 12.5216 13.53ZM28.0272 13.53C27.9089 13.6121 27.776 13.6693 27.6362 13.6983C27.4965 13.7273 27.3525 13.7276 27.2126 13.6992C27.0727 13.6707 26.9395 13.6141 26.8208 13.5326C26.7022 13.451 26.6004 13.3462 26.5212 13.2239C26.4418 13.1017 26.3868 12.9644 26.3591 12.8204C26.3314 12.6761 26.3316 12.5277 26.3595 12.3834C26.3875 12.2394 26.4429 12.1024 26.5224 11.9802C26.6019 11.8582 26.704 11.7535 26.8228 11.6722C27.0618 11.5087 27.354 11.4495 27.6352 11.5077C27.9163 11.5658 28.1637 11.7364 28.3232 11.9823C28.4825 12.2282 28.5409 12.5291 28.4854 12.8191C28.4299 13.1093 28.2651 13.3649 28.0272 13.53Z" fill="#C0C0C0"/>
</svg>