<?xml version="1.0" encoding="utf-8"?>
<svg xmlns="http://www.w3.org/2000/svg" width="140" height="32" viewBox="0 0 140 32" fill="none">
<path d="M38.6573 4.89143C39.8363 5.74105 40.719 7.08382 41.0025 8.49333C41.0955 9.1311 41.0947 9.77622 41.1114 10.4194C41.1136 10.5028 41.1159 10.5863 41.1182 10.6722C41.1913 13.4788 41.1754 16.2872 41.173 19.0945C41.1726 19.7225 41.1729 20.3504 41.1734 20.9784C41.1739 21.5921 41.174 22.2058 41.1737 22.8195C41.1735 23.1826 41.1735 23.5458 41.1739 23.9089C41.1742 24.3103 41.1737 24.7118 41.1731 25.1132C41.1734 25.231 41.1736 25.3489 41.1738 25.4703C41.1693 27.0823 41.1693 27.0823 40.8368 27.4967C40.1881 27.799 39.4963 27.5396 38.8471 27.3293C38.5895 27.2405 38.3324 27.1504 38.0758 27.059C37.9426 27.0121 37.8094 26.9652 37.6722 26.9169C35.1627 26.0184 35.1627 26.0184 34.9252 25.5563C34.912 25.2374 34.9052 24.9208 34.9031 24.6018C34.9021 24.5029 34.901 24.4039 34.8999 24.302C34.8965 23.9739 34.8938 23.6459 34.8912 23.3178C34.889 23.0908 34.8867 22.8638 34.8844 22.6367C34.8785 22.0383 34.8732 21.44 34.868 20.8416C34.8626 20.2313 34.8566 19.621 34.8507 19.0107C34.8391 17.8127 34.8282 16.6147 34.8177 15.4166C34.7785 15.4939 34.7785 15.4939 34.7385 15.5727C34.462 16.1176 34.1845 16.6621 33.9065 17.2062C33.8034 17.4084 33.7005 17.6106 33.5979 17.8129C31.8537 21.251 31.8537 21.251 30.908 22.1133C30.8492 22.1686 30.7903 22.224 30.7297 22.281C30.2136 22.7502 29.6637 23.0894 29.0136 23.3611C28.9338 23.3949 28.854 23.4288 28.7718 23.4636C27.3242 24.0315 25.4915 23.9381 24.0694 23.3611C23.6482 23.1476 23.2673 22.9056 22.8871 22.6294C22.8111 22.5759 22.7352 22.5224 22.657 22.4673C20.5048 20.8068 19.3888 17.5414 18.1578 15.2075C18.1509 16.2365 18.1692 17.2621 18.2038 18.2904C18.2528 19.7908 18.2821 21.2916 18.2902 22.7928C18.2915 22.9921 18.2933 23.1913 18.2957 23.3906C18.2989 23.6703 18.3 23.9499 18.3005 24.2296C18.3019 24.3125 18.3032 24.3953 18.3045 24.4806C18.3025 24.9827 18.2408 25.3368 17.9428 25.7654C17.7134 25.9209 17.7134 25.9209 17.4461 26.0296C17.2968 26.0917 17.2968 26.0917 17.1444 26.1552C16.9843 26.2177 16.9843 26.2177 16.821 26.2815C16.6566 26.3481 16.6566 26.3481 16.4889 26.416C15.7595 26.7075 15.0237 26.9825 14.2817 27.2419C14.1942 27.2728 14.1068 27.3036 14.0168 27.3354C13.5577 27.4895 13.1686 27.5932 12.6761 27.5424C12.2862 27.2896 12.1784 27.0001 12.0742 26.5656C11.9762 25.9327 12.0025 25.2876 12.0051 24.6489C12.005 24.4829 12.0048 24.317 12.0045 24.151C12.004 23.702 12.0048 23.253 12.0059 22.8039C12.0068 22.3325 12.0067 21.8612 12.0066 21.3898C12.0067 20.5979 12.0076 19.806 12.0091 19.0141C12.0108 18.1011 12.0114 17.1881 12.0113 16.2751C12.0112 15.3001 12.012 14.3251 12.013 13.3501C12.0132 13.0707 12.0133 12.7912 12.0133 12.5118C12.0134 12.0707 12.0141 11.6297 12.0151 11.1887C12.0155 11.0277 12.0156 10.8668 12.0155 10.7058C12.0151 8.76096 12.1072 7.07645 13.5318 5.57784C14.6489 4.54044 15.9608 4.08416 17.4831 4.08847C18.9464 4.12915 20.2587 4.6554 21.2815 5.68196C23.2733 8.04167 24.3665 11.2821 25.5792 14.064C25.6193 14.156 25.6595 14.248 25.7008 14.3428C25.7761 14.5153 25.8511 14.688 25.926 14.8608C26.0765 15.2065 26.2307 15.5435 26.4054 15.8786C26.5415 16.1483 26.5415 16.1483 26.5415 16.3574C26.6124 16.3574 26.6834 16.3574 26.7565 16.3574C26.775 16.3005 26.7935 16.2436 26.8126 16.1849C27.0079 15.5985 27.2368 15.0346 27.4887 14.4693C27.7577 13.8579 28.0147 13.2455 28.2478 12.6203C28.5397 11.8442 28.8746 11.0884 29.2177 10.3325C29.4814 9.75161 29.7388 9.16877 29.9881 8.58194C30.0724 8.38511 30.1568 8.18834 30.2413 7.99158C30.3213 7.80415 30.3997 7.61613 30.4781 7.42809C31.0287 6.14992 31.815 5.08797 33.1362 4.48514C35.0128 3.76539 36.9313 3.80321 38.6573 4.89143Z" fill="white"/>
<path d="M55.7158 9.62316C56.2623 9.86065 56.4627 10.2102 56.706 10.7165C56.744 10.7929 56.782 10.8692 56.8211 10.9479C57.2315 11.7863 57.5839 12.6464 57.9314 13.5105C58.0657 13.8412 58.2006 14.1717 58.3355 14.5022C58.3685 14.5833 58.4015 14.6643 58.4355 14.7478C58.7845 15.6032 59.1511 16.4512 59.5233 17.2973C59.5656 17.3941 59.6079 17.491 59.6514 17.5907C59.6882 17.6741 59.7249 17.7575 59.7628 17.8434C59.8404 18.0458 59.8404 18.0458 59.8404 18.2618C59.914 18.2618 59.9875 18.2618 60.0633 18.2618C60.0754 18.1881 60.0875 18.1144 60.1 18.0385C60.1886 17.6636 60.3275 17.3313 60.4801 16.9761C60.5109 16.9038 60.5418 16.8316 60.5736 16.7571C60.6747 16.5206 60.7766 16.2844 60.8785 16.0481C60.949 15.8839 61.0195 15.7196 61.0899 15.5553C61.1979 15.3032 61.3061 15.0512 61.4144 14.7992C61.6509 14.249 61.8848 13.6977 62.1169 13.1457C62.2055 12.9357 62.2941 12.7258 62.3828 12.5159C62.4648 12.3213 62.5462 12.1265 62.6276 11.9317C63.3663 10.1884 63.3663 10.1884 63.8744 9.7244C64.3499 9.57084 64.8131 9.50152 65.3026 9.62316C65.6765 9.84032 66.0186 10.0765 66.1554 10.49C66.1829 10.7498 66.1859 11.0003 66.1804 11.2613C66.1819 11.4076 66.1819 11.4076 66.1835 11.5569C66.1857 11.8779 66.1824 12.1987 66.1788 12.5197C66.1787 12.7432 66.1789 12.9666 66.1794 13.1901C66.1796 13.6577 66.177 14.1252 66.1724 14.5927C66.1667 15.1926 66.167 15.7924 66.1692 16.3923C66.1703 16.8534 66.1687 17.3144 66.1662 17.7755C66.1653 17.9967 66.1651 18.218 66.1657 18.4392C66.1661 18.7479 66.1629 19.0564 66.1586 19.3651C66.1598 19.5027 66.1598 19.5027 66.161 19.6431C66.1552 19.8976 66.1552 19.8976 66.083 20.3135C65.7353 20.6126 65.589 20.6395 65.1215 20.6239C64.6319 20.501 64.6319 20.501 64.4108 20.2055C64.3671 19.9182 64.3671 19.9182 64.3644 19.5679C64.3626 19.4366 64.3607 19.3054 64.3588 19.1702C64.3585 19.0281 64.3581 18.8861 64.3577 18.7397C64.3561 18.5921 64.3544 18.4446 64.3525 18.297C64.3478 17.908 64.345 17.5191 64.3427 17.1301C64.3387 16.5095 64.3319 15.8888 64.325 15.2682C64.3229 15.0525 64.3217 14.8367 64.3204 14.6209C64.3147 13.9533 64.2945 13.3067 64.1879 12.6467C64.1442 12.7513 64.1006 12.856 64.0556 12.9638C63.6571 13.9187 63.2575 14.8731 62.8568 15.8272C62.6434 16.336 62.4315 16.8454 62.2219 17.3558C62.1044 17.6411 61.9858 17.926 61.867 18.2108C61.7862 18.4055 61.707 18.6008 61.6278 18.7961C61.0041 20.2837 61.0041 20.2837 60.2519 20.6573C59.8824 20.6999 59.6123 20.716 59.3074 20.4908C58.7429 19.8648 58.4254 19.2039 58.1056 18.4373C58.0502 18.3085 57.9948 18.1797 57.9378 18.0469C57.7855 17.6926 57.6355 17.3374 57.4859 16.9821C57.3113 16.5685 57.1348 16.1557 56.9586 15.7428C56.7465 15.2454 56.5346 14.7479 56.3241 14.2498C56.2918 14.1733 56.2594 14.0967 56.2261 14.0179C56.1652 13.8738 56.1044 13.7297 56.0437 13.5856C55.9404 13.3411 55.8379 13.099 55.7158 12.8627C55.6271 13.8507 55.5929 14.8347 55.5808 15.8263C55.5793 15.9458 55.5777 16.0652 55.576 16.1883C55.5696 16.6872 55.5635 17.186 55.5596 17.6849C55.5565 18.053 55.5514 18.421 55.546 18.7891C55.5456 18.9017 55.5453 19.0142 55.5449 19.1303C55.5277 20.1107 55.5277 20.1107 55.1585 20.5294C54.8453 20.6811 54.6136 20.6643 54.2667 20.6374C54.0271 20.5151 54.0271 20.5151 53.8208 20.3135C53.7535 20.0159 53.7535 20.0159 53.7383 19.6525C53.7322 19.5166 53.726 19.3808 53.7197 19.2409C53.7158 19.0945 53.7124 18.9481 53.7093 18.8017C53.7076 18.7303 53.7059 18.6589 53.7042 18.5853C53.6926 18.0435 53.6908 17.5019 53.6906 16.9601C53.6902 16.7876 53.6898 16.6151 53.6894 16.4426C53.6888 16.0841 53.6886 15.7257 53.6886 15.3672C53.6886 14.9098 53.6871 14.4524 53.6852 13.9949C53.684 13.6399 53.6837 13.2849 53.6838 12.9299C53.6837 12.7613 53.6832 12.5926 53.6823 12.4239C53.6745 10.7418 53.6745 10.7418 53.9322 10.0551C54.4397 9.56353 55.0302 9.50632 55.7158 9.62316Z" fill="white"/>
<path d="M121.468 9.56203C121.547 9.5617 121.626 9.56137 121.707 9.56104C121.791 9.56238 121.875 9.56372 121.962 9.56511C122.094 9.56541 122.094 9.56542 122.229 9.56573C122.415 9.56647 122.602 9.56797 122.788 9.57022C123.07 9.57359 123.352 9.57469 123.633 9.57534C126.908 9.59049 126.908 9.59048 128.063 10.8004C128.618 11.6388 128.768 12.4031 128.681 13.4177C128.487 14.3385 127.957 14.944 127.34 15.5987C127.411 15.6722 127.411 15.6722 127.484 15.7473C128.399 16.7618 128.59 17.965 128.617 19.3268C128.623 19.441 128.623 19.441 128.629 19.5575C128.635 19.9701 128.61 20.1423 128.341 20.4497C128.063 20.615 128.063 20.615 127.689 20.6218C127.34 20.5059 127.34 20.5059 127.173 20.2968C126.935 19.7336 126.913 19.1341 126.853 18.5251C126.779 17.8822 126.667 17.4384 126.309 16.9073C125.432 16.3619 124.302 16.4466 123.311 16.4097C123.133 16.4026 123.133 16.4026 122.951 16.3954C122.661 16.384 122.371 16.3728 122.08 16.362C122.083 16.4715 122.086 16.5809 122.088 16.6937C122.098 17.1012 122.104 17.5086 122.108 17.9162C122.111 18.0923 122.115 18.2684 122.119 18.4445C122.125 18.6981 122.128 18.9517 122.13 19.2054C122.133 19.2837 122.136 19.362 122.139 19.4426C122.139 19.8708 122.093 20.0524 121.838 20.3921C121.564 20.615 121.564 20.615 121.255 20.6831C120.833 20.5902 120.697 20.4241 120.43 20.0697C120.381 19.7629 120.363 19.5233 120.37 19.2177C120.369 19.1336 120.369 19.0495 120.369 18.9628C120.369 18.6852 120.372 18.4078 120.376 18.1302C120.377 17.9361 120.377 17.742 120.377 17.5479C120.379 17.0365 120.383 16.5252 120.388 16.0139C120.392 15.5996 120.393 15.1853 120.395 14.7709C120.396 14.2731 120.399 13.7753 120.402 13.2775C120.402 13.184 120.403 13.0905 120.403 12.9942C120.406 12.4821 120.412 11.9703 120.425 11.4584C120.429 11.2492 120.433 11.04 120.436 10.8307C120.441 10.7134 120.446 10.5961 120.451 10.4752C120.454 10.376 120.458 10.2768 120.461 10.1745C120.533 9.92805 120.533 9.92805 120.77 9.7327C121.032 9.6086 121.185 9.56039 121.468 9.56203ZM122.08 11.3457C122.045 11.6107 122.022 11.8631 122.009 12.1295C122.005 12.2062 122.001 12.283 121.997 12.3621C121.961 13.1557 122.01 13.9358 122.08 14.7263C122.631 14.9203 123.22 14.8284 123.795 14.808C123.923 14.8051 124.052 14.8021 124.185 14.7991C125.191 14.7643 126.016 14.6348 126.825 13.9629C127.191 13.5357 127.2 13.188 127.182 12.6279C127.101 12.1171 126.899 11.8701 126.515 11.5638C125.698 11.1117 124.893 11.0647 123.984 11.0827C123.773 11.0868 123.561 11.0872 123.349 11.0871C122.652 11.0357 122.652 11.0357 122.08 11.3457Z" fill="white"/>
<path d="M82.5576 9.56312C82.6828 9.56209 82.6828 9.56209 82.8105 9.56104C82.9448 9.5617 82.9448 9.5617 83.0818 9.56237C83.1751 9.56217 83.2684 9.56196 83.3646 9.56174C83.5623 9.56159 83.76 9.562 83.9577 9.56291C84.2569 9.56407 84.556 9.56291 84.8551 9.56151C86.2945 9.56028 87.5926 9.6008 88.841 10.4372C89.3999 11.0257 89.7933 11.7527 89.8031 12.6001C89.737 13.8499 89.2685 14.6028 88.4522 15.4851C88.5958 15.8078 88.7656 16.0838 88.9641 16.3719C89.5235 17.2664 89.6216 18.0728 89.6378 19.1278C89.6413 19.272 89.6413 19.272 89.6449 19.4191C89.6425 20.1051 89.6425 20.1051 89.4014 20.458C89.1779 20.6149 89.1779 20.6149 88.8734 20.6831C88.5072 20.6044 88.3767 20.4673 88.1483 20.1629C87.9489 19.7974 87.9516 19.4183 87.9339 19.005C87.875 18.2294 87.8001 17.5268 87.312 16.904C86.4636 16.3479 85.3273 16.4403 84.3577 16.406C83.9301 16.3903 83.5025 16.3745 83.0619 16.3583C83.0619 17.6549 83.0619 18.9515 83.0619 20.2875C82.3292 20.6732 82.3292 20.6732 81.818 20.5058C81.6467 20.3935 81.6467 20.3935 81.507 20.1783C81.4768 19.8643 81.4656 19.5739 81.4684 19.2598C81.468 19.1661 81.4677 19.0724 81.4673 18.9758C81.4664 18.6653 81.4678 18.3549 81.4694 18.0445C81.4694 17.8287 81.4694 17.613 81.4692 17.3972C81.4692 16.9446 81.4703 16.492 81.4722 16.0394C81.4745 15.4599 81.4746 14.8804 81.4739 14.3009C81.4735 13.8551 81.4742 13.4093 81.4752 12.9635C81.4756 12.7499 81.4758 12.5363 81.4756 12.3227C81.4755 12.0236 81.4769 11.7245 81.4785 11.4254C81.4783 11.3374 81.478 11.2494 81.4778 11.1588C81.4821 10.6725 81.511 10.2568 81.7143 9.80965C81.9897 9.59857 82.2221 9.56392 82.5576 9.56312ZM83.2692 11.1194C83.031 11.5169 83.0379 11.8515 83.0417 12.3148C83.042 12.3869 83.0423 12.459 83.0426 12.5332C83.0437 12.7623 83.0463 12.9913 83.049 13.2204C83.05 13.3762 83.0509 13.5319 83.0518 13.6877C83.0541 14.0686 83.0576 14.4494 83.0619 14.8303C83.5173 14.8227 83.9726 14.8131 84.4279 14.8016C84.5824 14.798 84.7369 14.795 84.8914 14.7925C86.3602 14.7808 86.3602 14.7808 87.6683 14.1413C88.0146 13.7589 88.1333 13.4853 88.1477 12.9561C88.1152 12.3173 87.9632 11.9915 87.5193 11.556C87.0631 11.3096 86.5968 11.267 86.094 11.2149C86.0083 11.2056 85.9227 11.1963 85.8345 11.1868C84.9786 11.1015 84.1279 11.0985 83.2692 11.1194Z" fill="white"/>
<path d="M113.914 10.4881C115.107 11.2977 115.87 12.5842 116.133 13.9741C116.34 15.618 116.088 17.3341 115.083 18.7088C114.145 19.7958 113.007 20.5215 111.534 20.6588C109.899 20.7533 108.407 20.6095 107.095 19.5644C107.02 19.5054 106.945 19.4464 106.868 19.3856C105.781 18.4349 105.228 16.9719 105.092 15.5792C105.034 14.028 105.39 12.514 106.418 11.3111C108.36 9.272 111.552 9.0379 113.914 10.4881ZM107.973 12.173C106.855 13.3544 106.803 14.5319 106.857 16.0772C106.917 16.9116 107.244 17.5967 107.861 18.1741C109.145 19.1658 110.31 19.2862 111.91 19.1366C112.823 18.9177 113.635 18.2087 114.119 17.4296C114.618 16.3503 114.612 14.7335 114.304 13.6018C113.954 12.6982 113.217 11.9129 112.366 11.4289C110.838 10.7779 109.156 11.0671 107.973 12.173Z" fill="white"/>
<path d="M71.4587 9.60674C71.5807 9.60497 71.7027 9.60321 71.8284 9.60139C71.9622 9.60012 72.096 9.59896 72.2298 9.59788C72.3306 9.597 72.3306 9.597 72.4335 9.5961C72.7891 9.59316 73.1448 9.59102 73.5004 9.58944C73.8681 9.5876 74.2357 9.58266 74.6034 9.57705C74.8859 9.57335 75.1683 9.57208 75.4508 9.57146C75.5864 9.57072 75.7219 9.56904 75.8575 9.56641C76.047 9.56294 76.2365 9.56325 76.4261 9.56373C76.5879 9.5624 76.5879 9.5624 76.753 9.56104C77.0201 9.62799 77.0201 9.62799 77.2046 9.8858C77.3413 10.2565 77.3108 10.4566 77.2151 10.8393C77.1507 10.9483 77.0864 11.0574 77.0201 11.1697C76.7214 11.2173 76.7214 11.2173 76.3375 11.226C76.2345 11.229 76.2345 11.229 76.1295 11.232C75.9063 11.2381 75.6832 11.2418 75.46 11.2454C75.3082 11.249 75.1563 11.2527 75.0045 11.2565C73.9864 11.2808 72.9681 11.2945 71.9498 11.2798C71.951 11.3824 71.9521 11.4851 71.9533 11.5908C71.9541 11.7312 71.955 11.8716 71.9559 12.0162C71.9571 12.1529 71.9582 12.2896 71.9594 12.4305C71.9552 13.0766 71.9007 13.7198 71.8523 14.3632C71.9393 14.3613 71.9393 14.3613 72.028 14.3595C72.6306 14.3473 73.2332 14.339 73.8359 14.3329C74.0609 14.3302 74.2859 14.3264 74.5109 14.3216C74.834 14.315 75.157 14.3118 75.4802 14.3094C75.6315 14.3051 75.6315 14.3051 75.7858 14.3008C76.0438 14.3007 76.2797 14.305 76.5325 14.3632C76.7457 14.6203 76.7457 14.6203 76.825 14.9138C76.8022 15.3437 76.7457 15.5437 76.5325 15.9049C76.3314 15.9446 76.3314 15.9446 76.0808 15.9424C75.9871 15.9423 75.8934 15.9423 75.7969 15.9423C75.6955 15.9406 75.5941 15.9389 75.4897 15.9371C75.3861 15.9367 75.2825 15.9362 75.1757 15.9357C74.8439 15.9338 74.5121 15.9297 74.1802 15.9255C73.9557 15.9238 73.7311 15.9223 73.5065 15.921C72.9551 15.9173 72.4037 15.9118 71.8523 15.9049C71.8593 16.0146 71.8663 16.1243 71.8734 16.2374C71.8825 16.3848 71.8916 16.5322 71.9007 16.6796C71.9097 16.8234 71.9187 16.9672 71.9279 17.1153C71.9625 17.7394 71.9582 18.3633 71.9498 18.9882C72.0487 18.988 72.1476 18.9878 72.2494 18.9875C73.2245 18.9858 74.1995 18.9851 75.1744 19.005C75.3266 19.0076 75.4788 19.0092 75.631 19.0098C75.8552 19.0108 76.0791 19.0153 76.3032 19.0205C76.3712 19.0201 76.4391 19.0196 76.5091 19.0192C76.6999 19.0257 76.6999 19.0257 77.0201 19.0984C77.2626 19.4248 77.317 19.5657 77.2943 19.9931C77.2151 20.3097 77.2151 20.3097 77.0201 20.64C76.7791 20.6812 76.7791 20.6812 76.4717 20.681C76.3568 20.6817 76.2419 20.6824 76.1235 20.6831C75.9363 20.6816 75.9363 20.6816 75.7453 20.68C75.5533 20.6801 75.5533 20.6801 75.3575 20.6802C75.0861 20.6802 74.8147 20.679 74.5433 20.6771C74.1969 20.6746 73.8505 20.6745 73.5041 20.6752C73.1725 20.6757 72.8409 20.6744 72.5093 20.6732C72.3855 20.6733 72.2617 20.6734 72.1341 20.6735C70.7004 20.6605 70.7004 20.6605 70.3898 20.3097C70.3789 20.0009 70.3744 19.6949 70.3741 19.386C70.3736 19.2891 70.3731 19.1923 70.3726 19.0925C70.3712 18.7704 70.3705 18.4483 70.37 18.1262C70.3694 17.903 70.3688 17.6798 70.3683 17.4566C70.3673 16.9878 70.3667 16.519 70.3663 16.0502C70.3658 15.4494 70.3635 14.8487 70.3607 14.2479C70.3589 13.7866 70.3584 13.3252 70.3582 12.8638C70.3579 12.6423 70.3571 12.4209 70.3559 12.1994C70.3542 11.8894 70.3544 11.5794 70.355 11.2694C70.3541 11.1778 70.3532 11.0863 70.3523 10.9919C70.3555 10.4838 70.3902 10.1509 70.6823 9.7381C70.9479 9.5881 71.1613 9.61065 71.4587 9.60674Z" fill="white"/>
<path d="M102.085 10.6513C102.277 10.8652 102.277 10.8652 102.307 11.1727C102.277 11.507 102.277 11.507 102.187 11.7677C101.989 11.9349 101.989 11.9349 101.628 11.9349C101.222 11.8655 100.838 11.7363 100.445 11.6073C99.3183 11.2512 98.1498 11.2078 97.0874 11.8279C96.306 12.3331 95.8972 13.0099 95.6459 13.9673C95.4607 15.2322 95.4981 16.5011 96.1564 17.5879C96.6968 18.355 97.3555 18.7914 98.2359 18.9138C99.2039 19.0036 100.075 18.853 101.001 18.5339C101.71 18.2918 101.71 18.2918 102.085 18.4599C102.277 18.7808 102.277 18.7808 102.289 19.1418C102.156 19.6186 102.023 19.7125 101.642 19.9436C100.23 20.6859 98.5839 20.9083 97.0574 20.4321C96.4879 20.1949 96.0168 19.8521 95.5498 19.4226C95.4898 19.3716 95.4298 19.3206 95.3681 19.268C94.7146 18.6422 94.1774 17.47 94.0121 16.5345C93.8994 14.6137 93.9492 12.8061 95.0663 11.2421C96.9184 9.0088 99.8892 9.20038 102.085 10.6513Z" fill="white"/>
</svg>