<svg width="558" height="527" viewBox="0 0 558 527" fill="none" xmlns="http://www.w3.org/2000/svg">
<g clip-path="url(#clip0_326_1929)">
<path d="M21.9097 175.26V154.72" stroke="#001E2B" stroke-miterlimit="10"/>
<path d="M21.9097 238.81V189.63" stroke="#001E2B" stroke-miterlimit="10"/>
<path d="M449.5 258.86L339.97 259.06C332.797 259.073 325.692 257.672 319.062 254.935C312.431 252.199 306.405 248.182 301.329 243.115C296.253 238.047 292.226 232.028 289.479 225.402C286.732 218.776 285.319 211.673 285.32 204.5V204.2C285.319 197.036 286.729 189.941 289.47 183.322C292.21 176.702 296.228 170.687 301.294 165.621C306.359 160.554 312.373 156.535 318.992 153.793C325.611 151.051 332.706 149.64 339.87 149.64H340.27C347.472 149.64 354.603 148.215 361.251 145.445C367.9 142.676 373.934 138.618 379.006 133.504C384.078 128.391 388.088 122.325 390.804 115.654C393.52 108.984 394.888 101.842 394.83 94.6405C394.724 80.2397 388.93 66.4647 378.709 56.3191C368.489 46.1734 354.671 40.4801 340.27 40.4805H122.38C115.212 40.4805 108.114 41.893 101.492 44.6374C94.8688 47.3818 88.8528 51.4043 83.7858 56.4749C78.7188 61.5455 74.7008 67.5648 71.9618 74.189C69.2218 80.8131 67.8148 87.9122 67.8198 95.0805V368.87C67.8198 383.062 70.6188 397.114 76.0558 410.223C81.4928 423.332 89.4608 435.24 99.5058 445.266C109.55 455.292 121.473 463.238 134.592 468.651C147.711 474.064 161.768 476.836 175.96 476.81L449.25 476.31C463.66 476.284 477.474 470.558 487.677 460.383C497.88 450.208 503.644 436.41 503.71 422L504.1 313.67C504.133 306.481 502.745 299.356 500.015 292.705C497.285 286.054 493.268 280.008 488.194 274.914C483.121 269.821 477.09 265.781 470.449 263.025C463.809 260.27 456.689 258.855 449.5 258.86Z" fill="#00684A"/>
<path d="M446.5 494.7L246.64 494.65L246.71 228.55L399.74 228.59L446.56 274.29L446.5 494.7Z" fill="white" stroke="#001E2B" stroke-miterlimit="10"/>
<path d="M406.18 307.47L275.94 307.43" stroke="#001E2B" stroke-miterlimit="10"/>
<path d="M395.16 339.96L275.93 339.92" stroke="#001E2B" stroke-miterlimit="10"/>
<path d="M406.17 372.45L275.92 372.42" stroke="#001E2B" stroke-miterlimit="10"/>
<path d="M395.42 404.94L275.92 404.91" stroke="#001E2B" stroke-miterlimit="10"/>
<path d="M379.72 437.43L275.91 437.4" stroke="#001E2B" stroke-miterlimit="10"/>
<path d="M446.56 274.29L404.25 240.33L404.24 284.92L446.56 277.21V274.29Z" fill="#001E2B" stroke="#001E2B" stroke-miterlimit="10"/>
<path d="M399.74 228.59L399.59 274.47L446.56 274.29L399.74 228.59Z" fill="white" stroke="#001E2B" stroke-linecap="round" stroke-linejoin="round"/>
<path d="M327.73 402.72C330.848 400.116 333.225 396.736 334.62 392.92C334.67 392.77 334.73 392.62 334.78 392.48C335.253 391.059 335.588 389.596 335.78 388.11L360.05 228.58H248.76L246.66 243.69V399.2L309.66 407.92C312.674 408.339 315.742 408.159 318.686 407.39C321.631 406.621 324.395 405.279 326.82 403.44L327.73 402.72Z" fill="#001E2B" stroke="#001E2B" stroke-miterlimit="10"/>
<path d="M431.43 36.3994L424.62 17.6994L439.58 0.939453L446.82 19.1594L431.43 36.3994Z" fill="white" stroke="#001E2B" stroke-miterlimit="10"/>
<path d="M431.47 36.4295L450.82 41.0895L465.78 24.3195L446.86 19.1895L431.47 36.4295Z" fill="#001E2B" stroke="#001E2B" stroke-miterlimit="10"/>
<path d="M458.33 6.25945L439.58 0.939453L446.86 19.1894L465.78 24.3194L458.33 6.25945Z" fill="white" stroke="#001E2B" stroke-miterlimit="10"/>
<path d="M140.874 34.2851L118.655 357.713C117.778 370.479 127.416 381.54 140.182 382.417L298.579 393.298C311.345 394.175 322.406 384.537 323.283 371.771L345.502 48.3429C346.379 35.5765 336.741 24.5164 323.974 23.6393L165.578 12.7576C152.811 11.8806 141.751 21.5188 140.874 34.2851Z" fill="#00ED64"/>
<path d="M140.874 34.2851L118.655 357.713C117.778 370.479 127.416 381.54 140.182 382.417L298.579 393.298C311.345 394.175 322.406 384.537 323.283 371.771L345.502 48.3429C346.379 35.5765 336.741 24.5164 323.974 23.6393L165.578 12.7576C152.811 11.8806 141.751 21.5188 140.874 34.2851Z" fill="#00ED64"/>
<path d="M149.145 34.8436L126.925 358.281C126.363 366.474 132.548 373.573 140.741 374.135L299.148 385.018C307.341 385.581 314.439 379.395 315.002 371.202L337.222 47.7643C337.785 39.5712 331.599 32.473 323.406 31.9102L165 21.0277C156.806 20.4649 149.708 26.6505 149.145 34.8436Z" fill="#00ED64"/>
<path d="M149.145 34.8436L126.925 358.281C126.363 366.474 132.548 373.573 140.741 374.135L299.148 385.018C307.341 385.581 314.439 379.395 315.002 371.202L337.222 47.7643C337.785 39.5712 331.599 32.473 323.406 31.9102L165 21.0277C156.806 20.4649 149.708 26.6505 149.145 34.8436Z" fill="#00ED64"/>
<path d="M118.65 357.72C118.233 363.85 120.266 369.895 124.303 374.526C128.34 379.158 134.051 381.997 140.18 382.42L298.58 393.32C304.708 393.738 310.752 391.706 315.383 387.671C320.014 383.636 322.854 377.928 323.28 371.8L325.06 345.94L120.43 331.87L118.65 357.72Z" fill="#00ED64"/>
<path d="M118.65 357.72C118.233 363.85 120.266 369.895 124.303 374.526C128.34 379.158 134.051 381.997 140.18 382.42L298.58 393.32C304.708 393.738 310.752 391.706 315.383 387.671C320.014 383.636 322.854 377.928 323.28 371.8L325.06 345.94L120.43 331.87L118.65 357.72Z" fill="#00ED64"/>
<path d="M243.5 36.6294C245.128 36.7464 246.764 36.5406 248.313 36.0239C249.861 35.5072 251.293 34.6898 252.525 33.6185C253.757 32.5473 254.765 31.2432 255.492 29.7813C256.219 28.3194 256.65 26.7283 256.76 25.0994L257.18 19.0994L232.43 17.3994L232.01 23.3994C231.785 26.6763 232.867 29.9089 235.021 32.3888C237.175 34.8687 240.224 36.3937 243.5 36.6294Z" fill="#00ED64"/>
<path d="M140.874 34.2851L118.655 357.713C117.778 370.479 127.416 381.54 140.182 382.417L298.579 393.298C311.345 394.175 322.406 384.537 323.283 371.771L345.502 48.3429C346.379 35.5765 336.741 24.5164 323.974 23.6393L165.578 12.7576C152.811 11.8806 141.751 21.5188 140.874 34.2851Z" fill="white"/>
<path d="M140.874 34.2851L118.655 357.713C117.778 370.479 127.416 381.54 140.182 382.417L298.579 393.298C311.345 394.175 322.406 384.537 323.283 371.771L345.502 48.3429C346.379 35.5765 336.741 24.5164 323.974 23.6393L165.578 12.7576C152.811 11.8806 141.751 21.5188 140.874 34.2851Z" stroke="#001E2B" stroke-miterlimit="10"/>
<path d="M149.145 34.8436L126.925 358.281C126.363 366.474 132.548 373.573 140.741 374.135L299.148 385.018C307.341 385.581 314.439 379.395 315.002 371.202L337.222 47.7643C337.785 39.5712 331.599 32.473 323.406 31.9102L165 21.0277C156.806 20.4649 149.708 26.6505 149.145 34.8436Z" fill="#00ED64"/>
<path d="M149.145 34.8436L126.925 358.281C126.363 366.474 132.548 373.573 140.741 374.135L299.148 385.018C307.341 385.581 314.439 379.395 315.002 371.202L337.222 47.7643C337.785 39.5712 331.599 32.473 323.406 31.9102L165 21.0277C156.806 20.4649 149.708 26.6505 149.145 34.8436Z" stroke="#001E2B" stroke-linecap="round" stroke-linejoin="round"/>
<path d="M118.65 357.72C118.233 363.85 120.266 369.895 124.303 374.526C128.34 379.158 134.051 381.997 140.18 382.42L298.58 393.32C304.708 393.738 310.752 391.706 315.383 387.671C320.014 383.636 322.854 377.928 323.28 371.8L325.06 345.94L120.43 331.87L118.65 357.72Z" fill="white"/>
<path d="M118.65 357.72C118.233 363.85 120.266 369.895 124.303 374.526C128.34 379.158 134.051 381.997 140.18 382.42L298.58 393.32C304.708 393.738 310.752 391.706 315.383 387.671C320.014 383.636 322.854 377.928 323.28 371.8L325.06 345.94L120.43 331.87L118.65 357.72Z" stroke="#001E2B" stroke-miterlimit="10"/>
<path d="M243.5 36.6294C245.128 36.7464 246.764 36.5406 248.313 36.0239C249.861 35.5072 251.293 34.6898 252.525 33.6185C253.757 32.5473 254.765 31.2432 255.492 29.7813C256.219 28.3194 256.65 26.7283 256.76 25.0994L257.18 19.0994L232.43 17.3994L232.01 23.3994C231.785 26.6763 232.867 29.9089 235.021 32.3888C237.175 34.8687 240.224 36.3937 243.5 36.6294Z" fill="#001E2B"/>
<path d="M182.73 100.56C184.502 100.683 186.248 101.05 187.92 101.65C187.407 95.6475 188.09 89.6027 189.93 83.8661C191.77 78.1296 194.731 72.8154 198.641 68.2316C202.55 63.6479 207.331 59.8858 212.705 57.1634C218.079 54.4411 223.941 52.8127 229.949 52.3726C235.958 51.9325 241.994 52.6895 247.707 54.5997C253.421 56.5099 258.699 59.5352 263.234 63.5004C267.77 67.4656 271.473 72.2916 274.13 77.6988C276.787 83.106 278.343 88.9868 278.71 95.0001C282.477 93.7609 286.471 93.3711 290.407 93.8587C294.342 94.3464 298.121 95.6993 301.471 97.8205C304.822 99.9416 307.661 102.778 309.785 106.127C311.909 109.475 313.266 113.253 313.757 117.188C314.248 121.123 313.862 125.118 312.626 128.886C311.39 132.654 309.336 136.101 306.609 138.981C303.883 141.861 300.553 144.101 296.858 145.541C293.164 146.981 289.196 147.585 285.24 147.31L231.67 143.59L230.18 143.53C229.65 143.53 229.13 143.43 228.61 143.38L181.5 140.05C181.02 140.05 180.5 140.05 180.05 140.05C177.458 139.872 174.927 139.184 172.601 138.027C170.275 136.871 168.2 135.267 166.494 133.308C164.787 131.349 163.484 129.074 162.657 126.611C161.83 124.148 161.496 121.547 161.675 118.955C161.854 116.364 162.541 113.832 163.698 111.506C164.854 109.18 166.458 107.105 168.417 105.399C170.376 103.692 172.651 102.389 175.114 101.562C177.577 100.735 180.178 100.402 182.77 100.58L182.73 100.56Z" fill="#B1FF05" stroke="#001E2B" stroke-miterlimit="10"/>
<path d="M308.25 136.73C308.25 136.73 302.5 143.43 286.72 142.34L177.83 134.85C177.83 134.85 161.08 133.28 161.83 122.28C164.41 136.85 175.2 139.62 182.47 140.12L287.78 147.44C291.763 147.238 295.655 146.176 299.188 144.327C302.722 142.478 305.813 139.886 308.25 136.73Z" fill="#001E2B"/>
<path d="M274.83 270.58L162.98 262.89L186.13 305.86L260.39 310.97L274.83 270.58Z" fill="white" stroke="#001E2B" stroke-miterlimit="10"/>
<path d="M198 318.94C201.004 318.94 203.44 316.504 203.44 313.5C203.44 310.496 201.004 308.06 198 308.06C194.996 308.06 192.56 310.496 192.56 313.5C192.56 316.504 194.996 318.94 198 318.94Z" fill="white" stroke="#001E2B" stroke-miterlimit="10"/>
<path d="M248.94 322.44C251.944 322.44 254.38 320.004 254.38 317C254.38 313.996 251.944 311.56 248.94 311.56C245.936 311.56 243.5 313.996 243.5 317C243.5 320.004 245.936 322.44 248.94 322.44Z" fill="white" stroke="#001E2B" stroke-miterlimit="10"/>
<path d="M274.82 270.8L289.44 231.3L303.38 228.47" stroke="#001E2B" stroke-miterlimit="10"/>
<path d="M226.55 252.65L226.61 251.65" stroke="#001E2B" stroke-miterlimit="10"/>
<path d="M226.75 249.7L232.87 160.76" stroke="#001E2B" stroke-miterlimit="10" stroke-dasharray="1.96 1.96"/>
<path d="M232.93 159.78L233 158.78" stroke="#001E2B" stroke-miterlimit="10"/>
<path d="M249.53 233.8L226.54 252.65L206.59 231.43" stroke="#001E2B" stroke-miterlimit="10"/>
<path d="M84.4998 384.09C69.6178 383.878 55.0848 388.601 43.1698 397.52C28.0856 408.48 17.9731 424.983 15.0569 443.399C12.1407 461.815 16.6597 480.636 27.6198 495.72C38.5799 510.804 55.0828 520.917 73.4998 523.833C91.9158 526.749 110.736 522.23 125.82 511.27C137.981 502.696 146.958 490.336 151.35 476.12C153.689 469.116 154.851 461.773 154.79 454.39C154.79 435.747 147.385 417.867 134.203 404.684C121.022 391.5 103.143 384.092 84.4998 384.09Z" fill="#001E2B" stroke="#001E2B" stroke-miterlimit="10"/>
<path d="M73.58 454.4L114.9 511.27C107.431 516.696 98.966 520.598 89.989 522.753C81.013 524.908 71.699 525.274 62.581 523.829C53.463 522.385 44.7182 519.159 36.8467 514.335C28.9753 509.511 22.1311 503.184 16.7049 495.715C11.2787 488.246 7.37673 479.781 5.22183 470.804C3.06683 461.827 2.70113 452.514 4.14563 443.396C5.59003 434.278 8.81623 425.533 13.6401 417.662C18.464 409.79 24.791 402.946 32.2599 397.52C44.172 388.604 58.702 383.885 73.58 384.1V454.4Z" fill="white" stroke="#001E2B" stroke-linecap="round" stroke-linejoin="round"/>
<path d="M73.5801 454.4L140.44 476.12C136.04 490.335 127.06 502.694 114.9 511.27L73.5801 454.4Z" fill="#00ED64" stroke="#001E2B" stroke-linecap="round" stroke-linejoin="round"/>
<path d="M73.5801 454.4V384.1C92.2251 384.1 110.106 391.507 123.29 404.69C136.473 417.874 143.88 435.755 143.88 454.4C143.941 461.78 142.779 469.12 140.44 476.12L73.5801 454.4Z" fill="#B1FF05" stroke="#001E2B" stroke-miterlimit="10"/>
<path d="M516.999 224.441C516.468 222.359 514.349 221.103 512.268 221.635C510.186 222.167 508.93 224.285 509.461 226.367L535.996 330.241C536.528 332.322 538.647 333.579 540.728 333.047C542.81 332.515 544.066 330.397 543.534 328.315L516.999 224.441Z" fill="white" stroke="#001E2B" stroke-miterlimit="10"/>
<path d="M512.26 221.67C511.765 221.797 511.299 222.02 510.891 222.327C510.482 222.634 510.137 223.019 509.877 223.459C509.617 223.9 509.447 224.387 509.375 224.893C509.303 225.399 509.332 225.915 509.46 226.41L517.03 256.07C518.21 255.85 519.4 255.6 520.58 255.3C521.94 254.96 523.26 254.55 524.58 254.1L517.02 224.48C516.893 223.982 516.669 223.515 516.361 223.104C516.052 222.693 515.666 222.347 515.224 222.086C514.782 221.825 514.292 221.654 513.783 221.582C513.275 221.511 512.757 221.541 512.26 221.67Z" fill="#001E2B" stroke="#001E2B" stroke-miterlimit="10"/>
<path d="M504.1 243.22C533.647 243.22 557.6 219.267 557.6 189.72C557.6 160.172 533.647 136.22 504.1 136.22C474.553 136.22 450.6 160.172 450.6 189.72C450.6 219.267 474.553 243.22 504.1 243.22Z" fill="white" stroke="#001E2B" stroke-miterlimit="10"/>
<path d="M504.1 236.09C529.709 236.09 550.47 215.33 550.47 189.72C550.47 164.111 529.709 143.35 504.1 143.35C478.491 143.35 457.73 164.111 457.73 189.72C457.73 215.33 478.491 236.09 504.1 236.09Z" fill="white" stroke="#001E2B" stroke-miterlimit="10"/>
<path d="M504.1 236.09C529.709 236.09 550.47 215.33 550.47 189.72C550.47 164.111 529.709 143.35 504.1 143.35C478.491 143.35 457.73 164.111 457.73 189.72C457.73 215.33 478.491 236.09 504.1 236.09Z" fill="white" stroke="#001E2B" stroke-miterlimit="10"/>
<g style="mix-blend-mode:multiply">
<path d="M492.63 144.79C480.714 147.836 470.496 155.49 464.222 166.068C457.947 176.646 456.13 189.282 459.17 201.2C459.36 201.92 459.56 202.64 459.78 203.35L550.46 188.35C550.354 184.932 549.878 181.535 549.04 178.22C545.992 166.307 538.336 156.092 527.758 149.823C517.179 143.554 504.544 141.743 492.63 144.79Z" fill="#B1FF05"/>
</g>
<path d="M41.9403 258.67V280.5L28.5503 295.21L26.8203 276.63L41.9403 258.67Z" fill="#001E2B" stroke="#001E2B" stroke-miterlimit="10"/>
<path d="M28.04 294.86L0 289.47V270.6L28.04 275.99V294.86Z" fill="white" stroke="#001E2B" stroke-linecap="round" stroke-linejoin="round"/>
<path d="M28.04 275.99L41.34 258.9L0 270.6L28.04 275.99Z" fill="white" stroke="#001E2B" stroke-linecap="round" stroke-linejoin="round"/>
<path d="M414.5 179.85L413.82 180.58" stroke="#001E2B" stroke-miterlimit="10"/>
<path d="M412.44 182.07C406.957 187.761 401.144 193.123 395.03 198.13" stroke="#001E2B" stroke-miterlimit="10" stroke-dasharray="2.06 2.06"/>
<path d="M394.23 198.78L393.46 199.41" stroke="#001E2B" stroke-miterlimit="10"/>
<path d="M456.79 53.1396C456.79 53.1396 456.86 53.4696 456.97 54.1396" stroke="#001E2B" stroke-miterlimit="10"/>
<path d="M457.29 56.0898C459.06 68.2798 463.12 116.28 427.16 164.7" stroke="#001E2B" stroke-miterlimit="10" stroke-dasharray="2.01 2.01"/>
<path d="M426.56 165.51C426.36 165.78 426.16 166.05 425.95 166.31" stroke="#001E2B" stroke-miterlimit="10"/>
</g>
<defs>
<clipPath id="clip0_326_1929">
<rect width="558" height="527" fill="white"/>
</clipPath>
</defs>
</svg>
